<?xml version="1.0" encoding="UTF-8" standalone="no"?>
<!DOCTYPE svg PUBLIC "-//W3C//DTD SVG 1.1//EN"
 "http://www.w3.org/Graphics/SVG/1.1/DTD/svg11.dtd">
<!-- Generated by graphviz version 2.43.0 (0)
 -->
<!-- Title: closures_derived_base_t&lt; Visc, Cond, Thermo, ProbParms &gt; Pages: 1 -->
<svg width="263pt" height="106pt"
 viewBox="0.00 0.00 262.50 106.00" xmlns="http://www.w3.org/2000/svg" xmlns:xlink="http://www.w3.org/1999/xlink">
<g id="graph0" class="graph" transform="scale(1 1) rotate(0) translate(4 102)">
<title>closures_derived_base_t&lt; Visc, Cond, Thermo, ProbParms &gt;</title>
<!-- Node1 -->
<g id="node1" class="node">
<title>Node1</title>
<g id="a_node1"><a xlink:title=" ">
<polygon fill="#bfbfbf" stroke="black" points="42.5,-0.5 42.5,-41.5 176.5,-41.5 176.5,-0.5 42.5,-0.5"/>
<text text-anchor="start" x="50.5" y="-29.5" font-family="Helvetica,sans-Serif" font-size="10.00">closures_derived_base</text>
<text text-anchor="start" x="50.5" y="-18.5" font-family="Helvetica,sans-Serif" font-size="10.00">_t&lt; Visc, Cond, Thermo,</text>
<text text-anchor="middle" x="109.5" y="-7.5" font-family="Helvetica,sans-Serif" font-size="10.00"> ProbParms &gt;</text>
</a>
</g>
</g>
<!-- Node2 -->
<g id="node2" class="node">
<title>Node2</title>
<g id="a_node2"><a xlink:title=" ">
<polygon fill="none" stroke="#bfbfbf" points="0,-78.5 0,-97.5 41,-97.5 41,-78.5 0,-78.5"/>
<text text-anchor="middle" x="20.5" y="-85.5" font-family="Helvetica,sans-Serif" font-size="10.00">Cond</text>
</a>
</g>
</g>
<!-- Node2&#45;&gt;Node1 -->
<g id="edge1" class="edge">
<title>Node2&#45;&gt;Node1</title>
<path fill="none" stroke="midnightblue" d="M40.82,-72.16C53.25,-63.08 69.29,-51.37 82.74,-41.54"/>
<polygon fill="midnightblue" stroke="midnightblue" points="38.51,-69.51 32.5,-78.23 42.64,-75.16 38.51,-69.51"/>
</g>
<!-- Node3 -->
<g id="node3" class="node">
<title>Node3</title>
<g id="a_node3"><a xlink:title=" ">
<polygon fill="none" stroke="#bfbfbf" points="59,-78.5 59,-97.5 96,-97.5 96,-78.5 59,-78.5"/>
<text text-anchor="middle" x="77.5" y="-85.5" font-family="Helvetica,sans-Serif" font-size="10.00">Visc</text>
</a>
</g>
</g>
<!-- Node3&#45;&gt;Node1 -->
<g id="edge2" class="edge">
<title>Node3&#45;&gt;Node1</title>
<path fill="none" stroke="midnightblue" d="M86.28,-69.16C90.5,-60.6 95.56,-50.32 99.88,-41.54"/>
<polygon fill="midnightblue" stroke="midnightblue" points="83.09,-67.72 81.82,-78.23 89.37,-70.81 83.09,-67.72"/>
</g>
<!-- Node4 -->
<g id="node4" class="node">
<title>Node4</title>
<g id="a_node4"><a xlink:title=" ">
<polygon fill="none" stroke="#bfbfbf" points="114.5,-78.5 114.5,-97.5 168.5,-97.5 168.5,-78.5 114.5,-78.5"/>
<text text-anchor="middle" x="141.5" y="-85.5" font-family="Helvetica,sans-Serif" font-size="10.00">Thermo</text>
</a>
</g>
</g>
<!-- Node4&#45;&gt;Node1 -->
<g id="edge3" class="edge">
<title>Node4&#45;&gt;Node1</title>
<path fill="none" stroke="midnightblue" d="M132.72,-69.16C128.5,-60.6 123.44,-50.32 119.12,-41.54"/>
<polygon fill="midnightblue" stroke="midnightblue" points="129.63,-70.81 137.18,-78.23 135.91,-67.72 129.63,-70.81"/>
</g>
<!-- Node5 -->
<g id="node5" class="node">
<title>Node5</title>
<g id="a_node5"><a xlink:title=" ">
<polygon fill="none" stroke="#bfbfbf" points="186.5,-78.5 186.5,-97.5 254.5,-97.5 254.5,-78.5 186.5,-78.5"/>
<text text-anchor="middle" x="220.5" y="-85.5" font-family="Helvetica,sans-Serif" font-size="10.00">ProbParms</text>
</a>
</g>
</g>
<!-- Node5&#45;&gt;Node1 -->
<g id="edge4" class="edge">
<title>Node5&#45;&gt;Node1</title>
<path fill="none" stroke="midnightblue" d="M196.49,-72.94C180.82,-63.76 160.14,-51.65 142.87,-41.54"/>
<polygon fill="midnightblue" stroke="midnightblue" points="195.13,-76.2 205.53,-78.23 198.67,-70.16 195.13,-76.2"/>
</g>
</g>
</svg>
