<?xml version="1.0" encoding="UTF-8" standalone="no"?>
<!DOCTYPE svg PUBLIC "-//W3C//DTD SVG 1.1//EN"
 "http://www.w3.org/Graphics/SVG/1.1/DTD/svg11.dtd">
<!-- Generated by graphviz version 2.43.0 (0)
 -->
<!-- Title: /media/monal/main/code/amrsolver1/src/rhs/CNS_hydro_K.h Pages: 1 -->
<svg width="190pt" height="106pt"
 viewBox="0.00 0.00 190.00 106.00" xmlns="http://www.w3.org/2000/svg" xmlns:xlink="http://www.w3.org/1999/xlink">
<g id="graph0" class="graph" transform="scale(1 1) rotate(0) translate(4 102)">
<title>/media/monal/main/code/amrsolver1/src/rhs/CNS_hydro_K.h</title>
<!-- Node1 -->
<g id="node1" class="node">
<title>Node1</title>
<g id="a_node1"><a xlink:title=" ">
<polygon fill="#bfbfbf" stroke="black" points="39.5,-56.5 39.5,-97.5 177.5,-97.5 177.5,-56.5 39.5,-56.5"/>
<text text-anchor="start" x="47.5" y="-85.5" font-family="Helvetica,sans-Serif" font-size="10.00">/media/monal/main/code</text>
<text text-anchor="start" x="47.5" y="-74.5" font-family="Helvetica,sans-Serif" font-size="10.00">/amrsolver1/src/rhs/CNS</text>
<text text-anchor="middle" x="108.5" y="-63.5" font-family="Helvetica,sans-Serif" font-size="10.00">_hydro_K.h</text>
</a>
</g>
</g>
<!-- Node2 -->
<g id="node2" class="node">
<title>Node2</title>
<g id="a_node2"><a xlink:title=" ">
<polygon fill="none" stroke="#bfbfbf" points="0,-0.5 0,-19.5 117,-19.5 117,-0.5 0,-0.5"/>
<text text-anchor="middle" x="58.5" y="-7.5" font-family="Helvetica,sans-Serif" font-size="10.00">AMReX_FArrayBox.H</text>
</a>
</g>
</g>
<!-- Node1&#45;&gt;Node2 -->
<g id="edge1" class="edge">
<title>Node1&#45;&gt;Node2</title>
<path fill="none" stroke="midnightblue" d="M93.5,-56.5C86.42,-47.3 78.07,-36.44 71.29,-27.63"/>
<polygon fill="midnightblue" stroke="midnightblue" points="74.03,-25.44 65.16,-19.65 68.48,-29.71 74.03,-25.44"/>
</g>
<!-- Node3 -->
<g id="node3" class="node">
<title>Node3</title>
<g id="a_node3"><a xlink:title=" ">
<polygon fill="none" stroke="#bfbfbf" points="135,-0.5 135,-19.5 182,-19.5 182,-0.5 135,-0.5"/>
<text text-anchor="middle" x="158.5" y="-7.5" font-family="Helvetica,sans-Serif" font-size="10.00">cmath</text>
</a>
</g>
</g>
<!-- Node1&#45;&gt;Node3 -->
<g id="edge2" class="edge">
<title>Node1&#45;&gt;Node3</title>
<path fill="none" stroke="midnightblue" d="M123.5,-56.5C130.58,-47.3 138.93,-36.44 145.71,-27.63"/>
<polygon fill="midnightblue" stroke="midnightblue" points="148.52,-29.71 151.84,-19.65 142.97,-25.44 148.52,-29.71"/>
</g>
</g>
</svg>
