<?xml version="1.0" encoding="UTF-8" standalone="no"?>
<!DOCTYPE svg PUBLIC "-//W3C//DTD SVG 1.1//EN"
 "http://www.w3.org/Graphics/SVG/1.1/DTD/svg11.dtd">
<!-- Generated by graphviz version 2.43.0 (0)
 -->
<!-- Title: /media/monal/main/code/amrsolver1/src/CNS.cpp Pages: 1 -->
<svg width="639pt" height="207pt"
 viewBox="0.00 0.00 638.77 207.00" xmlns="http://www.w3.org/2000/svg" xmlns:xlink="http://www.w3.org/1999/xlink">
<g id="graph0" class="graph" transform="scale(1 1) rotate(0) translate(4 203)">
<title>/media/monal/main/code/amrsolver1/src/CNS.cpp</title>
<!-- Node1 -->
<g id="node1" class="node">
<title>Node1</title>
<g id="a_node1"><a xlink:title=" ">
<polygon fill="#bfbfbf" stroke="black" points="252,-168.5 252,-198.5 390,-198.5 390,-168.5 252,-168.5"/>
<text text-anchor="start" x="260" y="-186.5" font-family="Helvetica,sans-Serif" font-size="10.00">/media/monal/main/code</text>
<text text-anchor="middle" x="321" y="-175.5" font-family="Helvetica,sans-Serif" font-size="10.00">/amrsolver1/src/CNS.cpp</text>
</a>
</g>
</g>
<!-- Node2 -->
<g id="node2" class="node">
<title>Node2</title>
<g id="a_node2"><a xlink:title=" ">
<polygon fill="none" stroke="#bfbfbf" points="0,-112.5 0,-131.5 126,-131.5 126,-112.5 0,-112.5"/>
<text text-anchor="middle" x="63" y="-119.5" font-family="Helvetica,sans-Serif" font-size="10.00">AMReX_MultiFabUtil.H</text>
</a>
</g>
</g>
<!-- Node1&#45;&gt;Node2 -->
<g id="edge1" class="edge">
<title>Node1&#45;&gt;Node2</title>
<path fill="none" stroke="midnightblue" d="M260.18,-168.47C214.22,-157.87 152.04,-143.53 109.88,-133.81"/>
<polygon fill="midnightblue" stroke="midnightblue" points="110.42,-130.34 99.88,-131.51 108.84,-137.16 110.42,-130.34"/>
</g>
<!-- Node3 -->
<g id="node3" class="node">
<title>Node3</title>
<g id="a_node3"><a xlink:title=" ">
<polygon fill="none" stroke="#bfbfbf" points="144.5,-112.5 144.5,-131.5 263.5,-131.5 263.5,-112.5 144.5,-112.5"/>
<text text-anchor="middle" x="204" y="-119.5" font-family="Helvetica,sans-Serif" font-size="10.00">AMReX_ParmParse.H</text>
</a>
</g>
</g>
<!-- Node1&#45;&gt;Node3 -->
<g id="edge2" class="edge">
<title>Node1&#45;&gt;Node3</title>
<path fill="none" stroke="midnightblue" d="M293.27,-168.4C274.17,-158.68 248.94,-145.86 230.18,-136.31"/>
<polygon fill="midnightblue" stroke="midnightblue" points="231.52,-133.07 221.02,-131.66 228.35,-139.31 231.52,-133.07"/>
</g>
<!-- Node4 -->
<g id="node4" class="node">
<title>Node4</title>
<g id="a_node4"><a xlink:href="CNS_8h.html" target="_top" xlink:title=" ">
<polygon fill="none" stroke="black" points="230,-56.5 230,-75.5 276,-75.5 276,-56.5 230,-56.5"/>
<text text-anchor="middle" x="253" y="-63.5" font-family="Helvetica,sans-Serif" font-size="10.00">CNS.h</text>
</a>
</g>
</g>
<!-- Node1&#45;&gt;Node4 -->
<g id="edge3" class="edge">
<title>Node1&#45;&gt;Node4</title>
<path fill="none" stroke="midnightblue" d="M312.66,-168.34C300.19,-147.15 276.69,-107.24 263.21,-84.34"/>
<polygon fill="midnightblue" stroke="midnightblue" points="266.19,-82.51 258.1,-75.67 260.16,-86.06 266.19,-82.51"/>
</g>
<!-- Node7 -->
<g id="node7" class="node">
<title>Node7</title>
<g id="a_node7"><a xlink:title=" ">
<polygon fill="none" stroke="#bfbfbf" points="414.5,-0.5 414.5,-19.5 485.5,-19.5 485.5,-0.5 414.5,-0.5"/>
<text text-anchor="middle" x="450" y="-7.5" font-family="Helvetica,sans-Serif" font-size="10.00">cns_prob.H</text>
</a>
</g>
</g>
<!-- Node1&#45;&gt;Node7 -->
<g id="edge12" class="edge">
<title>Node1&#45;&gt;Node7</title>
<path fill="none" stroke="midnightblue" d="M390.03,-181.6C463.85,-176.36 576.77,-154.99 625,-76 655.25,-26.45 557.48,-14.42 496.04,-11.66"/>
<polygon fill="midnightblue" stroke="midnightblue" points="495.9,-8.15 485.77,-11.27 495.63,-15.15 495.9,-8.15"/>
</g>
<!-- Node8 -->
<g id="node8" class="node">
<title>Node8</title>
<g id="a_node8"><a xlink:href="CNS__K_8h.html" target="_top" xlink:title=" ">
<polygon fill="none" stroke="black" points="449,-112.5 449,-131.5 507,-131.5 507,-112.5 449,-112.5"/>
<text text-anchor="middle" x="478" y="-119.5" font-family="Helvetica,sans-Serif" font-size="10.00">CNS_K.h</text>
</a>
</g>
</g>
<!-- Node1&#45;&gt;Node8 -->
<g id="edge7" class="edge">
<title>Node1&#45;&gt;Node8</title>
<path fill="none" stroke="midnightblue" d="M358.21,-168.4C384.78,-158.33 420.19,-144.91 445.61,-135.28"/>
<polygon fill="midnightblue" stroke="midnightblue" points="447.04,-138.47 455.16,-131.66 444.56,-131.93 447.04,-138.47"/>
</g>
<!-- Node12 -->
<g id="node12" class="node">
<title>Node12</title>
<g id="a_node12"><a xlink:href="Central_8h.html" target="_top" xlink:title=" ">
<polygon fill="none" stroke="black" points="320.5,-112.5 320.5,-131.5 381.5,-131.5 381.5,-112.5 320.5,-112.5"/>
<text text-anchor="middle" x="351" y="-119.5" font-family="Helvetica,sans-Serif" font-size="10.00">Central.h</text>
</a>
</g>
</g>
<!-- Node1&#45;&gt;Node12 -->
<g id="edge13" class="edge">
<title>Node1&#45;&gt;Node12</title>
<path fill="none" stroke="midnightblue" d="M328.11,-168.4C332.29,-160.11 337.61,-149.55 342.07,-140.71"/>
<polygon fill="midnightblue" stroke="midnightblue" points="345.26,-142.16 346.63,-131.66 339.01,-139.01 345.26,-142.16"/>
</g>
<!-- Node5 -->
<g id="node5" class="node">
<title>Node5</title>
<g id="a_node5"><a xlink:title=" ">
<polygon fill="none" stroke="#bfbfbf" points="225,-0.5 225,-19.5 339,-19.5 339,-0.5 225,-0.5"/>
<text text-anchor="middle" x="282" y="-7.5" font-family="Helvetica,sans-Serif" font-size="10.00">AMReX_AmrLevel.H</text>
</a>
</g>
</g>
<!-- Node4&#45;&gt;Node5 -->
<g id="edge4" class="edge">
<title>Node4&#45;&gt;Node5</title>
<path fill="none" stroke="midnightblue" d="M257.79,-56.08C261.76,-48.69 267.53,-37.95 272.43,-28.81"/>
<polygon fill="midnightblue" stroke="midnightblue" points="275.65,-30.22 277.3,-19.75 269.49,-26.91 275.65,-30.22"/>
</g>
<!-- Node6 -->
<g id="node6" class="node">
<title>Node6</title>
<g id="a_node6"><a xlink:title=" ">
<polygon fill="none" stroke="#bfbfbf" points="79,-0.5 79,-19.5 207,-19.5 207,-0.5 79,-0.5"/>
<text text-anchor="middle" x="143" y="-7.5" font-family="Helvetica,sans-Serif" font-size="10.00">AMReX_FluxRegister.H</text>
</a>
</g>
</g>
<!-- Node4&#45;&gt;Node6 -->
<g id="edge5" class="edge">
<title>Node4&#45;&gt;Node6</title>
<path fill="none" stroke="midnightblue" d="M235.33,-56.32C217.61,-47.62 190.1,-34.12 169.71,-24.11"/>
<polygon fill="midnightblue" stroke="midnightblue" points="171.15,-20.92 160.63,-19.65 168.06,-27.2 171.15,-20.92"/>
</g>
<!-- Node4&#45;&gt;Node7 -->
<g id="edge6" class="edge">
<title>Node4&#45;&gt;Node7</title>
<path fill="none" stroke="midnightblue" d="M276.37,-58.59C309.07,-49.63 368.96,-33.21 409.13,-22.2"/>
<polygon fill="midnightblue" stroke="midnightblue" points="410.17,-25.55 418.89,-19.53 408.32,-18.8 410.17,-25.55"/>
</g>
<!-- Node8&#45;&gt;Node7 -->
<g id="edge11" class="edge">
<title>Node8&#45;&gt;Node7</title>
<path fill="none" stroke="midnightblue" d="M475.8,-112.37C471.28,-94.62 460.86,-53.67 454.73,-29.6"/>
<polygon fill="midnightblue" stroke="midnightblue" points="458.05,-28.42 452.19,-19.59 451.26,-30.15 458.05,-28.42"/>
</g>
<!-- Node9 -->
<g id="node9" class="node">
<title>Node9</title>
<g id="a_node9"><a xlink:title=" ">
<polygon fill="none" stroke="#bfbfbf" points="332.5,-56.5 332.5,-75.5 449.5,-75.5 449.5,-56.5 332.5,-56.5"/>
<text text-anchor="middle" x="391" y="-63.5" font-family="Helvetica,sans-Serif" font-size="10.00">AMReX_FArrayBox.H</text>
</a>
</g>
</g>
<!-- Node8&#45;&gt;Node9 -->
<g id="edge8" class="edge">
<title>Node8&#45;&gt;Node9</title>
<path fill="none" stroke="midnightblue" d="M464.02,-112.32C450.45,-103.9 429.62,-90.97 413.68,-81.07"/>
<polygon fill="midnightblue" stroke="midnightblue" points="415.29,-77.95 404.94,-75.65 411.59,-83.9 415.29,-77.95"/>
</g>
<!-- Node10 -->
<g id="node10" class="node">
<title>Node10</title>
<g id="a_node10"><a xlink:title=" ">
<polygon fill="none" stroke="#bfbfbf" points="506,-56.5 506,-75.5 550,-75.5 550,-56.5 506,-56.5"/>
<text text-anchor="middle" x="528" y="-63.5" font-family="Helvetica,sans-Serif" font-size="10.00">limits</text>
</a>
</g>
</g>
<!-- Node8&#45;&gt;Node10 -->
<g id="edge9" class="edge">
<title>Node8&#45;&gt;Node10</title>
<path fill="none" stroke="midnightblue" d="M486.26,-112.08C493.46,-104.3 504.11,-92.8 512.85,-83.37"/>
<polygon fill="midnightblue" stroke="midnightblue" points="515.67,-85.47 519.9,-75.75 510.53,-80.71 515.67,-85.47"/>
</g>
<!-- Node11 -->
<g id="node11" class="node">
<title>Node11</title>
<g id="a_node11"><a xlink:title=" ">
<polygon fill="none" stroke="#bfbfbf" points="568.5,-56.5 568.5,-75.5 615.5,-75.5 615.5,-56.5 568.5,-56.5"/>
<text text-anchor="middle" x="592" y="-63.5" font-family="Helvetica,sans-Serif" font-size="10.00">cmath</text>
</a>
</g>
</g>
<!-- Node8&#45;&gt;Node11 -->
<g id="edge10" class="edge">
<title>Node8&#45;&gt;Node11</title>
<path fill="none" stroke="midnightblue" d="M496.06,-112.44C514.57,-103.68 543.58,-89.94 564.86,-79.86"/>
<polygon fill="midnightblue" stroke="midnightblue" points="566.48,-82.96 574.02,-75.52 563.49,-76.63 566.48,-82.96"/>
</g>
<!-- Node12&#45;&gt;Node4 -->
<g id="edge14" class="edge">
<title>Node12&#45;&gt;Node4</title>
<path fill="none" stroke="midnightblue" d="M335.25,-112.32C319.68,-103.74 295.62,-90.49 277.54,-80.52"/>
<polygon fill="midnightblue" stroke="midnightblue" points="279.15,-77.42 268.71,-75.65 275.78,-83.55 279.15,-77.42"/>
</g>
<!-- Node12&#45;&gt;Node7 -->
<g id="edge16" class="edge">
<title>Node12&#45;&gt;Node7</title>
<path fill="none" stroke="midnightblue" d="M342.32,-112.4C330.24,-99.36 311.19,-74.18 324,-56 342.05,-30.38 376.08,-19.27 404.23,-14.48"/>
<polygon fill="midnightblue" stroke="midnightblue" points="404.91,-17.92 414.29,-12.99 403.88,-11 404.91,-17.92"/>
</g>
<!-- Node12&#45;&gt;Node9 -->
<g id="edge15" class="edge">
<title>Node12&#45;&gt;Node9</title>
<path fill="none" stroke="midnightblue" d="M357.61,-112.08C363.26,-104.46 371.54,-93.26 378.45,-83.94"/>
<polygon fill="midnightblue" stroke="midnightblue" points="381.38,-85.87 384.52,-75.75 375.75,-81.7 381.38,-85.87"/>
</g>
</g>
</svg>
