<?xml version="1.0" encoding="UTF-8" standalone="no"?>
<!DOCTYPE svg PUBLIC "-//W3C//DTD SVG 1.1//EN"
 "http://www.w3.org/Graphics/SVG/1.1/DTD/svg11.dtd">
<!-- Generated by graphviz version 2.43.0 (0)
 -->
<!-- Title: /media/monal/main/code/amrsolver1/src/CNS.h Pages: 1 -->
<svg width="1256pt" height="195pt"
 viewBox="0.00 0.00 1255.78 195.00" xmlns="http://www.w3.org/2000/svg" xmlns:xlink="http://www.w3.org/1999/xlink">
<g id="graph0" class="graph" transform="scale(1 1) rotate(0) translate(4 191)">
<title>/media/monal/main/code/amrsolver1/src/CNS.h</title>
<!-- Node1 -->
<g id="node1" class="node">
<title>Node1</title>
<g id="a_node1"><a xlink:title=" ">
<polygon fill="#bfbfbf" stroke="black" points="413.78,-156.5 413.78,-186.5 551.78,-186.5 551.78,-156.5 413.78,-156.5"/>
<text text-anchor="start" x="421.78" y="-174.5" font-family="Helvetica,sans-Serif" font-size="10.00">/media/monal/main/code</text>
<text text-anchor="middle" x="482.78" y="-163.5" font-family="Helvetica,sans-Serif" font-size="10.00">/amrsolver1/src/CNS.h</text>
</a>
</g>
</g>
<!-- Node2 -->
<g id="node2" class="node">
<title>Node2</title>
<g id="a_node2"><a xlink:href="CNS_8cpp.html" target="_top" xlink:title=" ">
<polygon fill="none" stroke="black" points="88.78,-6 88.78,-36 226.78,-36 226.78,-6 88.78,-6"/>
<text text-anchor="start" x="96.78" y="-24" font-family="Helvetica,sans-Serif" font-size="10.00">/media/monal/main/code</text>
<text text-anchor="middle" x="157.78" y="-13" font-family="Helvetica,sans-Serif" font-size="10.00">/amrsolver1/src/CNS.cpp</text>
</a>
</g>
</g>
<!-- Node1&#45;&gt;Node2 -->
<g id="edge1" class="edge">
<title>Node1&#45;&gt;Node2</title>
<path fill="none" stroke="midnightblue" d="M403.55,-167.74C275.48,-162.45 34.64,-148.76 8.78,-120 -3.7,-106.12 -1.85,-93.35 8.78,-78 26.87,-51.87 58.78,-37.92 88.44,-30.47"/>
<polygon fill="midnightblue" stroke="midnightblue" points="403.56,-171.24 413.7,-168.15 403.85,-164.25 403.56,-171.24"/>
</g>
<!-- Node3 -->
<g id="node3" class="node">
<title>Node3</title>
<g id="a_node3"><a xlink:href="main_8cpp.html" target="_top" xlink:title=" ">
<polygon fill="none" stroke="black" points="17.78,-84 17.78,-114 157.78,-114 157.78,-84 17.78,-84"/>
<text text-anchor="start" x="25.78" y="-102" font-family="Helvetica,sans-Serif" font-size="10.00">/media/monal/main/code</text>
<text text-anchor="middle" x="87.78" y="-91" font-family="Helvetica,sans-Serif" font-size="10.00">/amrsolver1/src/main.cpp</text>
</a>
</g>
</g>
<!-- Node1&#45;&gt;Node3 -->
<g id="edge2" class="edge">
<title>Node1&#45;&gt;Node3</title>
<path fill="none" stroke="midnightblue" d="M403.68,-159.86C339.55,-150.76 246.97,-136.52 166.78,-120 158.33,-118.26 149.42,-116.21 140.75,-114.1"/>
<polygon fill="midnightblue" stroke="midnightblue" points="403.34,-163.35 413.73,-161.28 404.31,-156.42 403.34,-163.35"/>
</g>
<!-- Node4 -->
<g id="node4" class="node">
<title>Node4</title>
<g id="a_node4"><a xlink:href="CentralKEEP_8h.html" target="_top" xlink:title=" ">
<polygon fill="none" stroke="black" points="176.28,-84 176.28,-114 357.28,-114 357.28,-84 176.28,-84"/>
<text text-anchor="start" x="184.28" y="-102" font-family="Helvetica,sans-Serif" font-size="10.00">/media/monal/main/code</text>
<text text-anchor="middle" x="266.78" y="-91" font-family="Helvetica,sans-Serif" font-size="10.00">/amrsolver1/src/rhs/CentralKEEP.h</text>
</a>
</g>
</g>
<!-- Node1&#45;&gt;Node4 -->
<g id="edge3" class="edge">
<title>Node1&#45;&gt;Node4</title>
<path fill="none" stroke="midnightblue" d="M430.26,-153.36C393.38,-141.32 344.64,-125.41 310,-114.11"/>
<polygon fill="midnightblue" stroke="midnightblue" points="429.26,-156.71 439.85,-156.49 431.43,-150.06 429.26,-156.71"/>
</g>
<!-- Node5 -->
<g id="node5" class="node">
<title>Node5</title>
<g id="a_node5"><a xlink:href="CNS__advance_8cpp.html" target="_top" xlink:title=" ">
<polygon fill="none" stroke="black" points="364.78,-0.5 364.78,-41.5 502.78,-41.5 502.78,-0.5 364.78,-0.5"/>
<text text-anchor="start" x="372.78" y="-29.5" font-family="Helvetica,sans-Serif" font-size="10.00">/media/monal/main/code</text>
<text text-anchor="start" x="372.78" y="-18.5" font-family="Helvetica,sans-Serif" font-size="10.00">/amrsolver1/src/tim/CNS</text>
<text text-anchor="middle" x="433.78" y="-7.5" font-family="Helvetica,sans-Serif" font-size="10.00">_advance.cpp</text>
</a>
</g>
</g>
<!-- Node1&#45;&gt;Node5 -->
<g id="edge13" class="edge">
<title>Node1&#45;&gt;Node5</title>
<path fill="none" stroke="midnightblue" d="M437.41,-151.49C424.53,-143.72 412.05,-133.36 404.78,-120 391.05,-94.75 406.31,-62.21 419.37,-41.72"/>
<polygon fill="midnightblue" stroke="midnightblue" points="435.89,-154.65 446.33,-156.46 439.3,-148.54 435.89,-154.65"/>
</g>
<!-- Node6 -->
<g id="node6" class="node">
<title>Node6</title>
<g id="a_node6"><a xlink:href="High__resolution_8h.html" target="_top" xlink:title=" ">
<polygon fill="none" stroke="black" points="413.78,-78.5 413.78,-119.5 551.78,-119.5 551.78,-78.5 413.78,-78.5"/>
<text text-anchor="start" x="421.78" y="-107.5" font-family="Helvetica,sans-Serif" font-size="10.00">/media/monal/main/code</text>
<text text-anchor="start" x="421.78" y="-96.5" font-family="Helvetica,sans-Serif" font-size="10.00">/amrsolver1/src/rhs/High</text>
<text text-anchor="middle" x="482.78" y="-85.5" font-family="Helvetica,sans-Serif" font-size="10.00">_resolution.h</text>
</a>
</g>
</g>
<!-- Node1&#45;&gt;Node6 -->
<g id="edge6" class="edge">
<title>Node1&#45;&gt;Node6</title>
<path fill="none" stroke="midnightblue" d="M482.78,-145.98C482.78,-137.35 482.78,-127.76 482.78,-119.59"/>
<polygon fill="midnightblue" stroke="midnightblue" points="479.28,-146.23 482.78,-156.23 486.28,-146.23 479.28,-146.23"/>
</g>
<!-- Node7 -->
<g id="node7" class="node">
<title>Node7</title>
<g id="a_node7"><a xlink:href="Riemann_8h.html" target="_top" xlink:title=" ">
<polygon fill="none" stroke="black" points="569.78,-84 569.78,-114 735.78,-114 735.78,-84 569.78,-84"/>
<text text-anchor="start" x="577.78" y="-102" font-family="Helvetica,sans-Serif" font-size="10.00">/media/monal/main/code</text>
<text text-anchor="middle" x="652.78" y="-91" font-family="Helvetica,sans-Serif" font-size="10.00">/amrsolver1/src/rhs/Riemann.h</text>
</a>
</g>
</g>
<!-- Node1&#45;&gt;Node7 -->
<g id="edge8" class="edge">
<title>Node1&#45;&gt;Node7</title>
<path fill="none" stroke="midnightblue" d="M526.19,-152.5C554.98,-140.56 592.22,-125.11 618.85,-114.07"/>
<polygon fill="midnightblue" stroke="midnightblue" points="524.67,-149.34 516.77,-156.4 527.35,-155.8 524.67,-149.34"/>
</g>
<!-- Node8 -->
<g id="node8" class="node">
<title>Node8</title>
<g id="a_node8"><a xlink:href="bcs_8cpp.html" target="_top" xlink:title=" ">
<polygon fill="none" stroke="black" points="753.78,-84 753.78,-114 903.78,-114 903.78,-84 753.78,-84"/>
<text text-anchor="start" x="761.78" y="-102" font-family="Helvetica,sans-Serif" font-size="10.00">/media/monal/main/code</text>
<text text-anchor="middle" x="828.78" y="-91" font-family="Helvetica,sans-Serif" font-size="10.00">/amrsolver1/src/set/bcs.cpp</text>
</a>
</g>
</g>
<!-- Node1&#45;&gt;Node8 -->
<g id="edge10" class="edge">
<title>Node1&#45;&gt;Node8</title>
<path fill="none" stroke="midnightblue" d="M561.75,-156.2C613.84,-146.54 683.52,-133.19 744.78,-120 753.28,-118.17 762.24,-116.14 771.02,-114.1"/>
<polygon fill="midnightblue" stroke="midnightblue" points="561.1,-152.76 551.9,-158.02 562.37,-159.65 561.1,-152.76"/>
</g>
<!-- Node9 -->
<g id="node9" class="node">
<title>Node9</title>
<g id="a_node9"><a xlink:href="CNS__setup_8cpp.html" target="_top" xlink:title=" ">
<polygon fill="none" stroke="black" points="921.78,-78.5 921.78,-119.5 1059.78,-119.5 1059.78,-78.5 921.78,-78.5"/>
<text text-anchor="start" x="929.78" y="-107.5" font-family="Helvetica,sans-Serif" font-size="10.00">/media/monal/main/code</text>
<text text-anchor="start" x="929.78" y="-96.5" font-family="Helvetica,sans-Serif" font-size="10.00">/amrsolver1/src/set/CNS</text>
<text text-anchor="middle" x="990.78" y="-85.5" font-family="Helvetica,sans-Serif" font-size="10.00">_setup.cpp</text>
</a>
</g>
</g>
<!-- Node1&#45;&gt;Node9 -->
<g id="edge11" class="edge">
<title>Node1&#45;&gt;Node9</title>
<path fill="none" stroke="midnightblue" d="M562.12,-164.39C648.77,-156.98 791.41,-142.58 912.78,-120 915.67,-119.46 918.6,-118.88 921.57,-118.26"/>
<polygon fill="midnightblue" stroke="midnightblue" points="561.77,-160.91 552.1,-165.24 562.36,-167.88 561.77,-160.91"/>
</g>
<!-- Node10 -->
<g id="node10" class="node">
<title>Node10</title>
<g id="a_node10"><a xlink:href="CNSBld_8cpp.html" target="_top" xlink:title=" ">
<polygon fill="none" stroke="black" points="1077.78,-84 1077.78,-114 1247.78,-114 1247.78,-84 1077.78,-84"/>
<text text-anchor="start" x="1085.78" y="-102" font-family="Helvetica,sans-Serif" font-size="10.00">/media/monal/main/code</text>
<text text-anchor="middle" x="1162.78" y="-91" font-family="Helvetica,sans-Serif" font-size="10.00">/amrsolver1/src/set/CNSBld.cpp</text>
</a>
</g>
</g>
<!-- Node1&#45;&gt;Node10 -->
<g id="edge12" class="edge">
<title>Node1&#45;&gt;Node10</title>
<path fill="none" stroke="midnightblue" d="M562.41,-166.77C675.47,-160.76 888.81,-146.8 1068.78,-120 1079.67,-118.38 1091.2,-116.26 1102.3,-114.02"/>
<polygon fill="midnightblue" stroke="midnightblue" points="561.92,-163.29 552.12,-167.31 562.29,-170.28 561.92,-163.29"/>
</g>
<!-- Node4&#45;&gt;Node2 -->
<g id="edge4" class="edge">
<title>Node4&#45;&gt;Node2</title>
<path fill="none" stroke="midnightblue" d="M238.26,-78.11C219.3,-64.89 194.87,-47.86 177.92,-36.04"/>
<polygon fill="midnightblue" stroke="midnightblue" points="236.33,-81.03 246.53,-83.88 240.33,-75.29 236.33,-81.03"/>
</g>
<!-- Node4&#45;&gt;Node5 -->
<g id="edge5" class="edge">
<title>Node4&#45;&gt;Node5</title>
<path fill="none" stroke="midnightblue" d="M307.1,-79.65C332.35,-68.16 364.88,-53.36 390.65,-41.63"/>
<polygon fill="midnightblue" stroke="midnightblue" points="305.45,-76.56 297.8,-83.88 308.35,-82.93 305.45,-76.56"/>
</g>
<!-- Node6&#45;&gt;Node5 -->
<g id="edge7" class="edge">
<title>Node6&#45;&gt;Node5</title>
<path fill="none" stroke="midnightblue" d="M464.57,-69.76C458.51,-60.35 451.9,-50.1 446.36,-41.51"/>
<polygon fill="midnightblue" stroke="midnightblue" points="461.8,-71.92 470.16,-78.43 467.69,-68.13 461.8,-71.92"/>
</g>
<!-- Node7&#45;&gt;Node5 -->
<g id="edge9" class="edge">
<title>Node7&#45;&gt;Node5</title>
<path fill="none" stroke="midnightblue" d="M602.75,-80.64C569.16,-68.98 524.87,-53.61 490.06,-41.53"/>
<polygon fill="midnightblue" stroke="midnightblue" points="601.76,-84 612.36,-83.97 604.06,-77.39 601.76,-84"/>
</g>
</g>
</svg>
