<?xml version="1.0" encoding="UTF-8" standalone="no"?>
<!DOCTYPE svg PUBLIC "-//W3C//DTD SVG 1.1//EN"
 "http://www.w3.org/Graphics/SVG/1.1/DTD/svg11.dtd">
<!-- Generated by graphviz version 2.43.0 (0)
 -->
<!-- Title: /media/monal/main/code/amrsolver1/src/set/CNS_bcfill.cpp Pages: 1 -->
<svg width="585pt" height="162pt"
 viewBox="0.00 0.00 585.00 162.00" xmlns="http://www.w3.org/2000/svg" xmlns:xlink="http://www.w3.org/1999/xlink">
<g id="graph0" class="graph" transform="scale(1 1) rotate(0) translate(4 158)">
<title>/media/monal/main/code/amrsolver1/src/set/CNS_bcfill.cpp</title>
<!-- Node1 -->
<g id="node1" class="node">
<title>Node1</title>
<g id="a_node1"><a xlink:title=" ">
<polygon fill="#bfbfbf" stroke="black" points="264.5,-112.5 264.5,-153.5 402.5,-153.5 402.5,-112.5 264.5,-112.5"/>
<text text-anchor="start" x="272.5" y="-141.5" font-family="Helvetica,sans-Serif" font-size="10.00">/media/monal/main/code</text>
<text text-anchor="start" x="272.5" y="-130.5" font-family="Helvetica,sans-Serif" font-size="10.00">/amrsolver1/src/set/CNS</text>
<text text-anchor="middle" x="333.5" y="-119.5" font-family="Helvetica,sans-Serif" font-size="10.00">_bcfill.cpp</text>
</a>
</g>
</g>
<!-- Node2 -->
<g id="node2" class="node">
<title>Node2</title>
<g id="a_node2"><a xlink:title=" ">
<polygon fill="none" stroke="#bfbfbf" points="0,-56.5 0,-75.5 117,-75.5 117,-56.5 0,-56.5"/>
<text text-anchor="middle" x="58.5" y="-63.5" font-family="Helvetica,sans-Serif" font-size="10.00">AMReX_FArrayBox.H</text>
</a>
</g>
</g>
<!-- Node1&#45;&gt;Node2 -->
<g id="edge1" class="edge">
<title>Node1&#45;&gt;Node2</title>
<path fill="none" stroke="midnightblue" d="M264.46,-115.68C214.42,-103.85 148.15,-88.19 104.46,-77.86"/>
<polygon fill="midnightblue" stroke="midnightblue" points="105.22,-74.45 94.68,-75.55 103.61,-81.26 105.22,-74.45"/>
</g>
<!-- Node3 -->
<g id="node3" class="node">
<title>Node3</title>
<g id="a_node3"><a xlink:title=" ">
<polygon fill="none" stroke="#bfbfbf" points="135,-56.5 135,-75.5 250,-75.5 250,-56.5 135,-56.5"/>
<text text-anchor="middle" x="192.5" y="-63.5" font-family="Helvetica,sans-Serif" font-size="10.00">AMReX_Geometry.H</text>
</a>
</g>
</g>
<!-- Node1&#45;&gt;Node3 -->
<g id="edge2" class="edge">
<title>Node1&#45;&gt;Node3</title>
<path fill="none" stroke="midnightblue" d="M291.2,-112.5C268.33,-101.96 240.73,-89.23 220.53,-79.92"/>
<polygon fill="midnightblue" stroke="midnightblue" points="221.82,-76.66 211.27,-75.65 218.89,-83.02 221.82,-76.66"/>
</g>
<!-- Node4 -->
<g id="node4" class="node">
<title>Node4</title>
<g id="a_node4"><a xlink:title=" ">
<polygon fill="none" stroke="#bfbfbf" points="268,-56.5 268,-75.5 399,-75.5 399,-56.5 268,-56.5"/>
<text text-anchor="middle" x="333.5" y="-63.5" font-family="Helvetica,sans-Serif" font-size="10.00">AMReX_PhysBCFunct.H</text>
</a>
</g>
</g>
<!-- Node1&#45;&gt;Node4 -->
<g id="edge3" class="edge">
<title>Node1&#45;&gt;Node4</title>
<path fill="none" stroke="midnightblue" d="M333.5,-112.5C333.5,-104.07 333.5,-94.24 333.5,-85.87"/>
<polygon fill="midnightblue" stroke="midnightblue" points="337,-85.65 333.5,-75.65 330,-85.65 337,-85.65"/>
</g>
<!-- Node5 -->
<g id="node5" class="node">
<title>Node5</title>
<g id="a_node5"><a xlink:href="CNS_8h.html" target="_top" xlink:title=" ">
<polygon fill="none" stroke="black" points="417.5,-56.5 417.5,-75.5 463.5,-75.5 463.5,-56.5 417.5,-56.5"/>
<text text-anchor="middle" x="440.5" y="-63.5" font-family="Helvetica,sans-Serif" font-size="10.00">CNS.h</text>
</a>
</g>
</g>
<!-- Node1&#45;&gt;Node5 -->
<g id="edge4" class="edge">
<title>Node1&#45;&gt;Node5</title>
<path fill="none" stroke="midnightblue" d="M365.6,-112.5C382.32,-102.34 402.38,-90.16 417.53,-80.95"/>
<polygon fill="midnightblue" stroke="midnightblue" points="419.53,-83.84 426.26,-75.65 415.89,-77.85 419.53,-83.84"/>
</g>
<!-- Node8 -->
<g id="node8" class="node">
<title>Node8</title>
<g id="a_node8"><a xlink:title=" ">
<polygon fill="none" stroke="#bfbfbf" points="506,-0.5 506,-19.5 577,-19.5 577,-0.5 506,-0.5"/>
<text text-anchor="middle" x="541.5" y="-7.5" font-family="Helvetica,sans-Serif" font-size="10.00">cns_prob.H</text>
</a>
</g>
</g>
<!-- Node1&#45;&gt;Node8 -->
<g id="edge8" class="edge">
<title>Node1&#45;&gt;Node8</title>
<path fill="none" stroke="midnightblue" d="M396.12,-112.42C420.92,-103.25 449.05,-91.01 472.5,-76 493.82,-62.36 514.43,-41.64 527.49,-27.28"/>
<polygon fill="midnightblue" stroke="midnightblue" points="530.23,-29.46 534.25,-19.66 524.99,-24.82 530.23,-29.46"/>
</g>
<!-- Node6 -->
<g id="node6" class="node">
<title>Node6</title>
<g id="a_node6"><a xlink:title=" ">
<polygon fill="none" stroke="#bfbfbf" points="227.5,-0.5 227.5,-19.5 341.5,-19.5 341.5,-0.5 227.5,-0.5"/>
<text text-anchor="middle" x="284.5" y="-7.5" font-family="Helvetica,sans-Serif" font-size="10.00">AMReX_AmrLevel.H</text>
</a>
</g>
</g>
<!-- Node5&#45;&gt;Node6 -->
<g id="edge5" class="edge">
<title>Node5&#45;&gt;Node6</title>
<path fill="none" stroke="midnightblue" d="M417.48,-57.03C391.44,-48.02 348.76,-33.24 318.79,-22.87"/>
<polygon fill="midnightblue" stroke="midnightblue" points="319.75,-19.5 309.16,-19.54 317.46,-26.11 319.75,-19.5"/>
</g>
<!-- Node7 -->
<g id="node7" class="node">
<title>Node7</title>
<g id="a_node7"><a xlink:title=" ">
<polygon fill="none" stroke="#bfbfbf" points="359.5,-0.5 359.5,-19.5 487.5,-19.5 487.5,-0.5 359.5,-0.5"/>
<text text-anchor="middle" x="423.5" y="-7.5" font-family="Helvetica,sans-Serif" font-size="10.00">AMReX_FluxRegister.H</text>
</a>
</g>
</g>
<!-- Node5&#45;&gt;Node7 -->
<g id="edge6" class="edge">
<title>Node5&#45;&gt;Node7</title>
<path fill="none" stroke="midnightblue" d="M437.69,-56.08C435.42,-48.85 432.13,-38.41 429.29,-29.4"/>
<polygon fill="midnightblue" stroke="midnightblue" points="432.6,-28.24 426.25,-19.75 425.92,-30.34 432.6,-28.24"/>
</g>
<!-- Node5&#45;&gt;Node8 -->
<g id="edge7" class="edge">
<title>Node5&#45;&gt;Node8</title>
<path fill="none" stroke="midnightblue" d="M456.73,-56.32C472.85,-47.7 497.8,-34.36 516.46,-24.39"/>
<polygon fill="midnightblue" stroke="midnightblue" points="518.14,-27.46 525.31,-19.65 514.84,-21.28 518.14,-27.46"/>
</g>
</g>
</svg>
