<?xml version="1.0" encoding="UTF-8" standalone="no"?>
<!DOCTYPE svg PUBLIC "-//W3C//DTD SVG 1.1//EN"
 "http://www.w3.org/Graphics/SVG/1.1/DTD/svg11.dtd">
<!-- Generated by graphviz version 2.43.0 (0)
 -->
<!-- Title: /media/monal/main/code/amrsolver1/src/CNS.h Pages: 1 -->
<!--zoomable 195 -->
<svg id="main" version="1.1" xmlns="http://www.w3.org/2000/svg" xmlns:xlink="http://www.w3.org/1999/xlink" xml:space="preserve" onload="init(evt)">
<style type="text/css"><![CDATA[
.edge:hover path { stroke: red; }
.edge:hover polygon { stroke: red; fill: red; }
]]></style>
<script type="text/javascript"><![CDATA[
var edges = document.getElementsByTagName('g');
if (edges && edges.length) {
  for (var i=0;i<edges.length;i++) {
    if (edges[i].id.substr(0,4)=='edge') {
      edges[i].setAttribute('class','edge');
    }
  }
}
]]></script>
        <defs>
                <circle id="rim" cx="0" cy="0" r="7"/>
                <circle id="rim2" cx="0" cy="0" r="3.5"/>
                <g id="zoomPlus">
                        <use xlink:href="#rim" fill="#404040">
                                <set attributeName="fill" to="#808080" begin="zoomplus.mouseover" end="zoomplus.mouseout"/>
                        </use>
                        <path d="M-4,0h8M0,-4v8" fill="none" stroke="white" stroke-width="1.5" pointer-events="none"/>
                </g>
                <g id="zoomMin">
                        <use xlink:href="#rim" fill="#404040">
                                <set attributeName="fill" to="#808080" begin="zoomminus.mouseover" end="zoomminus.mouseout"/>
                        </use>
                        <path d="M-4,0h8" fill="none" stroke="white" stroke-width="1.5" pointer-events="none"/>
                </g>
                <g id="dirArrow">
                        <path fill="none" stroke="white" stroke-width="1.5" d="M0,-3.0v7 M-2.5,-0.5L0,-3.0L2.5,-0.5"/>
                </g>
               <g id="resetDef">
                       <use xlink:href="#rim2" fill="#404040">
                               <set attributeName="fill" to="#808080" begin="reset.mouseover" end="reset.mouseout"/>
                       </use>
               </g>
        </defs>

<script type="text/javascript">
var viewWidth = 1219;
var viewHeight = 195;
var sectionId = 'dynsection-1';
</script>
<script xlink:href="svgpan.js"/>
<svg id="graph" class="graph">
<g id="viewport">
<title>/media/monal/main/code/amrsolver1/src/CNS.h</title>
<!-- Node1 -->
<g id="node1" class="node">
<title>Node1</title>
<g id="a_node1"><a xlink:title=" ">
<polygon fill="#bfbfbf" stroke="black" points="389.26,-156.5 389.26,-186.5 527.26,-186.5 527.26,-156.5 389.26,-156.5"/>
<text text-anchor="start" x="397.26" y="-174.5" font-family="Helvetica,sans-Serif" font-size="10.00">/media/monal/main/code</text>
<text text-anchor="middle" x="458.26" y="-163.5" font-family="Helvetica,sans-Serif" font-size="10.00">/amrsolver1/src/CNS.h</text>
</a>
</g>
</g>
<!-- Node2 -->
<g id="node2" class="node">
<title>Node2</title>
<g id="a_node2"><a xlink:href="CNS_8cpp.html" target="_top" xlink:title=" ">
<polygon fill="none" stroke="black" points="28.26,-6 28.26,-36 166.26,-36 166.26,-6 28.26,-6"/>
<text text-anchor="start" x="36.26" y="-24" font-family="Helvetica,sans-Serif" font-size="10.00">/media/monal/main/code</text>
<text text-anchor="middle" x="97.26" y="-13" font-family="Helvetica,sans-Serif" font-size="10.00">/amrsolver1/src/CNS.cpp</text>
</a>
</g>
</g>
<!-- Node1&#45;&gt;Node2 -->
<g id="edge1" class="edge">
<title>Node1&#45;&gt;Node2</title>
<path fill="none" stroke="midnightblue" d="M378.83,-167.24C256.24,-161.38 32.47,-147.08 8.26,-120 -4.18,-106.08 -0.76,-94.34 8.26,-78 18.94,-58.66 39.41,-45.1 58.03,-36.16"/>
<polygon fill="midnightblue" stroke="midnightblue" points="378.76,-170.74 388.92,-167.71 379.09,-163.75 378.76,-170.74"/>
</g>
<!-- Node3 -->
<g id="node3" class="node">
<title>Node3</title>
<g id="a_node3"><a xlink:href="main_8cpp.html" target="_top" xlink:title=" ">
<polygon fill="none" stroke="black" points="17.26,-84 17.26,-114 157.26,-114 157.26,-84 17.26,-84"/>
<text text-anchor="start" x="25.26" y="-102" font-family="Helvetica,sans-Serif" font-size="10.00">/media/monal/main/code</text>
<text text-anchor="middle" x="87.26" y="-91" font-family="Helvetica,sans-Serif" font-size="10.00">/amrsolver1/src/main.cpp</text>
</a>
</g>
</g>
<!-- Node1&#45;&gt;Node3 -->
<g id="edge2" class="edge">
<title>Node1&#45;&gt;Node3</title>
<path fill="none" stroke="midnightblue" d="M379.26,-158.52C320.33,-149.17 237.97,-135.25 166.26,-120 157.82,-118.2 148.92,-116.13 140.25,-114.01"/>
<polygon fill="midnightblue" stroke="midnightblue" points="378.82,-161.99 389.24,-160.09 379.91,-155.08 378.82,-161.99"/>
</g>
<!-- Node4 -->
<g id="node4" class="node">
<title>Node4</title>
<g id="a_node4"><a xlink:href="Central_8h.html" target="_top" xlink:title=" ">
<polygon fill="none" stroke="black" points="175.26,-84 175.26,-114 333.26,-114 333.26,-84 175.26,-84"/>
<text text-anchor="start" x="183.26" y="-102" font-family="Helvetica,sans-Serif" font-size="10.00">/media/monal/main/code</text>
<text text-anchor="middle" x="254.26" y="-91" font-family="Helvetica,sans-Serif" font-size="10.00">/amrsolver1/src/rhs/Central.h</text>
</a>
</g>
</g>
<!-- Node1&#45;&gt;Node4 -->
<g id="edge3" class="edge">
<title>Node1&#45;&gt;Node4</title>
<path fill="none" stroke="midnightblue" d="M407.97,-153.12C373.18,-141.1 327.49,-125.31 294.98,-114.07"/>
<polygon fill="midnightblue" stroke="midnightblue" points="406.88,-156.44 417.47,-156.4 409.16,-149.83 406.88,-156.44"/>
</g>
<!-- Node5 -->
<g id="node5" class="node">
<title>Node5</title>
<g id="a_node5"><a xlink:href="CNS__advance_8cpp.html" target="_top" xlink:title=" ">
<polygon fill="none" stroke="black" points="340.26,-0.5 340.26,-41.5 478.26,-41.5 478.26,-0.5 340.26,-0.5"/>
<text text-anchor="start" x="348.26" y="-29.5" font-family="Helvetica,sans-Serif" font-size="10.00">/media/monal/main/code</text>
<text text-anchor="start" x="348.26" y="-18.5" font-family="Helvetica,sans-Serif" font-size="10.00">/amrsolver1/src/tim/CNS</text>
<text text-anchor="middle" x="409.26" y="-7.5" font-family="Helvetica,sans-Serif" font-size="10.00">_advance.cpp</text>
</a>
</g>
</g>
<!-- Node1&#45;&gt;Node5 -->
<g id="edge13" class="edge">
<title>Node1&#45;&gt;Node5</title>
<path fill="none" stroke="midnightblue" d="M412.9,-151.49C400.02,-143.72 387.53,-133.36 380.26,-120 366.53,-94.75 381.79,-62.21 394.85,-41.72"/>
<polygon fill="midnightblue" stroke="midnightblue" points="411.38,-154.65 421.82,-156.46 414.78,-148.54 411.38,-154.65"/>
</g>
<!-- Node6 -->
<g id="node6" class="node">
<title>Node6</title>
<g id="a_node6"><a xlink:href="High__resolution_8h.html" target="_top" xlink:title=" ">
<polygon fill="none" stroke="black" points="389.26,-78.5 389.26,-119.5 527.26,-119.5 527.26,-78.5 389.26,-78.5"/>
<text text-anchor="start" x="397.26" y="-107.5" font-family="Helvetica,sans-Serif" font-size="10.00">/media/monal/main/code</text>
<text text-anchor="start" x="397.26" y="-96.5" font-family="Helvetica,sans-Serif" font-size="10.00">/amrsolver1/src/rhs/High</text>
<text text-anchor="middle" x="458.26" y="-85.5" font-family="Helvetica,sans-Serif" font-size="10.00">_resolution.h</text>
</a>
</g>
</g>
<!-- Node1&#45;&gt;Node6 -->
<g id="edge6" class="edge">
<title>Node1&#45;&gt;Node6</title>
<path fill="none" stroke="midnightblue" d="M458.26,-145.98C458.26,-137.35 458.26,-127.76 458.26,-119.59"/>
<polygon fill="midnightblue" stroke="midnightblue" points="454.76,-146.23 458.26,-156.23 461.76,-146.23 454.76,-146.23"/>
</g>
<!-- Node7 -->
<g id="node7" class="node">
<title>Node7</title>
<g id="a_node7"><a xlink:href="Riemann_8h.html" target="_top" xlink:title=" ">
<polygon fill="none" stroke="black" points="545.26,-84 545.26,-114 711.26,-114 711.26,-84 545.26,-84"/>
<text text-anchor="start" x="553.26" y="-102" font-family="Helvetica,sans-Serif" font-size="10.00">/media/monal/main/code</text>
<text text-anchor="middle" x="628.26" y="-91" font-family="Helvetica,sans-Serif" font-size="10.00">/amrsolver1/src/rhs/Riemann.h</text>
</a>
</g>
</g>
<!-- Node1&#45;&gt;Node7 -->
<g id="edge8" class="edge">
<title>Node1&#45;&gt;Node7</title>
<path fill="none" stroke="midnightblue" d="M501.67,-152.5C530.46,-140.56 567.71,-125.11 594.33,-114.07"/>
<polygon fill="midnightblue" stroke="midnightblue" points="500.15,-149.34 492.26,-156.4 502.83,-155.8 500.15,-149.34"/>
</g>
<!-- Node8 -->
<g id="node8" class="node">
<title>Node8</title>
<g id="a_node8"><a xlink:href="CNS__bcfill_8cpp.html" target="_top" xlink:title=" ">
<polygon fill="none" stroke="black" points="729.26,-78.5 729.26,-119.5 867.26,-119.5 867.26,-78.5 729.26,-78.5"/>
<text text-anchor="start" x="737.26" y="-107.5" font-family="Helvetica,sans-Serif" font-size="10.00">/media/monal/main/code</text>
<text text-anchor="start" x="737.26" y="-96.5" font-family="Helvetica,sans-Serif" font-size="10.00">/amrsolver1/src/set/CNS</text>
<text text-anchor="middle" x="798.26" y="-85.5" font-family="Helvetica,sans-Serif" font-size="10.00">_bcfill.cpp</text>
</a>
</g>
</g>
<!-- Node1&#45;&gt;Node8 -->
<g id="edge10" class="edge">
<title>Node1&#45;&gt;Node8</title>
<path fill="none" stroke="midnightblue" d="M537.31,-156.55C589.43,-147.04 659.12,-133.72 720.26,-120 723.13,-119.36 726.05,-118.69 728.99,-117.99"/>
<polygon fill="midnightblue" stroke="midnightblue" points="536.67,-153.11 527.45,-158.35 537.92,-160 536.67,-153.11"/>
</g>
<!-- Node9 -->
<g id="node9" class="node">
<title>Node9</title>
<g id="a_node9"><a xlink:href="CNS__setup_8cpp.html" target="_top" xlink:title=" ">
<polygon fill="none" stroke="black" points="885.26,-78.5 885.26,-119.5 1023.26,-119.5 1023.26,-78.5 885.26,-78.5"/>
<text text-anchor="start" x="893.26" y="-107.5" font-family="Helvetica,sans-Serif" font-size="10.00">/media/monal/main/code</text>
<text text-anchor="start" x="893.26" y="-96.5" font-family="Helvetica,sans-Serif" font-size="10.00">/amrsolver1/src/set/CNS</text>
<text text-anchor="middle" x="954.26" y="-85.5" font-family="Helvetica,sans-Serif" font-size="10.00">_setup.cpp</text>
</a>
</g>
</g>
<!-- Node1&#45;&gt;Node9 -->
<g id="edge11" class="edge">
<title>Node1&#45;&gt;Node9</title>
<path fill="none" stroke="midnightblue" d="M537.5,-164.04C621.92,-156.43 759.25,-141.97 876.26,-120 879.15,-119.46 882.09,-118.87 885.05,-118.25"/>
<polygon fill="midnightblue" stroke="midnightblue" points="537.12,-160.56 527.47,-164.93 537.75,-167.53 537.12,-160.56"/>
</g>
<!-- Node10 -->
<g id="node10" class="node">
<title>Node10</title>
<g id="a_node10"><a xlink:href="CNSBld_8cpp.html" target="_top" xlink:title=" ">
<polygon fill="none" stroke="black" points="1041.26,-84 1041.26,-114 1211.26,-114 1211.26,-84 1041.26,-84"/>
<text text-anchor="start" x="1049.26" y="-102" font-family="Helvetica,sans-Serif" font-size="10.00">/media/monal/main/code</text>
<text text-anchor="middle" x="1126.26" y="-91" font-family="Helvetica,sans-Serif" font-size="10.00">/amrsolver1/src/set/CNSBld.cpp</text>
</a>
</g>
</g>
<!-- Node1&#45;&gt;Node10 -->
<g id="edge12" class="edge">
<title>Node1&#45;&gt;Node10</title>
<path fill="none" stroke="midnightblue" d="M537.62,-166.58C648.71,-160.4 856.7,-146.3 1032.26,-120 1043.15,-118.37 1054.68,-116.25 1065.78,-114"/>
<polygon fill="midnightblue" stroke="midnightblue" points="537.29,-163.1 527.5,-167.14 537.68,-170.09 537.29,-163.1"/>
</g>
<!-- Node4&#45;&gt;Node2 -->
<g id="edge4" class="edge">
<title>Node4&#45;&gt;Node2</title>
<path fill="none" stroke="midnightblue" d="M216.1,-79.52C188.42,-66.13 151.56,-48.28 126.27,-36.04"/>
<polygon fill="midnightblue" stroke="midnightblue" points="214.57,-82.68 225.1,-83.88 217.62,-76.38 214.57,-82.68"/>
</g>
<!-- Node4&#45;&gt;Node5 -->
<g id="edge5" class="edge">
<title>Node4&#45;&gt;Node5</title>
<path fill="none" stroke="midnightblue" d="M292.3,-79.35C315.65,-67.9 345.52,-53.25 369.23,-41.63"/>
<polygon fill="midnightblue" stroke="midnightblue" points="290.49,-76.34 283.05,-83.88 293.57,-82.62 290.49,-76.34"/>
</g>
<!-- Node6&#45;&gt;Node5 -->
<g id="edge7" class="edge">
<title>Node6&#45;&gt;Node5</title>
<path fill="none" stroke="midnightblue" d="M440.05,-69.76C433.99,-60.35 427.38,-50.1 421.84,-41.51"/>
<polygon fill="midnightblue" stroke="midnightblue" points="437.28,-71.92 445.64,-78.43 443.17,-68.13 437.28,-71.92"/>
</g>
<!-- Node7&#45;&gt;Node5 -->
<g id="edge9" class="edge">
<title>Node7&#45;&gt;Node5</title>
<path fill="none" stroke="midnightblue" d="M578.23,-80.64C544.64,-68.98 500.35,-53.61 465.54,-41.53"/>
<polygon fill="midnightblue" stroke="midnightblue" points="577.25,-84 587.84,-83.97 579.54,-77.39 577.25,-84"/>
</g>
</g>
</svg>
        <g id="navigator" transform="translate(0 0)" fill="#404254">
                <rect fill="#f2f5e9" fill-opacity="0.5" stroke="#606060" stroke-width=".5" x="0" y="0" width="60" height="60"/>
                <use id="zoomplus" xlink:href="#zoomPlus" x="17" y="9" onmousedown="handleZoom(evt,'in')"/>
                <use id="zoomminus" xlink:href="#zoomMin" x="42" y="9" onmousedown="handleZoom(evt,'out')"/>
                <use id="reset" xlink:href="#resetDef" x="30" y="36" onmousedown="handleReset()"/>
                <g id="arrowUp" xlink:href="#dirArrow" transform="translate(30 24)" onmousedown="handlePan(0,-1)">
                  <use xlink:href="#rim" fill="#404040">
                        <set attributeName="fill" to="#808080" begin="arrowUp.mouseover" end="arrowUp.mouseout"/>
                  </use>
                  <path fill="none" stroke="white" stroke-width="1.5" d="M0,-3.0v7 M-2.5,-0.5L0,-3.0L2.5,-0.5"/>
                </g>
                <g id="arrowRight" xlink:href="#dirArrow" transform="rotate(90) translate(36 -43)" onmousedown="handlePan(1,0)">
                  <use xlink:href="#rim" fill="#404040">
                        <set attributeName="fill" to="#808080" begin="arrowRight.mouseover" end="arrowRight.mouseout"/>
                  </use>
                  <path fill="none" stroke="white" stroke-width="1.5" d="M0,-3.0v7 M-2.5,-0.5L0,-3.0L2.5,-0.5"/>
                </g>
                <g id="arrowDown" xlink:href="#dirArrow" transform="rotate(180) translate(-30 -48)" onmousedown="handlePan(0,1)">
                  <use xlink:href="#rim" fill="#404040">
                        <set attributeName="fill" to="#808080" begin="arrowDown.mouseover" end="arrowDown.mouseout"/>
                  </use>
                  <path fill="none" stroke="white" stroke-width="1.5" d="M0,-3.0v7 M-2.5,-0.5L0,-3.0L2.5,-0.5"/>
                </g>
                <g id="arrowLeft" xlink:href="#dirArrow" transform="rotate(270) translate(-36 17)" onmousedown="handlePan(-1,0)">
                  <use xlink:href="#rim" fill="#404040">
                        <set attributeName="fill" to="#808080" begin="arrowLeft.mouseover" end="arrowLeft.mouseout"/>
                  </use>
                  <path fill="none" stroke="white" stroke-width="1.5" d="M0,-3.0v7 M-2.5,-0.5L0,-3.0L2.5,-0.5"/>
                </g>
        </g>
        <svg viewBox="0 0 15 15" width="100%" height="30px" preserveAspectRatio="xMaxYMin meet">
         <g id="arrow_out" transform="scale(0.3 0.3)">
          <a xlink:href="CNS_8h__dep__incl_org.svg" target="_base">
           <rect id="button" ry="5" rx="5" y="6" x="6" height="38" width="38"
                fill="#f2f5e9" fill-opacity="0.5" stroke="#606060" stroke-width="1.0"/>
           <path id="arrow"
             d="M 11.500037,31.436501 C 11.940474,20.09759 22.043105,11.32322 32.158766,21.979434 L 37.068811,17.246167 C 37.068811,17.246167 37.088388,32 37.088388,32 L 22.160133,31.978069 C 22.160133,31.978069 26.997745,27.140456 26.997745,27.140456 C 18.528582,18.264221 13.291696,25.230495 11.500037,31.436501 z"
             style="fill:#404040;"/>
          </a>
         </g>
        </svg>
</svg>
