<?xml version="1.0" encoding="UTF-8" standalone="no"?>
<!DOCTYPE svg PUBLIC "-//W3C//DTD SVG 1.1//EN"
 "http://www.w3.org/Graphics/SVG/1.1/DTD/svg11.dtd">
<!-- Generated by graphviz version 2.43.0 (0)
 -->
<!-- Title: /media/monal/main/code/amrsolver1/src/tim/CNS_advance.cpp Pages: 1 -->
<svg width="462pt" height="218pt"
 viewBox="0.00 0.00 461.61 218.00" xmlns="http://www.w3.org/2000/svg" xmlns:xlink="http://www.w3.org/1999/xlink">
<g id="graph0" class="graph" transform="scale(1 1) rotate(0) translate(4 214)">
<title>/media/monal/main/code/amrsolver1/src/tim/CNS_advance.cpp</title>
<!-- Node1 -->
<g id="node1" class="node">
<title>Node1</title>
<g id="a_node1"><a xlink:title=" ">
<polygon fill="#bfbfbf" stroke="black" points="101.7,-168.5 101.7,-209.5 239.7,-209.5 239.7,-168.5 101.7,-168.5"/>
<text text-anchor="start" x="109.7" y="-197.5" font-family="Helvetica,sans-Serif" font-size="10.00">/media/monal/main/code</text>
<text text-anchor="start" x="109.7" y="-186.5" font-family="Helvetica,sans-Serif" font-size="10.00">/amrsolver1/src/tim/CNS</text>
<text text-anchor="middle" x="170.7" y="-175.5" font-family="Helvetica,sans-Serif" font-size="10.00">_advance.cpp</text>
</a>
</g>
</g>
<!-- Node2 -->
<g id="node2" class="node">
<title>Node2</title>
<g id="a_node2"><a xlink:href="CNS_8h.html" target="_top" xlink:title=" ">
<polygon fill="none" stroke="black" points="140.7,-56.5 140.7,-75.5 186.7,-75.5 186.7,-56.5 140.7,-56.5"/>
<text text-anchor="middle" x="163.7" y="-63.5" font-family="Helvetica,sans-Serif" font-size="10.00">CNS.h</text>
</a>
</g>
</g>
<!-- Node1&#45;&gt;Node2 -->
<g id="edge1" class="edge">
<title>Node1&#45;&gt;Node2</title>
<path fill="none" stroke="midnightblue" d="M150.05,-168.49C141.02,-158.54 131.42,-145.67 126.7,-132 123.79,-123.6 123.7,-120.37 126.7,-112 130.64,-101 138.55,-90.77 146.06,-82.85"/>
<polygon fill="midnightblue" stroke="midnightblue" points="148.59,-85.27 153.26,-75.76 143.68,-80.28 148.59,-85.27"/>
</g>
<!-- Node4 -->
<g id="node4" class="node">
<title>Node4</title>
<g id="a_node4"><a xlink:title=" ">
<polygon fill="none" stroke="#bfbfbf" points="318.7,-0.5 318.7,-19.5 446.7,-19.5 446.7,-0.5 318.7,-0.5"/>
<text text-anchor="middle" x="382.7" y="-7.5" font-family="Helvetica,sans-Serif" font-size="10.00">AMReX_FluxRegister.H</text>
</a>
</g>
</g>
<!-- Node1&#45;&gt;Node4 -->
<g id="edge5" class="edge">
<title>Node1&#45;&gt;Node4</title>
<path fill="none" stroke="midnightblue" d="M240.02,-183.59C312.54,-177.37 419.33,-163.08 444.7,-132 472.16,-98.36 428.13,-50.58 401.18,-26.36"/>
<polygon fill="midnightblue" stroke="midnightblue" points="403.3,-23.57 393.46,-19.64 398.71,-28.84 403.3,-23.57"/>
</g>
<!-- Node5 -->
<g id="node5" class="node">
<title>Node5</title>
<g id="a_node5"><a xlink:title=" ">
<polygon fill="none" stroke="#bfbfbf" points="13.2,-0.5 13.2,-19.5 84.2,-19.5 84.2,-0.5 13.2,-0.5"/>
<text text-anchor="middle" x="48.7" y="-7.5" font-family="Helvetica,sans-Serif" font-size="10.00">cns_prob.H</text>
</a>
</g>
</g>
<!-- Node1&#45;&gt;Node5 -->
<g id="edge9" class="edge">
<title>Node1&#45;&gt;Node5</title>
<path fill="none" stroke="midnightblue" d="M101.32,-182.34C67.54,-175.67 29.76,-161.57 8.7,-132 -14.51,-99.42 15.01,-52.51 34.36,-27.76"/>
<polygon fill="midnightblue" stroke="midnightblue" points="37.31,-29.67 40.91,-19.71 31.88,-25.25 37.31,-29.67"/>
</g>
<!-- Node6 -->
<g id="node6" class="node">
<title>Node6</title>
<g id="a_node6"><a xlink:href="CNS__hydro__K_8h.html" target="_top" xlink:title=" ">
<polygon fill="none" stroke="black" points="344.2,-112.5 344.2,-131.5 435.2,-131.5 435.2,-112.5 344.2,-112.5"/>
<text text-anchor="middle" x="389.7" y="-119.5" font-family="Helvetica,sans-Serif" font-size="10.00">CNS_hydro_K.h</text>
</a>
</g>
</g>
<!-- Node1&#45;&gt;Node6 -->
<g id="edge6" class="edge">
<title>Node1&#45;&gt;Node6</title>
<path fill="none" stroke="midnightblue" d="M236.4,-168.5C273.81,-157.4 319.37,-143.87 351.06,-134.47"/>
<polygon fill="midnightblue" stroke="midnightblue" points="352.24,-137.77 360.83,-131.57 350.25,-131.06 352.24,-137.77"/>
</g>
<!-- Node9 -->
<g id="node9" class="node">
<title>Node9</title>
<g id="a_node9"><a xlink:href="Central_8h.html" target="_top" xlink:title=" ">
<polygon fill="none" stroke="black" points="18.2,-112.5 18.2,-131.5 79.2,-131.5 79.2,-112.5 18.2,-112.5"/>
<text text-anchor="middle" x="48.7" y="-119.5" font-family="Helvetica,sans-Serif" font-size="10.00">Central.h</text>
</a>
</g>
</g>
<!-- Node1&#45;&gt;Node9 -->
<g id="edge10" class="edge">
<title>Node1&#45;&gt;Node9</title>
<path fill="none" stroke="midnightblue" d="M134.09,-168.5C114.67,-158.15 91.29,-145.69 73.91,-136.43"/>
<polygon fill="midnightblue" stroke="midnightblue" points="75.41,-133.27 64.94,-131.65 72.12,-139.44 75.41,-133.27"/>
</g>
<!-- Node10 -->
<g id="node10" class="node">
<title>Node10</title>
<g id="a_node10"><a xlink:href="Riemann_8h.html" target="_top" xlink:title=" ">
<polygon fill="none" stroke="black" points="136.2,-112.5 136.2,-131.5 205.2,-131.5 205.2,-112.5 136.2,-112.5"/>
<text text-anchor="middle" x="170.7" y="-119.5" font-family="Helvetica,sans-Serif" font-size="10.00">Riemann.h</text>
</a>
</g>
</g>
<!-- Node1&#45;&gt;Node10 -->
<g id="edge14" class="edge">
<title>Node1&#45;&gt;Node10</title>
<path fill="none" stroke="midnightblue" d="M170.7,-168.5C170.7,-160.07 170.7,-150.24 170.7,-141.87"/>
<polygon fill="midnightblue" stroke="midnightblue" points="174.2,-141.65 170.7,-131.65 167.2,-141.65 174.2,-141.65"/>
</g>
<!-- Node11 -->
<g id="node11" class="node">
<title>Node11</title>
<g id="a_node11"><a xlink:href="High__resolution_8h.html" target="_top" xlink:title=" ">
<polygon fill="none" stroke="black" points="223.7,-112.5 223.7,-131.5 325.7,-131.5 325.7,-112.5 223.7,-112.5"/>
<text text-anchor="middle" x="274.7" y="-119.5" font-family="Helvetica,sans-Serif" font-size="10.00">High_resolution.h</text>
</a>
</g>
</g>
<!-- Node1&#45;&gt;Node11 -->
<g id="edge17" class="edge">
<title>Node1&#45;&gt;Node11</title>
<path fill="none" stroke="midnightblue" d="M201.9,-168.5C218,-158.44 237.28,-146.38 251.95,-137.21"/>
<polygon fill="midnightblue" stroke="midnightblue" points="254.23,-139.92 260.85,-131.65 250.52,-133.98 254.23,-139.92"/>
</g>
<!-- Node3 -->
<g id="node3" class="node">
<title>Node3</title>
<g id="a_node3"><a xlink:title=" ">
<polygon fill="none" stroke="#bfbfbf" points="106.7,-0.5 106.7,-19.5 220.7,-19.5 220.7,-0.5 106.7,-0.5"/>
<text text-anchor="middle" x="163.7" y="-7.5" font-family="Helvetica,sans-Serif" font-size="10.00">AMReX_AmrLevel.H</text>
</a>
</g>
</g>
<!-- Node2&#45;&gt;Node3 -->
<g id="edge2" class="edge">
<title>Node2&#45;&gt;Node3</title>
<path fill="none" stroke="midnightblue" d="M163.7,-56.08C163.7,-49.01 163.7,-38.86 163.7,-29.99"/>
<polygon fill="midnightblue" stroke="midnightblue" points="167.2,-29.75 163.7,-19.75 160.2,-29.75 167.2,-29.75"/>
</g>
<!-- Node2&#45;&gt;Node4 -->
<g id="edge3" class="edge">
<title>Node2&#45;&gt;Node4</title>
<path fill="none" stroke="midnightblue" d="M186.72,-59.32C222.56,-50.49 292.32,-33.28 338.21,-21.97"/>
<polygon fill="midnightblue" stroke="midnightblue" points="339.31,-25.3 348.18,-19.51 337.64,-18.51 339.31,-25.3"/>
</g>
<!-- Node2&#45;&gt;Node5 -->
<g id="edge4" class="edge">
<title>Node2&#45;&gt;Node5</title>
<path fill="none" stroke="midnightblue" d="M145.47,-56.44C126.8,-47.68 97.54,-33.94 76.08,-23.86"/>
<polygon fill="midnightblue" stroke="midnightblue" points="77.37,-20.6 66.83,-19.52 74.4,-26.93 77.37,-20.6"/>
</g>
<!-- Node7 -->
<g id="node7" class="node">
<title>Node7</title>
<g id="a_node7"><a xlink:title=" ">
<polygon fill="none" stroke="#bfbfbf" points="209.2,-56.5 209.2,-75.5 326.2,-75.5 326.2,-56.5 209.2,-56.5"/>
<text text-anchor="middle" x="267.7" y="-63.5" font-family="Helvetica,sans-Serif" font-size="10.00">AMReX_FArrayBox.H</text>
</a>
</g>
</g>
<!-- Node6&#45;&gt;Node7 -->
<g id="edge7" class="edge">
<title>Node6&#45;&gt;Node7</title>
<path fill="none" stroke="midnightblue" d="M370.36,-112.44C350.38,-103.6 318.95,-89.69 296.13,-79.59"/>
<polygon fill="midnightblue" stroke="midnightblue" points="297.5,-76.36 286.94,-75.52 294.66,-82.76 297.5,-76.36"/>
</g>
<!-- Node8 -->
<g id="node8" class="node">
<title>Node8</title>
<g id="a_node8"><a xlink:title=" ">
<polygon fill="none" stroke="#bfbfbf" points="366.2,-56.5 366.2,-75.5 413.2,-75.5 413.2,-56.5 366.2,-56.5"/>
<text text-anchor="middle" x="389.7" y="-63.5" font-family="Helvetica,sans-Serif" font-size="10.00">cmath</text>
</a>
</g>
</g>
<!-- Node6&#45;&gt;Node8 -->
<g id="edge8" class="edge">
<title>Node6&#45;&gt;Node8</title>
<path fill="none" stroke="midnightblue" d="M389.7,-112.08C389.7,-105.01 389.7,-94.86 389.7,-85.99"/>
<polygon fill="midnightblue" stroke="midnightblue" points="393.2,-85.75 389.7,-75.75 386.2,-85.75 393.2,-85.75"/>
</g>
<!-- Node9&#45;&gt;Node2 -->
<g id="edge11" class="edge">
<title>Node9&#45;&gt;Node2</title>
<path fill="none" stroke="midnightblue" d="M66.92,-112.44C85.59,-103.68 114.85,-89.94 136.31,-79.86"/>
<polygon fill="midnightblue" stroke="midnightblue" points="138,-82.93 145.56,-75.52 135.02,-76.6 138,-82.93"/>
</g>
<!-- Node9&#45;&gt;Node5 -->
<g id="edge13" class="edge">
<title>Node9&#45;&gt;Node5</title>
<path fill="none" stroke="midnightblue" d="M48.7,-112.37C48.7,-94.62 48.7,-53.67 48.7,-29.6"/>
<polygon fill="midnightblue" stroke="midnightblue" points="52.2,-29.59 48.7,-19.59 45.2,-29.59 52.2,-29.59"/>
</g>
<!-- Node9&#45;&gt;Node7 -->
<g id="edge12" class="edge">
<title>Node9&#45;&gt;Node7</title>
<path fill="none" stroke="midnightblue" d="M79.61,-113.38C117.05,-104.15 180.4,-88.53 223.11,-77.99"/>
<polygon fill="midnightblue" stroke="midnightblue" points="224.09,-81.36 232.97,-75.56 222.42,-74.56 224.09,-81.36"/>
</g>
<!-- Node10&#45;&gt;Node2 -->
<g id="edge15" class="edge">
<title>Node10&#45;&gt;Node2</title>
<path fill="none" stroke="midnightblue" d="M169.54,-112.08C168.61,-104.93 167.28,-94.64 166.12,-85.69"/>
<polygon fill="midnightblue" stroke="midnightblue" points="169.59,-85.22 164.83,-75.75 162.65,-86.12 169.59,-85.22"/>
</g>
<!-- Node10&#45;&gt;Node7 -->
<g id="edge16" class="edge">
<title>Node10&#45;&gt;Node7</title>
<path fill="none" stroke="midnightblue" d="M186.28,-112.32C201.7,-103.74 225.51,-90.49 243.41,-80.52"/>
<polygon fill="midnightblue" stroke="midnightblue" points="245.12,-83.58 252.15,-75.65 241.71,-77.46 245.12,-83.58"/>
</g>
<!-- Node11&#45;&gt;Node2 -->
<g id="edge18" class="edge">
<title>Node11&#45;&gt;Node2</title>
<path fill="none" stroke="midnightblue" d="M256.86,-112.32C238.98,-103.62 211.22,-90.12 190.65,-80.11"/>
<polygon fill="midnightblue" stroke="midnightblue" points="192.01,-76.88 181.49,-75.65 188.95,-83.18 192.01,-76.88"/>
</g>
<!-- Node11&#45;&gt;Node7 -->
<g id="edge19" class="edge">
<title>Node11&#45;&gt;Node7</title>
<path fill="none" stroke="midnightblue" d="M273.54,-112.08C272.61,-104.93 271.28,-94.64 270.12,-85.69"/>
<polygon fill="midnightblue" stroke="midnightblue" points="273.59,-85.22 268.83,-75.75 266.65,-86.12 273.59,-85.22"/>
</g>
</g>
</svg>
