<?xml version="1.0" encoding="UTF-8" standalone="no"?>
<!DOCTYPE svg PUBLIC "-//W3C//DTD SVG 1.1//EN"
 "http://www.w3.org/Graphics/SVG/1.1/DTD/svg11.dtd">
<!-- Generated by graphviz version 2.43.0 (0)
 -->
<!-- Title: /media/monal/main/code/amrsolver1/src Pages: 1 -->
<svg width="310pt" height="148pt"
 viewBox="0.00 0.00 310.00 148.00" xmlns="http://www.w3.org/2000/svg" xmlns:xlink="http://www.w3.org/1999/xlink">
<g id="graph0" class="graph" transform="scale(1 1) rotate(0) translate(4 144)">
<title>/media/monal/main/code/amrsolver1/src</title>
<g id="clust1" class="cluster">
<title>clusterdir_68267d1309a1af8e8297ef4c3efbcdba</title>
<g id="a_clust1"><a xlink:href="dir_68267d1309a1af8e8297ef4c3efbcdba.html" target="_top">
<polygon fill="#eeeeff" stroke="black" points="8,-8 8,-132 294,-132 294,-8 8,-8"/>
</a>
</g>
</g>
<!-- dir_68267d1309a1af8e8297ef4c3efbcdba -->
<g id="node1" class="node">
<title>dir_68267d1309a1af8e8297ef4c3efbcdba</title>
<text text-anchor="middle" x="259" y="-103.5" font-family="Helvetica,sans-Serif" font-size="10.00">src</text>
</g>
<!-- dir_0f19779ee50e1d1b2fc21665587fe5b3 -->
<g id="node4" class="node">
<title>dir_0f19779ee50e1d1b2fc21665587fe5b3</title>
<g id="a_node4"><a xlink:href="dir_0f19779ee50e1d1b2fc21665587fe5b3.html" target="_top" xlink:title="rhs">
<polygon fill="white" stroke="black" points="214,-52 160,-52 160,-16 214,-16 214,-52"/>
<text text-anchor="middle" x="187" y="-31.5" font-family="Helvetica,sans-Serif" font-size="10.00">rhs</text>
</a>
</g>
</g>
<!-- dir_68267d1309a1af8e8297ef4c3efbcdba&#45;&gt;dir_0f19779ee50e1d1b2fc21665587fe5b3 -->
<g id="edge1" class="edge">
<title>dir_68267d1309a1af8e8297ef4c3efbcdba&#45;&gt;dir_0f19779ee50e1d1b2fc21665587fe5b3</title>
<path fill="none" stroke="black" d="M241.2,-87.7C232.4,-79.14 221.62,-68.66 212,-59.3"/>
<polygon fill="black" stroke="black" points="214.2,-56.57 204.59,-52.1 209.32,-61.58 214.2,-56.57"/>
<g id="a_edge1&#45;headlabel"><a xlink:href="dir_000000_000003.html" target="_top" xlink:title="5">
<text text-anchor="middle" x="218.76" y="-54.54" font-family="Helvetica,sans-Serif" font-size="10.00">5</text>
</a>
</g>
</g>
<!-- dir_ba33de57bbd5cad1922252382c4517ba -->
<g id="node2" class="node">
<title>dir_ba33de57bbd5cad1922252382c4517ba</title>
<g id="a_node2"><a xlink:href="dir_ba33de57bbd5cad1922252382c4517ba.html" target="_top" xlink:title="cls">
<polygon fill="white" stroke="black" points="70,-52 16,-52 16,-16 70,-16 70,-52"/>
<text text-anchor="middle" x="43" y="-31.5" font-family="Helvetica,sans-Serif" font-size="10.00">cls</text>
</a>
</g>
</g>
<!-- dir_0526fc02dd5ee4981cd2ea727eb751a0 -->
<g id="node3" class="node">
<title>dir_0526fc02dd5ee4981cd2ea727eb751a0</title>
<g id="a_node3"><a xlink:href="dir_0526fc02dd5ee4981cd2ea727eb751a0.html" target="_top" xlink:title="ibm">
<polygon fill="white" stroke="black" points="214,-124 160,-124 160,-88 214,-88 214,-124"/>
<text text-anchor="middle" x="187" y="-103.5" font-family="Helvetica,sans-Serif" font-size="10.00">ibm</text>
</a>
</g>
</g>
<!-- dir_b9ded748b607eb3e6a7a9afdc4f54231 -->
<g id="node5" class="node">
<title>dir_b9ded748b607eb3e6a7a9afdc4f54231</title>
<g id="a_node5"><a xlink:href="dir_b9ded748b607eb3e6a7a9afdc4f54231.html" target="_top" xlink:title="set">
<polygon fill="white" stroke="black" points="70,-124 16,-124 16,-88 70,-88 70,-124"/>
<text text-anchor="middle" x="43" y="-103.5" font-family="Helvetica,sans-Serif" font-size="10.00">set</text>
</a>
</g>
</g>
<!-- dir_b9ded748b607eb3e6a7a9afdc4f54231&#45;&gt;dir_ba33de57bbd5cad1922252382c4517ba -->
<g id="edge3" class="edge">
<title>dir_b9ded748b607eb3e6a7a9afdc4f54231&#45;&gt;dir_ba33de57bbd5cad1922252382c4517ba</title>
<path fill="none" stroke="black" d="M43,-87.7C43,-79.98 43,-70.71 43,-62.11"/>
<polygon fill="black" stroke="black" points="46.5,-62.1 43,-52.1 39.5,-62.1 46.5,-62.1"/>
<g id="a_edge3&#45;headlabel"><a xlink:href="dir_000004_000001.html" target="_top" xlink:title="1">
<text text-anchor="middle" x="49.34" y="-63.2" font-family="Helvetica,sans-Serif" font-size="10.00">1</text>
</a>
</g>
</g>
<!-- dir_ea4b5230bcd601a1e27841dc0dfe6aa7 -->
<g id="node6" class="node">
<title>dir_ea4b5230bcd601a1e27841dc0dfe6aa7</title>
<g id="a_node6"><a xlink:href="dir_ea4b5230bcd601a1e27841dc0dfe6aa7.html" target="_top" xlink:title="tim">
<polygon fill="white" stroke="black" points="142,-124 88,-124 88,-88 142,-88 142,-124"/>
<text text-anchor="middle" x="115" y="-103.5" font-family="Helvetica,sans-Serif" font-size="10.00">tim</text>
</a>
</g>
</g>
<!-- dir_ea4b5230bcd601a1e27841dc0dfe6aa7&#45;&gt;dir_0f19779ee50e1d1b2fc21665587fe5b3 -->
<g id="edge2" class="edge">
<title>dir_ea4b5230bcd601a1e27841dc0dfe6aa7&#45;&gt;dir_0f19779ee50e1d1b2fc21665587fe5b3</title>
<path fill="none" stroke="black" d="M132.8,-87.7C141.6,-79.14 152.38,-68.66 162,-59.3"/>
<polygon fill="black" stroke="black" points="164.68,-61.58 169.41,-52.1 159.8,-56.57 164.68,-61.58"/>
<g id="a_edge2&#45;headlabel"><a xlink:href="dir_000005_000003.html" target="_top" xlink:title="4">
<text text-anchor="middle" x="164.08" y="-63.63" font-family="Helvetica,sans-Serif" font-size="10.00">4</text>
</a>
</g>
</g>
</g>
</svg>
