<?xml version="1.0" encoding="UTF-8" standalone="no"?>
<!DOCTYPE svg PUBLIC "-//W3C//DTD SVG 1.1//EN"
 "http://www.w3.org/Graphics/SVG/1.1/DTD/svg11.dtd">
<!-- Generated by graphviz version 2.43.0 (0)
 -->
<!-- Title: /media/monal/main/code/amrsolver1/src/rhs/High_resolution.h Pages: 1 -->
<svg width="363pt" height="162pt"
 viewBox="0.00 0.00 362.50 162.00" xmlns="http://www.w3.org/2000/svg" xmlns:xlink="http://www.w3.org/1999/xlink">
<g id="graph0" class="graph" transform="scale(1 1) rotate(0) translate(4 158)">
<title>/media/monal/main/code/amrsolver1/src/rhs/High_resolution.h</title>
<!-- Node1 -->
<g id="node1" class="node">
<title>Node1</title>
<g id="a_node1"><a xlink:title=" ">
<polygon fill="#bfbfbf" stroke="black" points="177,-112.5 177,-153.5 315,-153.5 315,-112.5 177,-112.5"/>
<text text-anchor="start" x="185" y="-141.5" font-family="Helvetica,sans-Serif" font-size="10.00">/media/monal/main/code</text>
<text text-anchor="start" x="185" y="-130.5" font-family="Helvetica,sans-Serif" font-size="10.00">/amrsolver1/src/rhs/High</text>
<text text-anchor="middle" x="246" y="-119.5" font-family="Helvetica,sans-Serif" font-size="10.00">_resolution.h</text>
</a>
</g>
</g>
<!-- Node2 -->
<g id="node2" class="node">
<title>Node2</title>
<g id="a_node2"><a xlink:href="CNS_8h.html" target="_top" xlink:title=" ">
<polygon fill="none" stroke="black" points="173,-56.5 173,-75.5 219,-75.5 219,-56.5 173,-56.5"/>
<text text-anchor="middle" x="196" y="-63.5" font-family="Helvetica,sans-Serif" font-size="10.00">CNS.h</text>
</a>
</g>
</g>
<!-- Node1&#45;&gt;Node2 -->
<g id="edge1" class="edge">
<title>Node1&#45;&gt;Node2</title>
<path fill="none" stroke="midnightblue" d="M231,-112.5C223.92,-103.3 215.57,-92.44 208.79,-83.63"/>
<polygon fill="midnightblue" stroke="midnightblue" points="211.53,-81.44 202.66,-75.65 205.98,-85.71 211.53,-81.44"/>
</g>
<!-- Node6 -->
<g id="node6" class="node">
<title>Node6</title>
<g id="a_node6"><a xlink:title=" ">
<polygon fill="none" stroke="#bfbfbf" points="237.5,-56.5 237.5,-75.5 354.5,-75.5 354.5,-56.5 237.5,-56.5"/>
<text text-anchor="middle" x="296" y="-63.5" font-family="Helvetica,sans-Serif" font-size="10.00">AMReX_FArrayBox.H</text>
</a>
</g>
</g>
<!-- Node1&#45;&gt;Node6 -->
<g id="edge5" class="edge">
<title>Node1&#45;&gt;Node6</title>
<path fill="none" stroke="midnightblue" d="M261,-112.5C268.08,-103.3 276.43,-92.44 283.21,-83.63"/>
<polygon fill="midnightblue" stroke="midnightblue" points="286.02,-85.71 289.34,-75.65 280.47,-81.44 286.02,-85.71"/>
</g>
<!-- Node3 -->
<g id="node3" class="node">
<title>Node3</title>
<g id="a_node3"><a xlink:title=" ">
<polygon fill="none" stroke="#bfbfbf" points="0,-0.5 0,-19.5 114,-19.5 114,-0.5 0,-0.5"/>
<text text-anchor="middle" x="57" y="-7.5" font-family="Helvetica,sans-Serif" font-size="10.00">AMReX_AmrLevel.H</text>
</a>
</g>
</g>
<!-- Node2&#45;&gt;Node3 -->
<g id="edge2" class="edge">
<title>Node2&#45;&gt;Node3</title>
<path fill="none" stroke="midnightblue" d="M173.98,-56.44C150.9,-47.48 114.44,-33.31 88.36,-23.18"/>
<polygon fill="midnightblue" stroke="midnightblue" points="89.51,-19.88 78.92,-19.52 86.98,-26.4 89.51,-19.88"/>
</g>
<!-- Node4 -->
<g id="node4" class="node">
<title>Node4</title>
<g id="a_node4"><a xlink:title=" ">
<polygon fill="none" stroke="#bfbfbf" points="132,-0.5 132,-19.5 260,-19.5 260,-0.5 132,-0.5"/>
<text text-anchor="middle" x="196" y="-7.5" font-family="Helvetica,sans-Serif" font-size="10.00">AMReX_FluxRegister.H</text>
</a>
</g>
</g>
<!-- Node2&#45;&gt;Node4 -->
<g id="edge3" class="edge">
<title>Node2&#45;&gt;Node4</title>
<path fill="none" stroke="midnightblue" d="M196,-56.08C196,-49.01 196,-38.86 196,-29.99"/>
<polygon fill="midnightblue" stroke="midnightblue" points="199.5,-29.75 196,-19.75 192.5,-29.75 199.5,-29.75"/>
</g>
<!-- Node5 -->
<g id="node5" class="node">
<title>Node5</title>
<g id="a_node5"><a xlink:title=" ">
<polygon fill="none" stroke="#bfbfbf" points="278.5,-0.5 278.5,-19.5 325.5,-19.5 325.5,-0.5 278.5,-0.5"/>
<text text-anchor="middle" x="302" y="-7.5" font-family="Helvetica,sans-Serif" font-size="10.00">prob.h</text>
</a>
</g>
</g>
<!-- Node2&#45;&gt;Node5 -->
<g id="edge4" class="edge">
<title>Node2&#45;&gt;Node5</title>
<path fill="none" stroke="midnightblue" d="M213.03,-56.32C230.03,-47.66 256.38,-34.24 275.99,-24.25"/>
<polygon fill="midnightblue" stroke="midnightblue" points="277.69,-27.31 285.01,-19.65 274.51,-21.08 277.69,-27.31"/>
</g>
</g>
</svg>
