<?xml version="1.0" encoding="UTF-8" standalone="no"?>
<!DOCTYPE svg PUBLIC "-//W3C//DTD SVG 1.1//EN"
 "http://www.w3.org/Graphics/SVG/1.1/DTD/svg11.dtd">
<!-- Generated by graphviz version 2.43.0 (0)
 -->
<!-- Title: /media/monal/main/code/amrsolver1/src/ibm/IBM.h Pages: 1 -->
<svg width="2371pt" height="117pt"
 viewBox="0.00 0.00 2371.00 117.00" xmlns="http://www.w3.org/2000/svg" xmlns:xlink="http://www.w3.org/1999/xlink">
<g id="graph0" class="graph" transform="scale(1 1) rotate(0) translate(4 113)">
<title>/media/monal/main/code/amrsolver1/src/ibm/IBM.h</title>
<!-- Node1 -->
<g id="node1" class="node">
<title>Node1</title>
<g id="a_node1"><a xlink:title=" ">
<polygon fill="#bfbfbf" stroke="black" points="1004,-78.5 1004,-108.5 1149,-108.5 1149,-78.5 1004,-78.5"/>
<text text-anchor="start" x="1012" y="-96.5" font-family="Helvetica,sans-Serif" font-size="10.00">/media/monal/main/code</text>
<text text-anchor="middle" x="1076.5" y="-85.5" font-family="Helvetica,sans-Serif" font-size="10.00">/amrsolver1/src/ibm/IBM.h</text>
</a>
</g>
</g>
<!-- Node2 -->
<g id="node2" class="node">
<title>Node2</title>
<g id="a_node2"><a xlink:title=" ">
<polygon fill="none" stroke="#bfbfbf" points="0,-11.5 0,-30.5 87,-30.5 87,-11.5 0,-11.5"/>
<text text-anchor="middle" x="43.5" y="-18.5" font-family="Helvetica,sans-Serif" font-size="10.00">AMReX_Amr.H</text>
</a>
</g>
</g>
<!-- Node1&#45;&gt;Node2 -->
<g id="edge1" class="edge">
<title>Node1&#45;&gt;Node2</title>
<path fill="none" stroke="midnightblue" d="M1004,-91.66C807.84,-88.93 269.82,-78.25 96.5,-42 88.24,-40.27 79.57,-37.46 71.68,-34.48"/>
<polygon fill="midnightblue" stroke="midnightblue" points="72.79,-31.15 62.21,-30.68 70.19,-37.65 72.79,-31.15"/>
</g>
<!-- Node3 -->
<g id="node3" class="node">
<title>Node3</title>
<g id="a_node3"><a xlink:title=" ">
<polygon fill="none" stroke="#bfbfbf" points="105.5,-11.5 105.5,-30.5 219.5,-30.5 219.5,-11.5 105.5,-11.5"/>
<text text-anchor="middle" x="162.5" y="-18.5" font-family="Helvetica,sans-Serif" font-size="10.00">AMReX_AmrLevel.H</text>
</a>
</g>
</g>
<!-- Node1&#45;&gt;Node3 -->
<g id="edge2" class="edge">
<title>Node1&#45;&gt;Node3</title>
<path fill="none" stroke="midnightblue" d="M1003.75,-90.36C826.6,-84.8 376.5,-68.45 228.5,-42 217.6,-40.05 205.97,-36.9 195.55,-33.67"/>
<polygon fill="midnightblue" stroke="midnightblue" points="196.59,-30.33 186,-30.59 194.44,-36.99 196.59,-30.33"/>
</g>
<!-- Node4 -->
<g id="node4" class="node">
<title>Node4</title>
<g id="a_node4"><a xlink:title=" ">
<polygon fill="none" stroke="#bfbfbf" points="238,-11.5 238,-30.5 347,-30.5 347,-11.5 238,-11.5"/>
<text text-anchor="middle" x="292.5" y="-18.5" font-family="Helvetica,sans-Serif" font-size="10.00">AMReX_FabArray.H</text>
</a>
</g>
</g>
<!-- Node1&#45;&gt;Node4 -->
<g id="edge3" class="edge">
<title>Node1&#45;&gt;Node4</title>
<path fill="none" stroke="midnightblue" d="M1003.88,-93.08C873.03,-92.86 589.53,-86.68 355.5,-42 345.29,-40.05 334.43,-36.98 324.64,-33.82"/>
<polygon fill="midnightblue" stroke="midnightblue" points="325.5,-30.42 314.91,-30.54 323.27,-37.05 325.5,-30.42"/>
</g>
<!-- Node5 -->
<g id="node5" class="node">
<title>Node5</title>
<g id="a_node5"><a xlink:title=" ">
<polygon fill="none" stroke="#bfbfbf" points="365,-11.5 365,-30.5 466,-30.5 466,-11.5 365,-11.5"/>
<text text-anchor="middle" x="415.5" y="-18.5" font-family="Helvetica,sans-Serif" font-size="10.00">AMReX_IntVect.H</text>
</a>
</g>
</g>
<!-- Node1&#45;&gt;Node5 -->
<g id="edge4" class="edge">
<title>Node1&#45;&gt;Node5</title>
<path fill="none" stroke="midnightblue" d="M1003.55,-91.94C889.65,-89.82 663.19,-80.59 475.5,-42 465.94,-40.03 455.79,-37.02 446.61,-33.93"/>
<polygon fill="midnightblue" stroke="midnightblue" points="447.7,-30.6 437.1,-30.59 445.37,-37.21 447.7,-30.6"/>
</g>
<!-- Node6 -->
<g id="node6" class="node">
<title>Node6</title>
<g id="a_node6"><a xlink:title=" ">
<polygon fill="none" stroke="#bfbfbf" points="484.5,-11.5 484.5,-30.5 584.5,-30.5 584.5,-11.5 484.5,-11.5"/>
<text text-anchor="middle" x="534.5" y="-18.5" font-family="Helvetica,sans-Serif" font-size="10.00">AMReX_Derive.H</text>
</a>
</g>
</g>
<!-- Node1&#45;&gt;Node6 -->
<g id="edge5" class="edge">
<title>Node1&#45;&gt;Node6</title>
<path fill="none" stroke="midnightblue" d="M1003.69,-89.93C908.44,-85.43 736.81,-73.37 593.5,-42 584.29,-39.98 574.51,-37.02 565.61,-33.99"/>
<polygon fill="midnightblue" stroke="midnightblue" points="566.62,-30.63 556.03,-30.59 564.28,-37.23 566.62,-30.63"/>
</g>
<!-- Node7 -->
<g id="node7" class="node">
<title>Node7</title>
<g id="a_node7"><a xlink:title=" ">
<polygon fill="none" stroke="#bfbfbf" points="603,-11.5 603,-30.5 746,-30.5 746,-11.5 603,-11.5"/>
<text text-anchor="middle" x="674.5" y="-18.5" font-family="Helvetica,sans-Serif" font-size="10.00">AMReX_StateDescriptor.H</text>
</a>
</g>
</g>
<!-- Node1&#45;&gt;Node7 -->
<g id="edge6" class="edge">
<title>Node1&#45;&gt;Node7</title>
<path fill="none" stroke="midnightblue" d="M1003.83,-82.89C938.56,-73.82 840.25,-59.1 755.5,-42 742.62,-39.4 728.69,-36.13 716.08,-32.99"/>
<polygon fill="midnightblue" stroke="midnightblue" points="716.84,-29.58 706.29,-30.52 715.13,-36.36 716.84,-29.58"/>
</g>
<!-- Node8 -->
<g id="node8" class="node">
<title>Node8</title>
<g id="a_node8"><a xlink:title=" ">
<polygon fill="none" stroke="#bfbfbf" points="764.5,-11.5 764.5,-30.5 904.5,-30.5 904.5,-11.5 764.5,-11.5"/>
<text text-anchor="middle" x="834.5" y="-18.5" font-family="Helvetica,sans-Serif" font-size="10.00">AMReX_GpuContainers.H</text>
</a>
</g>
</g>
<!-- Node1&#45;&gt;Node8 -->
<g id="edge7" class="edge">
<title>Node1&#45;&gt;Node8</title>
<path fill="none" stroke="midnightblue" d="M1028.4,-78.49C982.97,-65.25 915.68,-45.65 873.5,-33.36"/>
<polygon fill="midnightblue" stroke="midnightblue" points="874.45,-29.99 863.87,-30.55 872.49,-36.71 874.45,-29.99"/>
</g>
<!-- Node9 -->
<g id="node9" class="node">
<title>Node9</title>
<g id="a_node9"><a xlink:title=" ">
<polygon fill="none" stroke="#bfbfbf" points="923,-11.5 923,-30.5 994,-30.5 994,-11.5 923,-11.5"/>
<text text-anchor="middle" x="958.5" y="-18.5" font-family="Helvetica,sans-Serif" font-size="10.00">cns_prob.H</text>
</a>
</g>
</g>
<!-- Node1&#45;&gt;Node9 -->
<g id="edge8" class="edge">
<title>Node1&#45;&gt;Node9</title>
<path fill="none" stroke="midnightblue" d="M1052.9,-78.4C1032.14,-66 1002.09,-48.05 981.51,-35.75"/>
<polygon fill="midnightblue" stroke="midnightblue" points="983.16,-32.66 972.78,-30.53 979.57,-38.67 983.16,-32.66"/>
</g>
<!-- Node10 -->
<g id="node10" class="node">
<title>Node10</title>
<g id="a_node10"><a xlink:title=" ">
<polygon fill="none" stroke="#bfbfbf" points="1012,-0.5 1012,-41.5 1141,-41.5 1141,-0.5 1012,-0.5"/>
<text text-anchor="start" x="1020" y="-29.5" font-family="Helvetica,sans-Serif" font-size="10.00">CGAL/Exact_predicates</text>
<text text-anchor="start" x="1020" y="-18.5" font-family="Helvetica,sans-Serif" font-size="10.00">_inexact_constructions</text>
<text text-anchor="middle" x="1076.5" y="-7.5" font-family="Helvetica,sans-Serif" font-size="10.00">_kernel.h</text>
</a>
</g>
</g>
<!-- Node1&#45;&gt;Node10 -->
<g id="edge9" class="edge">
<title>Node1&#45;&gt;Node10</title>
<path fill="none" stroke="midnightblue" d="M1076.5,-78.23C1076.5,-70.57 1076.5,-60.84 1076.5,-51.63"/>
<polygon fill="midnightblue" stroke="midnightblue" points="1080,-51.59 1076.5,-41.59 1073,-51.59 1080,-51.59"/>
</g>
<!-- Node11 -->
<g id="node11" class="node">
<title>Node11</title>
<g id="a_node11"><a xlink:title=" ">
<polygon fill="none" stroke="#bfbfbf" points="1159,-11.5 1159,-30.5 1280,-30.5 1280,-11.5 1159,-11.5"/>
<text text-anchor="middle" x="1219.5" y="-18.5" font-family="Helvetica,sans-Serif" font-size="10.00">CGAL/Polyhedron_3.h</text>
</a>
</g>
</g>
<!-- Node1&#45;&gt;Node11 -->
<g id="edge10" class="edge">
<title>Node1&#45;&gt;Node11</title>
<path fill="none" stroke="midnightblue" d="M1105.09,-78.4C1130.71,-65.77 1167.99,-47.4 1192.95,-35.09"/>
<polygon fill="midnightblue" stroke="midnightblue" points="1194.77,-38.09 1202.19,-30.53 1191.67,-31.82 1194.77,-38.09"/>
</g>
<!-- Node12 -->
<g id="node12" class="node">
<title>Node12</title>
<g id="a_node12"><a xlink:title=" ">
<polygon fill="none" stroke="#bfbfbf" points="1298,-6 1298,-36 1473,-36 1473,-6 1298,-6"/>
<text text-anchor="start" x="1306" y="-24" font-family="Helvetica,sans-Serif" font-size="10.00">CGAL/Polygon_mesh_processing</text>
<text text-anchor="middle" x="1385.5" y="-13" font-family="Helvetica,sans-Serif" font-size="10.00">/IO/polygon_mesh_io.h</text>
</a>
</g>
</g>
<!-- Node1&#45;&gt;Node12 -->
<g id="edge11" class="edge">
<title>Node1&#45;&gt;Node12</title>
<path fill="none" stroke="midnightblue" d="M1137.92,-78.49C1188.6,-66.92 1260.58,-50.5 1313.87,-38.34"/>
<polygon fill="midnightblue" stroke="midnightblue" points="1314.96,-41.68 1323.93,-36.05 1313.41,-34.86 1314.96,-41.68"/>
</g>
<!-- Node13 -->
<g id="node13" class="node">
<title>Node13</title>
<g id="a_node13"><a xlink:title=" ">
<polygon fill="none" stroke="#bfbfbf" points="1491,-11.5 1491,-30.5 1630,-30.5 1630,-11.5 1491,-11.5"/>
<text text-anchor="middle" x="1560.5" y="-18.5" font-family="Helvetica,sans-Serif" font-size="10.00">CGAL/Simple_cartesian.h</text>
</a>
</g>
</g>
<!-- Node1&#45;&gt;Node13 -->
<g id="edge12" class="edge">
<title>Node1&#45;&gt;Node13</title>
<path fill="none" stroke="midnightblue" d="M1149.17,-86.27C1230.75,-78.63 1366.83,-63.93 1482.5,-42 1495.05,-39.62 1508.59,-36.39 1520.8,-33.22"/>
<polygon fill="midnightblue" stroke="midnightblue" points="1521.93,-36.54 1530.7,-30.59 1520.13,-29.78 1521.93,-36.54"/>
</g>
<!-- Node14 -->
<g id="node14" class="node">
<title>Node14</title>
<g id="a_node14"><a xlink:title=" ">
<polygon fill="none" stroke="#bfbfbf" points="1648,-11.5 1648,-30.5 1755,-30.5 1755,-11.5 1648,-11.5"/>
<text text-anchor="middle" x="1701.5" y="-18.5" font-family="Helvetica,sans-Serif" font-size="10.00">CGAL/AABB_tree.h</text>
</a>
</g>
</g>
<!-- Node1&#45;&gt;Node14 -->
<g id="edge13" class="edge">
<title>Node1&#45;&gt;Node14</title>
<path fill="none" stroke="midnightblue" d="M1149.23,-91.13C1257.23,-87.94 1465.92,-77.32 1639.5,-42 1649.45,-39.97 1660.05,-36.91 1669.62,-33.78"/>
<polygon fill="midnightblue" stroke="midnightblue" points="1670.81,-37.08 1679.15,-30.54 1668.55,-30.45 1670.81,-37.08"/>
</g>
<!-- Node15 -->
<g id="node15" class="node">
<title>Node15</title>
<g id="a_node15"><a xlink:title=" ">
<polygon fill="none" stroke="#bfbfbf" points="1773,-11.5 1773,-30.5 1886,-30.5 1886,-11.5 1773,-11.5"/>
<text text-anchor="middle" x="1829.5" y="-18.5" font-family="Helvetica,sans-Serif" font-size="10.00">CGAL/AABB_traits.h</text>
</a>
</g>
</g>
<!-- Node1&#45;&gt;Node15 -->
<g id="edge14" class="edge">
<title>Node1&#45;&gt;Node15</title>
<path fill="none" stroke="midnightblue" d="M1149.25,-92.51C1275.55,-91.35 1543.07,-83.64 1764.5,-42 1775.12,-40 1786.45,-36.88 1796.63,-33.69"/>
<polygon fill="midnightblue" stroke="midnightblue" points="1797.93,-36.94 1806.35,-30.51 1795.76,-30.29 1797.93,-36.94"/>
</g>
<!-- Node16 -->
<g id="node16" class="node">
<title>Node16</title>
<g id="a_node16"><a xlink:title=" ">
<polygon fill="none" stroke="#bfbfbf" points="1904.5,-6 1904.5,-36 2036.5,-36 2036.5,-6 1904.5,-6"/>
<text text-anchor="start" x="1912.5" y="-24" font-family="Helvetica,sans-Serif" font-size="10.00">CGAL/AABB_face_graph</text>
<text text-anchor="middle" x="1970.5" y="-13" font-family="Helvetica,sans-Serif" font-size="10.00">_triangle_primitive.h</text>
</a>
</g>
</g>
<!-- Node1&#45;&gt;Node16 -->
<g id="edge15" class="edge">
<title>Node1&#45;&gt;Node16</title>
<path fill="none" stroke="midnightblue" d="M1149.07,-92.85C1292.61,-92.48 1622.53,-86.36 1895.5,-42 1901.38,-41.04 1907.46,-39.82 1913.51,-38.46"/>
<polygon fill="midnightblue" stroke="midnightblue" points="1914.69,-41.77 1923.6,-36.04 1913.06,-34.96 1914.69,-41.77"/>
</g>
<!-- Node17 -->
<g id="node17" class="node">
<title>Node17</title>
<g id="a_node17"><a xlink:title=" ">
<polygon fill="none" stroke="#bfbfbf" points="2055,-6 2055,-36 2230,-36 2230,-6 2055,-6"/>
<text text-anchor="start" x="2063" y="-24" font-family="Helvetica,sans-Serif" font-size="10.00">CGAL/Polygon_mesh_processing</text>
<text text-anchor="middle" x="2142.5" y="-13" font-family="Helvetica,sans-Serif" font-size="10.00">/compute_normal.h</text>
</a>
</g>
</g>
<!-- Node1&#45;&gt;Node17 -->
<g id="edge16" class="edge">
<title>Node1&#45;&gt;Node17</title>
<path fill="none" stroke="midnightblue" d="M1149.16,-92.46C1310.89,-91.54 1712.58,-84.75 2045.5,-42 2054.05,-40.9 2062.97,-39.47 2071.79,-37.87"/>
<polygon fill="midnightblue" stroke="midnightblue" points="2072.5,-41.3 2081.68,-36.01 2071.2,-34.42 2072.5,-41.3"/>
</g>
<!-- Node18 -->
<g id="node18" class="node">
<title>Node18</title>
<g id="a_node18"><a xlink:title=" ">
<polygon fill="none" stroke="#bfbfbf" points="2248,-6 2248,-36 2363,-36 2363,-6 2248,-6"/>
<text text-anchor="start" x="2256" y="-24" font-family="Helvetica,sans-Serif" font-size="10.00">boost/property_map</text>
<text text-anchor="middle" x="2305.5" y="-13" font-family="Helvetica,sans-Serif" font-size="10.00">/property_map.hpp</text>
</a>
</g>
</g>
<!-- Node1&#45;&gt;Node18 -->
<g id="edge17" class="edge">
<title>Node1&#45;&gt;Node18</title>
<path fill="none" stroke="midnightblue" d="M1149.04,-91.73C1369.33,-89.01 2028.32,-77.99 2239.5,-42 2244.61,-41.13 2249.87,-39.98 2255.1,-38.68"/>
<polygon fill="midnightblue" stroke="midnightblue" points="2256.3,-41.98 2265.04,-36 2254.48,-35.22 2256.3,-41.98"/>
</g>
</g>
</svg>
