<?xml version="1.0" encoding="UTF-8" standalone="no"?>
<!DOCTYPE svg PUBLIC "-//W3C//DTD SVG 1.1//EN"
 "http://www.w3.org/Graphics/SVG/1.1/DTD/svg11.dtd">
<!-- Generated by graphviz version 2.43.0 (0)
 -->
<!-- Title: /media/monal/main/code/amrsolver1/src/ibm/IBM.cpp Pages: 1 -->
<svg width="2490pt" height="173pt"
 viewBox="0.00 0.00 2490.00 173.00" xmlns="http://www.w3.org/2000/svg" xmlns:xlink="http://www.w3.org/1999/xlink">
<g id="graph0" class="graph" transform="scale(1 1) rotate(0) translate(4 169)">
<title>/media/monal/main/code/amrsolver1/src/ibm/IBM.cpp</title>
<!-- Node1 -->
<g id="node1" class="node">
<title>Node1</title>
<g id="a_node1"><a xlink:title=" ">
<polygon fill="#bfbfbf" stroke="black" points="1095.5,-134.5 1095.5,-164.5 1251.5,-164.5 1251.5,-134.5 1095.5,-134.5"/>
<text text-anchor="start" x="1103.5" y="-152.5" font-family="Helvetica,sans-Serif" font-size="10.00">/media/monal/main/code</text>
<text text-anchor="middle" x="1173.5" y="-141.5" font-family="Helvetica,sans-Serif" font-size="10.00">/amrsolver1/src/ibm/IBM.cpp</text>
</a>
</g>
</g>
<!-- Node2 -->
<g id="node2" class="node">
<title>Node2</title>
<g id="a_node2"><a xlink:href="IBM_8h.html" target="_top" xlink:title=" ">
<polygon fill="none" stroke="black" points="1101.5,-78.5 1101.5,-97.5 1145.5,-97.5 1145.5,-78.5 1101.5,-78.5"/>
<text text-anchor="middle" x="1123.5" y="-85.5" font-family="Helvetica,sans-Serif" font-size="10.00">IBM.h</text>
</a>
</g>
</g>
<!-- Node1&#45;&gt;Node2 -->
<g id="edge1" class="edge">
<title>Node1&#45;&gt;Node2</title>
<path fill="none" stroke="midnightblue" d="M1161.65,-134.4C1154.39,-125.75 1145.05,-114.64 1137.43,-105.58"/>
<polygon fill="midnightblue" stroke="midnightblue" points="1139.89,-103.06 1130.78,-97.66 1134.53,-107.57 1139.89,-103.06"/>
</g>
<!-- Node21 -->
<g id="node21" class="node">
<title>Node21</title>
<g id="a_node21"><a xlink:title=" ">
<polygon fill="none" stroke="#bfbfbf" points="1164,-78.5 1164,-97.5 1283,-97.5 1283,-78.5 1164,-78.5"/>
<text text-anchor="middle" x="1223.5" y="-85.5" font-family="Helvetica,sans-Serif" font-size="10.00">AMReX_ParmParse.H</text>
</a>
</g>
</g>
<!-- Node1&#45;&gt;Node21 -->
<g id="edge20" class="edge">
<title>Node1&#45;&gt;Node21</title>
<path fill="none" stroke="midnightblue" d="M1185.35,-134.4C1192.61,-125.75 1201.95,-114.64 1209.57,-105.58"/>
<polygon fill="midnightblue" stroke="midnightblue" points="1212.47,-107.57 1216.22,-97.66 1207.11,-103.06 1212.47,-107.57"/>
</g>
<!-- Node3 -->
<g id="node3" class="node">
<title>Node3</title>
<g id="a_node3"><a xlink:title=" ">
<polygon fill="none" stroke="#bfbfbf" points="0,-11.5 0,-30.5 87,-30.5 87,-11.5 0,-11.5"/>
<text text-anchor="middle" x="43.5" y="-18.5" font-family="Helvetica,sans-Serif" font-size="10.00">AMReX_Amr.H</text>
</a>
</g>
</g>
<!-- Node2&#45;&gt;Node3 -->
<g id="edge2" class="edge">
<title>Node2&#45;&gt;Node3</title>
<path fill="none" stroke="midnightblue" d="M1101.38,-86.98C970.69,-86.72 298.21,-83.37 96.5,-42 88.01,-40.26 79.08,-37.34 71.02,-34.27"/>
<polygon fill="midnightblue" stroke="midnightblue" points="72.3,-31.01 61.71,-30.51 69.68,-37.5 72.3,-31.01"/>
</g>
<!-- Node4 -->
<g id="node4" class="node">
<title>Node4</title>
<g id="a_node4"><a xlink:title=" ">
<polygon fill="none" stroke="#bfbfbf" points="105.5,-11.5 105.5,-30.5 219.5,-30.5 219.5,-11.5 105.5,-11.5"/>
<text text-anchor="middle" x="162.5" y="-18.5" font-family="Helvetica,sans-Serif" font-size="10.00">AMReX_AmrLevel.H</text>
</a>
</g>
</g>
<!-- Node2&#45;&gt;Node4 -->
<g id="edge3" class="edge">
<title>Node2&#45;&gt;Node4</title>
<path fill="none" stroke="midnightblue" d="M1101.2,-86.62C980.43,-84.42 403.81,-72.5 228.5,-42 217.51,-40.09 205.77,-36.92 195.28,-33.66"/>
<polygon fill="midnightblue" stroke="midnightblue" points="196.28,-30.3 185.68,-30.54 194.12,-36.96 196.28,-30.3"/>
</g>
<!-- Node5 -->
<g id="node5" class="node">
<title>Node5</title>
<g id="a_node5"><a xlink:title=" ">
<polygon fill="none" stroke="#bfbfbf" points="238,-11.5 238,-30.5 347,-30.5 347,-11.5 238,-11.5"/>
<text text-anchor="middle" x="292.5" y="-18.5" font-family="Helvetica,sans-Serif" font-size="10.00">AMReX_FabArray.H</text>
</a>
</g>
</g>
<!-- Node2&#45;&gt;Node5 -->
<g id="edge4" class="edge">
<title>Node2&#45;&gt;Node5</title>
<path fill="none" stroke="midnightblue" d="M1101.18,-86.44C990.98,-83.57 504.23,-69.52 355.5,-42 345.2,-40.09 334.23,-37 324.39,-33.82"/>
<polygon fill="midnightblue" stroke="midnightblue" points="325.2,-30.4 314.61,-30.51 322.96,-37.03 325.2,-30.4"/>
</g>
<!-- Node6 -->
<g id="node6" class="node">
<title>Node6</title>
<g id="a_node6"><a xlink:title=" ">
<polygon fill="none" stroke="#bfbfbf" points="365,-11.5 365,-30.5 466,-30.5 466,-11.5 365,-11.5"/>
<text text-anchor="middle" x="415.5" y="-18.5" font-family="Helvetica,sans-Serif" font-size="10.00">AMReX_IntVect.H</text>
</a>
</g>
</g>
<!-- Node2&#45;&gt;Node6 -->
<g id="edge5" class="edge">
<title>Node2&#45;&gt;Node6</title>
<path fill="none" stroke="midnightblue" d="M1101.42,-87.47C1018.37,-88.81 717.21,-89.88 475.5,-42 465.85,-40.09 455.61,-37.07 446.36,-33.94"/>
<polygon fill="midnightblue" stroke="midnightblue" points="447.4,-30.6 436.81,-30.56 445.07,-37.2 447.4,-30.6"/>
</g>
<!-- Node7 -->
<g id="node7" class="node">
<title>Node7</title>
<g id="a_node7"><a xlink:title=" ">
<polygon fill="none" stroke="#bfbfbf" points="484.5,-11.5 484.5,-30.5 584.5,-30.5 584.5,-11.5 484.5,-11.5"/>
<text text-anchor="middle" x="534.5" y="-18.5" font-family="Helvetica,sans-Serif" font-size="10.00">AMReX_Derive.H</text>
</a>
</g>
</g>
<!-- Node2&#45;&gt;Node7 -->
<g id="edge6" class="edge">
<title>Node2&#45;&gt;Node7</title>
<path fill="none" stroke="midnightblue" d="M1101.26,-87.03C1027.9,-86.7 787.18,-82.42 593.5,-42 584.19,-40.06 574.32,-37.09 565.37,-34.03"/>
<polygon fill="midnightblue" stroke="midnightblue" points="566.32,-30.66 555.73,-30.59 563.97,-37.25 566.32,-30.66"/>
</g>
<!-- Node8 -->
<g id="node8" class="node">
<title>Node8</title>
<g id="a_node8"><a xlink:title=" ">
<polygon fill="none" stroke="#bfbfbf" points="603,-11.5 603,-30.5 746,-30.5 746,-11.5 603,-11.5"/>
<text text-anchor="middle" x="674.5" y="-18.5" font-family="Helvetica,sans-Serif" font-size="10.00">AMReX_StateDescriptor.H</text>
</a>
</g>
</g>
<!-- Node2&#45;&gt;Node8 -->
<g id="edge7" class="edge">
<title>Node2&#45;&gt;Node8</title>
<path fill="none" stroke="midnightblue" d="M1101.38,-85.23C1043.96,-80.44 885.59,-65.92 755.5,-42 742.35,-39.58 728.15,-36.31 715.37,-33.11"/>
<polygon fill="midnightblue" stroke="midnightblue" points="716.02,-29.66 705.47,-30.57 714.29,-36.44 716.02,-29.66"/>
</g>
<!-- Node9 -->
<g id="node9" class="node">
<title>Node9</title>
<g id="a_node9"><a xlink:title=" ">
<polygon fill="none" stroke="#bfbfbf" points="764.5,-11.5 764.5,-30.5 904.5,-30.5 904.5,-11.5 764.5,-11.5"/>
<text text-anchor="middle" x="834.5" y="-18.5" font-family="Helvetica,sans-Serif" font-size="10.00">AMReX_GpuContainers.H</text>
</a>
</g>
</g>
<!-- Node2&#45;&gt;Node9 -->
<g id="edge8" class="edge">
<title>Node2&#45;&gt;Node9</title>
<path fill="none" stroke="midnightblue" d="M1101.37,-82.54C1063.02,-74.74 981.76,-57.95 913.5,-42 901.67,-39.24 888.89,-36.08 877.13,-33.1"/>
<polygon fill="midnightblue" stroke="midnightblue" points="877.66,-29.62 867.1,-30.54 875.93,-36.4 877.66,-29.62"/>
</g>
<!-- Node10 -->
<g id="node10" class="node">
<title>Node10</title>
<g id="a_node10"><a xlink:title=" ">
<polygon fill="none" stroke="#bfbfbf" points="923,-11.5 923,-30.5 970,-30.5 970,-11.5 923,-11.5"/>
<text text-anchor="middle" x="946.5" y="-18.5" font-family="Helvetica,sans-Serif" font-size="10.00">prob.h</text>
</a>
</g>
</g>
<!-- Node2&#45;&gt;Node10 -->
<g id="edge9" class="edge">
<title>Node2&#45;&gt;Node10</title>
<path fill="none" stroke="midnightblue" d="M1101.23,-81.99C1072.2,-75.03 1020.19,-61.11 978.5,-42 974.72,-40.27 970.85,-38.17 967.17,-35.99"/>
<polygon fill="midnightblue" stroke="midnightblue" points="968.87,-32.92 958.54,-30.56 965.15,-38.85 968.87,-32.92"/>
</g>
<!-- Node11 -->
<g id="node11" class="node">
<title>Node11</title>
<g id="a_node11"><a xlink:title=" ">
<polygon fill="none" stroke="#bfbfbf" points="988,-0.5 988,-41.5 1117,-41.5 1117,-0.5 988,-0.5"/>
<text text-anchor="start" x="996" y="-29.5" font-family="Helvetica,sans-Serif" font-size="10.00">CGAL/Exact_predicates</text>
<text text-anchor="start" x="996" y="-18.5" font-family="Helvetica,sans-Serif" font-size="10.00">_inexact_constructions</text>
<text text-anchor="middle" x="1052.5" y="-7.5" font-family="Helvetica,sans-Serif" font-size="10.00">_kernel.h</text>
</a>
</g>
</g>
<!-- Node2&#45;&gt;Node11 -->
<g id="edge10" class="edge">
<title>Node2&#45;&gt;Node11</title>
<path fill="none" stroke="midnightblue" d="M1113.92,-78.23C1105.54,-70.56 1092.92,-59 1081.29,-48.36"/>
<polygon fill="midnightblue" stroke="midnightblue" points="1083.59,-45.71 1073.85,-41.54 1078.86,-50.88 1083.59,-45.71"/>
</g>
<!-- Node12 -->
<g id="node12" class="node">
<title>Node12</title>
<g id="a_node12"><a xlink:title=" ">
<polygon fill="none" stroke="#bfbfbf" points="1135,-11.5 1135,-30.5 1256,-30.5 1256,-11.5 1135,-11.5"/>
<text text-anchor="middle" x="1195.5" y="-18.5" font-family="Helvetica,sans-Serif" font-size="10.00">CGAL/Polyhedron_3.h</text>
</a>
</g>
</g>
<!-- Node2&#45;&gt;Node12 -->
<g id="edge11" class="edge">
<title>Node2&#45;&gt;Node12</title>
<path fill="none" stroke="midnightblue" d="M1133.21,-78.23C1144.76,-67.81 1164.25,-50.21 1178.36,-37.47"/>
<polygon fill="midnightblue" stroke="midnightblue" points="1180.87,-39.93 1185.94,-30.63 1176.18,-34.73 1180.87,-39.93"/>
</g>
<!-- Node13 -->
<g id="node13" class="node">
<title>Node13</title>
<g id="a_node13"><a xlink:title=" ">
<polygon fill="none" stroke="#bfbfbf" points="1274,-6 1274,-36 1449,-36 1449,-6 1274,-6"/>
<text text-anchor="start" x="1282" y="-24" font-family="Helvetica,sans-Serif" font-size="10.00">CGAL/Polygon_mesh_processing</text>
<text text-anchor="middle" x="1361.5" y="-13" font-family="Helvetica,sans-Serif" font-size="10.00">/IO/polygon_mesh_io.h</text>
</a>
</g>
</g>
<!-- Node2&#45;&gt;Node13 -->
<g id="edge12" class="edge">
<title>Node2&#45;&gt;Node13</title>
<path fill="none" stroke="midnightblue" d="M1145.53,-80.78C1148.87,-79.84 1152.27,-78.89 1155.5,-78 1203.85,-64.63 1258.65,-49.75 1299.57,-38.68"/>
<polygon fill="midnightblue" stroke="midnightblue" points="1300.66,-42.02 1309.4,-36.03 1298.83,-35.26 1300.66,-42.02"/>
</g>
<!-- Node14 -->
<g id="node14" class="node">
<title>Node14</title>
<g id="a_node14"><a xlink:title=" ">
<polygon fill="none" stroke="#bfbfbf" points="1467,-11.5 1467,-30.5 1606,-30.5 1606,-11.5 1467,-11.5"/>
<text text-anchor="middle" x="1536.5" y="-18.5" font-family="Helvetica,sans-Serif" font-size="10.00">CGAL/Simple_cartesian.h</text>
</a>
</g>
</g>
<!-- Node2&#45;&gt;Node14 -->
<g id="edge13" class="edge">
<title>Node2&#45;&gt;Node14</title>
<path fill="none" stroke="midnightblue" d="M1145.77,-80.26C1149.02,-79.42 1152.33,-78.63 1155.5,-78 1288.51,-51.56 1325.19,-66.9 1458.5,-42 1471.17,-39.63 1484.83,-36.38 1497.12,-33.18"/>
<polygon fill="midnightblue" stroke="midnightblue" points="1498.31,-36.49 1507.08,-30.53 1496.51,-29.72 1498.31,-36.49"/>
</g>
<!-- Node15 -->
<g id="node15" class="node">
<title>Node15</title>
<g id="a_node15"><a xlink:title=" ">
<polygon fill="none" stroke="#bfbfbf" points="1624,-11.5 1624,-30.5 1731,-30.5 1731,-11.5 1624,-11.5"/>
<text text-anchor="middle" x="1677.5" y="-18.5" font-family="Helvetica,sans-Serif" font-size="10.00">CGAL/AABB_tree.h</text>
</a>
</g>
</g>
<!-- Node2&#45;&gt;Node15 -->
<g id="edge14" class="edge">
<title>Node2&#45;&gt;Node15</title>
<path fill="none" stroke="midnightblue" d="M1145.75,-80.14C1149,-79.32 1152.32,-78.57 1155.5,-78 1357.4,-42.07 1414.32,-81.75 1615.5,-42 1625.55,-40.01 1636.24,-36.93 1645.87,-33.78"/>
<polygon fill="midnightblue" stroke="midnightblue" points="1647.12,-37.05 1655.45,-30.5 1644.85,-30.43 1647.12,-37.05"/>
</g>
<!-- Node16 -->
<g id="node16" class="node">
<title>Node16</title>
<g id="a_node16"><a xlink:title=" ">
<polygon fill="none" stroke="#bfbfbf" points="1749,-11.5 1749,-30.5 1862,-30.5 1862,-11.5 1749,-11.5"/>
<text text-anchor="middle" x="1805.5" y="-18.5" font-family="Helvetica,sans-Serif" font-size="10.00">CGAL/AABB_traits.h</text>
</a>
</g>
</g>
<!-- Node2&#45;&gt;Node16 -->
<g id="edge15" class="edge">
<title>Node2&#45;&gt;Node16</title>
<path fill="none" stroke="midnightblue" d="M1145.74,-80.09C1148.99,-79.27 1152.31,-78.54 1155.5,-78 1412.33,-34.49 1484.22,-88.63 1740.5,-42 1751.13,-40.07 1762.46,-36.96 1772.64,-33.77"/>
<polygon fill="midnightblue" stroke="midnightblue" points="1773.95,-37.02 1782.37,-30.58 1771.77,-30.37 1773.95,-37.02"/>
</g>
<!-- Node17 -->
<g id="node17" class="node">
<title>Node17</title>
<g id="a_node17"><a xlink:title=" ">
<polygon fill="none" stroke="#bfbfbf" points="1880.5,-6 1880.5,-36 2012.5,-36 2012.5,-6 1880.5,-6"/>
<text text-anchor="start" x="1888.5" y="-24" font-family="Helvetica,sans-Serif" font-size="10.00">CGAL/AABB_face_graph</text>
<text text-anchor="middle" x="1946.5" y="-13" font-family="Helvetica,sans-Serif" font-size="10.00">_triangle_primitive.h</text>
</a>
</g>
</g>
<!-- Node2&#45;&gt;Node17 -->
<g id="edge16" class="edge">
<title>Node2&#45;&gt;Node17</title>
<path fill="none" stroke="midnightblue" d="M1145.74,-80.06C1148.99,-79.25 1152.31,-78.52 1155.5,-78 1469.94,-26.54 1556.72,-91.32 1871.5,-42 1877.62,-41.04 1883.95,-39.78 1890.23,-38.36"/>
<polygon fill="midnightblue" stroke="midnightblue" points="1891.11,-41.75 1900.02,-36.02 1889.47,-34.95 1891.11,-41.75"/>
</g>
<!-- Node18 -->
<g id="node18" class="node">
<title>Node18</title>
<g id="a_node18"><a xlink:title=" ">
<polygon fill="none" stroke="#bfbfbf" points="2031,-6 2031,-36 2206,-36 2206,-6 2031,-6"/>
<text text-anchor="start" x="2039" y="-24" font-family="Helvetica,sans-Serif" font-size="10.00">CGAL/Polygon_mesh_processing</text>
<text text-anchor="middle" x="2118.5" y="-13" font-family="Helvetica,sans-Serif" font-size="10.00">/compute_normal.h</text>
</a>
</g>
</g>
<!-- Node2&#45;&gt;Node18 -->
<g id="edge17" class="edge">
<title>Node2&#45;&gt;Node18</title>
<path fill="none" stroke="midnightblue" d="M1145.73,-80.03C1148.98,-79.22 1152.31,-78.51 1155.5,-78 1535.93,-17.44 1639.16,-89.05 2021.5,-42 2030.18,-40.93 2039.24,-39.5 2048.18,-37.89"/>
<polygon fill="midnightblue" stroke="midnightblue" points="2049.03,-41.29 2058.21,-36 2047.74,-34.41 2049.03,-41.29"/>
</g>
<!-- Node19 -->
<g id="node19" class="node">
<title>Node19</title>
<g id="a_node19"><a xlink:title=" ">
<polygon fill="none" stroke="#bfbfbf" points="2224,-6 2224,-36 2339,-36 2339,-6 2224,-6"/>
<text text-anchor="start" x="2232" y="-24" font-family="Helvetica,sans-Serif" font-size="10.00">boost/property_map</text>
<text text-anchor="middle" x="2281.5" y="-13" font-family="Helvetica,sans-Serif" font-size="10.00">/property_map.hpp</text>
</a>
</g>
</g>
<!-- Node2&#45;&gt;Node19 -->
<g id="edge18" class="edge">
<title>Node2&#45;&gt;Node19</title>
<path fill="none" stroke="midnightblue" d="M1145.73,-80.01C1148.98,-79.21 1152.31,-78.5 1155.5,-78 1621.3,-5.67 1750.45,-119 2215.5,-42 2220.61,-41.15 2225.88,-40.02 2231.11,-38.73"/>
<polygon fill="midnightblue" stroke="midnightblue" points="2232.3,-42.03 2241.05,-36.06 2230.49,-35.27 2232.3,-42.03"/>
</g>
<!-- Node20 -->
<g id="node20" class="node">
<title>Node20</title>
<g id="a_node20"><a xlink:title=" ">
<polygon fill="none" stroke="#bfbfbf" points="2357,-6 2357,-36 2482,-36 2482,-6 2357,-6"/>
<text text-anchor="start" x="2365" y="-24" font-family="Helvetica,sans-Serif" font-size="10.00">CGAL/Side_of_triangle</text>
<text text-anchor="middle" x="2419.5" y="-13" font-family="Helvetica,sans-Serif" font-size="10.00">_mesh.h</text>
</a>
</g>
</g>
<!-- Node2&#45;&gt;Node20 -->
<g id="edge19" class="edge">
<title>Node2&#45;&gt;Node20</title>
<path fill="none" stroke="midnightblue" d="M1145.73,-80C1148.98,-79.2 1152.31,-78.49 1155.5,-78 1679.83,2.41 1824.18,-122.51 2348.5,-42 2354.26,-41.12 2360.21,-39.91 2366.11,-38.54"/>
<polygon fill="midnightblue" stroke="midnightblue" points="2367.08,-41.9 2375.93,-36.08 2365.38,-35.11 2367.08,-41.9"/>
</g>
</g>
</svg>
