<?xml version="1.0" encoding="UTF-8" standalone="no"?>
<!DOCTYPE svg PUBLIC "-//W3C//DTD SVG 1.1//EN"
 "http://www.w3.org/Graphics/SVG/1.1/DTD/svg11.dtd">
<!-- Generated by graphviz version 2.43.0 (0)
 -->
<!-- Title: Graphical Class Hierarchy Pages: 1 -->
<svg width="232pt" height="104pt"
 viewBox="0.00 0.00 232.00 104.00" xmlns="http://www.w3.org/2000/svg" xmlns:xlink="http://www.w3.org/1999/xlink">
<g id="graph0" class="graph" transform="scale(1 1) rotate(0) translate(4 100)">
<title>Graphical Class Hierarchy</title>
<!-- Node8 -->
<g id="node1" class="node">
<title>Node8</title>
<g id="a_node1"><a xlink:title=" ">
<polygon fill="none" stroke="#bfbfbf" points="6.5,-76.5 6.5,-95.5 47.5,-95.5 47.5,-76.5 6.5,-76.5"/>
<text text-anchor="middle" x="27" y="-83.5" font-family="Helvetica,sans-Serif" font-size="10.00">Cond</text>
</a>
</g>
</g>
<!-- Node0 -->
<g id="node2" class="node">
<title>Node0</title>
<g id="a_node2"><a xlink:href="classclosures__derived__t.html" target="_top" xlink:title=" ">
<polygon fill="none" stroke="black" points="90,-33 90,-63 224,-63 224,-33 90,-33"/>
<text text-anchor="start" x="98" y="-51" font-family="Helvetica,sans-Serif" font-size="10.00">closures_derived_t</text>
<text text-anchor="middle" x="157" y="-40" font-family="Helvetica,sans-Serif" font-size="10.00">&lt; Visc, Cond, Thermo &gt;</text>
</a>
</g>
</g>
<!-- Node8&#45;&gt;Node0 -->
<g id="edge1" class="edge">
<title>Node8&#45;&gt;Node0</title>
<path fill="none" stroke="midnightblue" d="M57.42,-77.27C71.61,-73.05 89.05,-67.88 105.29,-63.05"/>
<polygon fill="midnightblue" stroke="midnightblue" points="56.31,-73.94 47.72,-80.15 58.3,-80.65 56.31,-73.94"/>
</g>
<!-- Node21 -->
<g id="node3" class="node">
<title>Node21</title>
<g id="a_node3"><a xlink:title=" ">
<polygon fill="none" stroke="#bfbfbf" points="0,-38.5 0,-57.5 54,-57.5 54,-38.5 0,-38.5"/>
<text text-anchor="middle" x="27" y="-45.5" font-family="Helvetica,sans-Serif" font-size="10.00">Thermo</text>
</a>
</g>
</g>
<!-- Node21&#45;&gt;Node0 -->
<g id="edge2" class="edge">
<title>Node21&#45;&gt;Node0</title>
<path fill="none" stroke="midnightblue" d="M64.3,-48C72.33,-48 81.09,-48 89.89,-48"/>
<polygon fill="midnightblue" stroke="midnightblue" points="64.21,-44.5 54.21,-48 64.21,-51.5 64.21,-44.5"/>
</g>
<!-- Node22 -->
<g id="node4" class="node">
<title>Node22</title>
<g id="a_node4"><a xlink:title=" ">
<polygon fill="none" stroke="#bfbfbf" points="8.5,-0.5 8.5,-19.5 45.5,-19.5 45.5,-0.5 8.5,-0.5"/>
<text text-anchor="middle" x="27" y="-7.5" font-family="Helvetica,sans-Serif" font-size="10.00">Visc</text>
</a>
</g>
</g>
<!-- Node22&#45;&gt;Node0 -->
<g id="edge3" class="edge">
<title>Node22&#45;&gt;Node0</title>
<path fill="none" stroke="midnightblue" d="M55.37,-18.13C69.92,-22.44 88.27,-27.89 105.3,-32.95"/>
<polygon fill="midnightblue" stroke="midnightblue" points="56.11,-14.69 45.53,-15.2 54.12,-21.41 56.11,-14.69"/>
</g>
</g>
</svg>
