<?xml version="1.0" encoding="UTF-8" standalone="no"?>
<!DOCTYPE svg PUBLIC "-//W3C//DTD SVG 1.1//EN"
 "http://www.w3.org/Graphics/SVG/1.1/DTD/svg11.dtd">
<!-- Generated by graphviz version 2.43.0 (0)
 -->
<!-- Title: /media/monal/main/code/amrsolver1/src/main.cpp Pages: 1 -->
<svg width="641pt" height="151pt"
 viewBox="0.00 0.00 640.50 151.00" xmlns="http://www.w3.org/2000/svg" xmlns:xlink="http://www.w3.org/1999/xlink">
<g id="graph0" class="graph" transform="scale(1 1) rotate(0) translate(4 147)">
<title>/media/monal/main/code/amrsolver1/src/main.cpp</title>
<!-- Node1 -->
<g id="node1" class="node">
<title>Node1</title>
<g id="a_node1"><a xlink:title=" ">
<polygon fill="#bfbfbf" stroke="black" points="293,-112.5 293,-142.5 433,-142.5 433,-112.5 293,-112.5"/>
<text text-anchor="start" x="301" y="-130.5" font-family="Helvetica,sans-Serif" font-size="10.00">/media/monal/main/code</text>
<text text-anchor="middle" x="363" y="-119.5" font-family="Helvetica,sans-Serif" font-size="10.00">/amrsolver1/src/main.cpp</text>
</a>
</g>
</g>
<!-- Node2 -->
<g id="node2" class="node">
<title>Node2</title>
<g id="a_node2"><a xlink:title=" ">
<polygon fill="none" stroke="#bfbfbf" points="0,-56.5 0,-75.5 62,-75.5 62,-56.5 0,-56.5"/>
<text text-anchor="middle" x="31" y="-63.5" font-family="Helvetica,sans-Serif" font-size="10.00">AMReX.H</text>
</a>
</g>
</g>
<!-- Node1&#45;&gt;Node2 -->
<g id="edge1" class="edge">
<title>Node1&#45;&gt;Node2</title>
<path fill="none" stroke="midnightblue" d="M292.9,-115.39C235.95,-106.13 153.32,-92.17 72.28,-76.18"/>
<polygon fill="midnightblue" stroke="midnightblue" points="72.9,-72.74 62.41,-74.22 71.54,-79.6 72.9,-72.74"/>
</g>
<!-- Node3 -->
<g id="node3" class="node">
<title>Node3</title>
<g id="a_node3"><a xlink:title=" ">
<polygon fill="none" stroke="#bfbfbf" points="80.5,-56.5 80.5,-75.5 199.5,-75.5 199.5,-56.5 80.5,-56.5"/>
<text text-anchor="middle" x="140" y="-63.5" font-family="Helvetica,sans-Serif" font-size="10.00">AMReX_ParmParse.H</text>
</a>
</g>
</g>
<!-- Node1&#45;&gt;Node3 -->
<g id="edge2" class="edge">
<title>Node1&#45;&gt;Node3</title>
<path fill="none" stroke="midnightblue" d="M310.43,-112.47C271.12,-101.99 218.09,-87.84 181.68,-78.12"/>
<polygon fill="midnightblue" stroke="midnightblue" points="182.45,-74.7 171.88,-75.51 180.64,-81.47 182.45,-74.7"/>
</g>
<!-- Node4 -->
<g id="node4" class="node">
<title>Node4</title>
<g id="a_node4"><a xlink:title=" ">
<polygon fill="none" stroke="#bfbfbf" points="217.5,-56.5 217.5,-75.5 370.5,-75.5 370.5,-56.5 217.5,-56.5"/>
<text text-anchor="middle" x="294" y="-63.5" font-family="Helvetica,sans-Serif" font-size="10.00">AMReX_ParallelDescriptor.H</text>
</a>
</g>
</g>
<!-- Node1&#45;&gt;Node4 -->
<g id="edge3" class="edge">
<title>Node1&#45;&gt;Node4</title>
<path fill="none" stroke="midnightblue" d="M346.65,-112.4C336.1,-103.31 322.4,-91.49 311.62,-82.19"/>
<polygon fill="midnightblue" stroke="midnightblue" points="313.9,-79.54 304.04,-75.66 309.33,-84.84 313.9,-79.54"/>
</g>
<!-- Node5 -->
<g id="node5" class="node">
<title>Node5</title>
<g id="a_node5"><a xlink:title=" ">
<polygon fill="none" stroke="#bfbfbf" points="388.5,-56.5 388.5,-75.5 475.5,-75.5 475.5,-56.5 388.5,-56.5"/>
<text text-anchor="middle" x="432" y="-63.5" font-family="Helvetica,sans-Serif" font-size="10.00">AMReX_Amr.H</text>
</a>
</g>
</g>
<!-- Node1&#45;&gt;Node5 -->
<g id="edge4" class="edge">
<title>Node1&#45;&gt;Node5</title>
<path fill="none" stroke="midnightblue" d="M379.35,-112.4C389.9,-103.31 403.6,-91.49 414.38,-82.19"/>
<polygon fill="midnightblue" stroke="midnightblue" points="416.67,-84.84 421.96,-75.66 412.1,-79.54 416.67,-84.84"/>
</g>
<!-- Node6 -->
<g id="node6" class="node">
<title>Node6</title>
<g id="a_node6"><a xlink:href="CNS_8h.html" target="_top" xlink:title=" ">
<polygon fill="none" stroke="black" points="494,-56.5 494,-75.5 540,-75.5 540,-56.5 494,-56.5"/>
<text text-anchor="middle" x="517" y="-63.5" font-family="Helvetica,sans-Serif" font-size="10.00">CNS.h</text>
</a>
</g>
</g>
<!-- Node1&#45;&gt;Node6 -->
<g id="edge5" class="edge">
<title>Node1&#45;&gt;Node6</title>
<path fill="none" stroke="midnightblue" d="M399.5,-112.4C425.57,-102.33 460.29,-88.91 485.22,-79.28"/>
<polygon fill="midnightblue" stroke="midnightblue" points="486.53,-82.53 494.59,-75.66 484,-76 486.53,-82.53"/>
</g>
<!-- Node9 -->
<g id="node9" class="node">
<title>Node9</title>
<g id="a_node9"><a xlink:title=" ">
<polygon fill="none" stroke="#bfbfbf" points="585.5,-0.5 585.5,-19.5 632.5,-19.5 632.5,-0.5 585.5,-0.5"/>
<text text-anchor="middle" x="609" y="-7.5" font-family="Helvetica,sans-Serif" font-size="10.00">prob.h</text>
</a>
</g>
</g>
<!-- Node1&#45;&gt;Node9 -->
<g id="edge9" class="edge">
<title>Node1&#45;&gt;Node9</title>
<path fill="none" stroke="midnightblue" d="M433.4,-116.97C469.86,-109.74 513.95,-97.26 549,-76 569.23,-63.73 586.83,-42.7 597.65,-27.88"/>
<polygon fill="midnightblue" stroke="midnightblue" points="600.59,-29.79 603.47,-19.6 594.86,-25.77 600.59,-29.79"/>
</g>
<!-- Node7 -->
<g id="node7" class="node">
<title>Node7</title>
<g id="a_node7"><a xlink:title=" ">
<polygon fill="none" stroke="#bfbfbf" points="307,-0.5 307,-19.5 421,-19.5 421,-0.5 307,-0.5"/>
<text text-anchor="middle" x="364" y="-7.5" font-family="Helvetica,sans-Serif" font-size="10.00">AMReX_AmrLevel.H</text>
</a>
</g>
</g>
<!-- Node6&#45;&gt;Node7 -->
<g id="edge6" class="edge">
<title>Node6&#45;&gt;Node7</title>
<path fill="none" stroke="midnightblue" d="M493.76,-56.8C468.26,-47.8 427.09,-33.27 397.97,-22.99"/>
<polygon fill="midnightblue" stroke="midnightblue" points="398.81,-19.57 388.22,-19.55 396.48,-26.18 398.81,-19.57"/>
</g>
<!-- Node8 -->
<g id="node8" class="node">
<title>Node8</title>
<g id="a_node8"><a xlink:title=" ">
<polygon fill="none" stroke="#bfbfbf" points="439,-0.5 439,-19.5 567,-19.5 567,-0.5 439,-0.5"/>
<text text-anchor="middle" x="503" y="-7.5" font-family="Helvetica,sans-Serif" font-size="10.00">AMReX_FluxRegister.H</text>
</a>
</g>
</g>
<!-- Node6&#45;&gt;Node8 -->
<g id="edge7" class="edge">
<title>Node6&#45;&gt;Node8</title>
<path fill="none" stroke="midnightblue" d="M514.69,-56.08C512.83,-48.93 510.16,-38.64 507.85,-29.69"/>
<polygon fill="midnightblue" stroke="midnightblue" points="511.17,-28.55 505.27,-19.75 504.39,-30.31 511.17,-28.55"/>
</g>
<!-- Node6&#45;&gt;Node9 -->
<g id="edge8" class="edge">
<title>Node6&#45;&gt;Node9</title>
<path fill="none" stroke="midnightblue" d="M531.78,-56.32C546.27,-47.82 568.57,-34.73 585.49,-24.8"/>
<polygon fill="midnightblue" stroke="midnightblue" points="587.4,-27.74 594.26,-19.65 583.86,-21.7 587.4,-27.74"/>
</g>
</g>
</svg>
