<?xml version="1.0" encoding="UTF-8" standalone="no"?>
<!DOCTYPE svg PUBLIC "-//W3C//DTD SVG 1.1//EN"
 "http://www.w3.org/Graphics/SVG/1.1/DTD/svg11.dtd">
<!-- Generated by graphviz version 2.43.0 (0)
 -->
<!-- Title: /media/monal/main/code/amrsolver1/src/set/bcs.cpp Pages: 1 -->
<svg width="564pt" height="151pt"
 viewBox="0.00 0.00 564.00 151.00" xmlns="http://www.w3.org/2000/svg" xmlns:xlink="http://www.w3.org/1999/xlink">
<g id="graph0" class="graph" transform="scale(1 1) rotate(0) translate(4 147)">
<title>/media/monal/main/code/amrsolver1/src/set/bcs.cpp</title>
<!-- Node1 -->
<g id="node1" class="node">
<title>Node1</title>
<g id="a_node1"><a xlink:title=" ">
<polygon fill="#bfbfbf" stroke="black" points="258.5,-112.5 258.5,-142.5 408.5,-142.5 408.5,-112.5 258.5,-112.5"/>
<text text-anchor="start" x="266.5" y="-130.5" font-family="Helvetica,sans-Serif" font-size="10.00">/media/monal/main/code</text>
<text text-anchor="middle" x="333.5" y="-119.5" font-family="Helvetica,sans-Serif" font-size="10.00">/amrsolver1/src/set/bcs.cpp</text>
</a>
</g>
</g>
<!-- Node2 -->
<g id="node2" class="node">
<title>Node2</title>
<g id="a_node2"><a xlink:title=" ">
<polygon fill="none" stroke="#bfbfbf" points="0,-56.5 0,-75.5 117,-75.5 117,-56.5 0,-56.5"/>
<text text-anchor="middle" x="58.5" y="-63.5" font-family="Helvetica,sans-Serif" font-size="10.00">AMReX_FArrayBox.H</text>
</a>
</g>
</g>
<!-- Node1&#45;&gt;Node2 -->
<g id="edge1" class="edge">
<title>Node1&#45;&gt;Node2</title>
<path fill="none" stroke="midnightblue" d="M268.68,-112.47C219.37,-101.81 152.56,-87.35 107.62,-77.63"/>
<polygon fill="midnightblue" stroke="midnightblue" points="108.33,-74.2 97.82,-75.51 106.85,-81.04 108.33,-74.2"/>
</g>
<!-- Node3 -->
<g id="node3" class="node">
<title>Node3</title>
<g id="a_node3"><a xlink:title=" ">
<polygon fill="none" stroke="#bfbfbf" points="135,-56.5 135,-75.5 250,-75.5 250,-56.5 135,-56.5"/>
<text text-anchor="middle" x="192.5" y="-63.5" font-family="Helvetica,sans-Serif" font-size="10.00">AMReX_Geometry.H</text>
</a>
</g>
</g>
<!-- Node1&#45;&gt;Node3 -->
<g id="edge2" class="edge">
<title>Node1&#45;&gt;Node3</title>
<path fill="none" stroke="midnightblue" d="M300.08,-112.4C276.53,-102.46 245.26,-89.26 222.51,-79.66"/>
<polygon fill="midnightblue" stroke="midnightblue" points="223.59,-76.32 213.02,-75.66 220.87,-82.77 223.59,-76.32"/>
</g>
<!-- Node4 -->
<g id="node4" class="node">
<title>Node4</title>
<g id="a_node4"><a xlink:title=" ">
<polygon fill="none" stroke="#bfbfbf" points="268,-56.5 268,-75.5 399,-75.5 399,-56.5 268,-56.5"/>
<text text-anchor="middle" x="333.5" y="-63.5" font-family="Helvetica,sans-Serif" font-size="10.00">AMReX_PhysBCFunct.H</text>
</a>
</g>
</g>
<!-- Node1&#45;&gt;Node4 -->
<g id="edge3" class="edge">
<title>Node1&#45;&gt;Node4</title>
<path fill="none" stroke="midnightblue" d="M333.5,-112.4C333.5,-104.47 333.5,-94.46 333.5,-85.86"/>
<polygon fill="midnightblue" stroke="midnightblue" points="337,-85.66 333.5,-75.66 330,-85.66 337,-85.66"/>
</g>
<!-- Node5 -->
<g id="node5" class="node">
<title>Node5</title>
<g id="a_node5"><a xlink:href="CNS_8h.html" target="_top" xlink:title=" ">
<polygon fill="none" stroke="black" points="417.5,-56.5 417.5,-75.5 463.5,-75.5 463.5,-56.5 417.5,-56.5"/>
<text text-anchor="middle" x="440.5" y="-63.5" font-family="Helvetica,sans-Serif" font-size="10.00">CNS.h</text>
</a>
</g>
</g>
<!-- Node1&#45;&gt;Node5 -->
<g id="edge4" class="edge">
<title>Node1&#45;&gt;Node5</title>
<path fill="none" stroke="midnightblue" d="M358.86,-112.4C376.17,-102.77 398.98,-90.09 416.08,-80.58"/>
<polygon fill="midnightblue" stroke="midnightblue" points="417.89,-83.58 424.93,-75.66 414.49,-77.46 417.89,-83.58"/>
</g>
<!-- Node8 -->
<g id="node8" class="node">
<title>Node8</title>
<g id="a_node8"><a xlink:title=" ">
<polygon fill="none" stroke="#bfbfbf" points="509,-0.5 509,-19.5 556,-19.5 556,-0.5 509,-0.5"/>
<text text-anchor="middle" x="532.5" y="-7.5" font-family="Helvetica,sans-Serif" font-size="10.00">prob.h</text>
</a>
</g>
</g>
<!-- Node1&#45;&gt;Node8 -->
<g id="edge8" class="edge">
<title>Node1&#45;&gt;Node8</title>
<path fill="none" stroke="midnightblue" d="M390.84,-112.4C417.1,-104.31 447.81,-92.42 472.5,-76 491.98,-63.04 509.53,-42.48 520.54,-27.96"/>
<polygon fill="midnightblue" stroke="midnightblue" points="523.42,-29.95 526.51,-19.82 517.78,-25.81 523.42,-29.95"/>
</g>
<!-- Node6 -->
<g id="node6" class="node">
<title>Node6</title>
<g id="a_node6"><a xlink:title=" ">
<polygon fill="none" stroke="#bfbfbf" points="230.5,-0.5 230.5,-19.5 344.5,-19.5 344.5,-0.5 230.5,-0.5"/>
<text text-anchor="middle" x="287.5" y="-7.5" font-family="Helvetica,sans-Serif" font-size="10.00">AMReX_AmrLevel.H</text>
</a>
</g>
</g>
<!-- Node5&#45;&gt;Node6 -->
<g id="edge5" class="edge">
<title>Node5&#45;&gt;Node6</title>
<path fill="none" stroke="midnightblue" d="M417.26,-56.8C391.76,-47.8 350.59,-33.27 321.47,-22.99"/>
<polygon fill="midnightblue" stroke="midnightblue" points="322.31,-19.57 311.72,-19.55 319.98,-26.18 322.31,-19.57"/>
</g>
<!-- Node7 -->
<g id="node7" class="node">
<title>Node7</title>
<g id="a_node7"><a xlink:title=" ">
<polygon fill="none" stroke="#bfbfbf" points="362.5,-0.5 362.5,-19.5 490.5,-19.5 490.5,-0.5 362.5,-0.5"/>
<text text-anchor="middle" x="426.5" y="-7.5" font-family="Helvetica,sans-Serif" font-size="10.00">AMReX_FluxRegister.H</text>
</a>
</g>
</g>
<!-- Node5&#45;&gt;Node7 -->
<g id="edge6" class="edge">
<title>Node5&#45;&gt;Node7</title>
<path fill="none" stroke="midnightblue" d="M438.19,-56.08C436.33,-48.93 433.66,-38.64 431.35,-29.69"/>
<polygon fill="midnightblue" stroke="midnightblue" points="434.67,-28.55 428.77,-19.75 427.89,-30.31 434.67,-28.55"/>
</g>
<!-- Node5&#45;&gt;Node8 -->
<g id="edge7" class="edge">
<title>Node5&#45;&gt;Node8</title>
<path fill="none" stroke="midnightblue" d="M455.28,-56.32C469.77,-47.82 492.07,-34.73 508.99,-24.8"/>
<polygon fill="midnightblue" stroke="midnightblue" points="510.9,-27.74 517.76,-19.65 507.36,-21.7 510.9,-27.74"/>
</g>
</g>
</svg>
