<?xml version="1.0" encoding="UTF-8" standalone="no"?>
<!DOCTYPE svg PUBLIC "-//W3C//DTD SVG 1.1//EN"
 "http://www.w3.org/Graphics/SVG/1.1/DTD/svg11.dtd">
<!-- Generated by graphviz version 2.43.0 (0)
 -->
<!-- Title: /media/monal/main/code/amrsolver1/src/rhs/Central.h Pages: 1 -->
<svg width="451pt" height="151pt"
 viewBox="0.00 0.00 450.50 151.00" xmlns="http://www.w3.org/2000/svg" xmlns:xlink="http://www.w3.org/1999/xlink">
<g id="graph0" class="graph" transform="scale(1 1) rotate(0) translate(4 147)">
<title>/media/monal/main/code/amrsolver1/src/rhs/Central.h</title>
<!-- Node1 -->
<g id="node1" class="node">
<title>Node1</title>
<g id="a_node1"><a xlink:title=" ">
<polygon fill="#bfbfbf" stroke="black" points="218,-112.5 218,-142.5 376,-142.5 376,-112.5 218,-112.5"/>
<text text-anchor="start" x="226" y="-130.5" font-family="Helvetica,sans-Serif" font-size="10.00">/media/monal/main/code</text>
<text text-anchor="middle" x="297" y="-119.5" font-family="Helvetica,sans-Serif" font-size="10.00">/amrsolver1/src/rhs/Central.h</text>
</a>
</g>
</g>
<!-- Node2 -->
<g id="node2" class="node">
<title>Node2</title>
<g id="a_node2"><a xlink:href="CNS_8h.html" target="_top" xlink:title=" ">
<polygon fill="none" stroke="black" points="206,-56.5 206,-75.5 252,-75.5 252,-56.5 206,-56.5"/>
<text text-anchor="middle" x="229" y="-63.5" font-family="Helvetica,sans-Serif" font-size="10.00">CNS.h</text>
</a>
</g>
</g>
<!-- Node1&#45;&gt;Node2 -->
<g id="edge1" class="edge">
<title>Node1&#45;&gt;Node2</title>
<path fill="none" stroke="midnightblue" d="M280.88,-112.4C270.6,-103.4 257.25,-91.72 246.67,-82.47"/>
<polygon fill="midnightblue" stroke="midnightblue" points="248.73,-79.61 238.89,-75.66 244.12,-84.88 248.73,-79.61"/>
</g>
<!-- Node5 -->
<g id="node5" class="node">
<title>Node5</title>
<g id="a_node5"><a xlink:title=" ">
<polygon fill="none" stroke="#bfbfbf" points="278.5,-0.5 278.5,-19.5 349.5,-19.5 349.5,-0.5 278.5,-0.5"/>
<text text-anchor="middle" x="314" y="-7.5" font-family="Helvetica,sans-Serif" font-size="10.00">cns_prob.H</text>
</a>
</g>
</g>
<!-- Node1&#45;&gt;Node5 -->
<g id="edge6" class="edge">
<title>Node1&#45;&gt;Node5</title>
<path fill="none" stroke="midnightblue" d="M299.08,-112.34C302.15,-91.53 307.87,-52.66 311.26,-29.58"/>
<polygon fill="midnightblue" stroke="midnightblue" points="314.73,-30.07 312.72,-19.67 307.81,-29.05 314.73,-30.07"/>
</g>
<!-- Node6 -->
<g id="node6" class="node">
<title>Node6</title>
<g id="a_node6"><a xlink:title=" ">
<polygon fill="none" stroke="#bfbfbf" points="325.5,-56.5 325.5,-75.5 442.5,-75.5 442.5,-56.5 325.5,-56.5"/>
<text text-anchor="middle" x="384" y="-63.5" font-family="Helvetica,sans-Serif" font-size="10.00">AMReX_FArrayBox.H</text>
</a>
</g>
</g>
<!-- Node1&#45;&gt;Node6 -->
<g id="edge5" class="edge">
<title>Node1&#45;&gt;Node6</title>
<path fill="none" stroke="midnightblue" d="M317.62,-112.4C331.3,-103.04 349.21,-90.79 362.98,-81.38"/>
<polygon fill="midnightblue" stroke="midnightblue" points="365.06,-84.19 371.34,-75.66 361.11,-78.41 365.06,-84.19"/>
</g>
<!-- Node3 -->
<g id="node3" class="node">
<title>Node3</title>
<g id="a_node3"><a xlink:title=" ">
<polygon fill="none" stroke="#bfbfbf" points="0,-0.5 0,-19.5 114,-19.5 114,-0.5 0,-0.5"/>
<text text-anchor="middle" x="57" y="-7.5" font-family="Helvetica,sans-Serif" font-size="10.00">AMReX_AmrLevel.H</text>
</a>
</g>
</g>
<!-- Node2&#45;&gt;Node3 -->
<g id="edge2" class="edge">
<title>Node2&#45;&gt;Node3</title>
<path fill="none" stroke="midnightblue" d="M205.8,-57.72C177.09,-48.7 127.85,-33.24 93.93,-22.59"/>
<polygon fill="midnightblue" stroke="midnightblue" points="94.95,-19.25 84.36,-19.59 92.85,-25.92 94.95,-19.25"/>
</g>
<!-- Node4 -->
<g id="node4" class="node">
<title>Node4</title>
<g id="a_node4"><a xlink:title=" ">
<polygon fill="none" stroke="#bfbfbf" points="132,-0.5 132,-19.5 260,-19.5 260,-0.5 132,-0.5"/>
<text text-anchor="middle" x="196" y="-7.5" font-family="Helvetica,sans-Serif" font-size="10.00">AMReX_FluxRegister.H</text>
</a>
</g>
</g>
<!-- Node2&#45;&gt;Node4 -->
<g id="edge3" class="edge">
<title>Node2&#45;&gt;Node4</title>
<path fill="none" stroke="midnightblue" d="M223.55,-56.08C218.99,-48.61 212.33,-37.72 206.71,-28.52"/>
<polygon fill="midnightblue" stroke="midnightblue" points="209.55,-26.46 201.35,-19.75 203.58,-30.11 209.55,-26.46"/>
</g>
<!-- Node2&#45;&gt;Node5 -->
<g id="edge4" class="edge">
<title>Node2&#45;&gt;Node5</title>
<path fill="none" stroke="midnightblue" d="M242.66,-56.32C255.92,-47.9 276.27,-34.97 291.85,-25.07"/>
<polygon fill="midnightblue" stroke="midnightblue" points="293.81,-27.97 300.38,-19.65 290.06,-22.06 293.81,-27.97"/>
</g>
</g>
</svg>
