<?xml version="1.0" encoding="UTF-8" standalone="no"?>
<!DOCTYPE svg PUBLIC "-//W3C//DTD SVG 1.1//EN"
 "http://www.w3.org/Graphics/SVG/1.1/DTD/svg11.dtd">
<!-- Generated by graphviz version 2.43.0 (0)
 -->
<!-- Title: /media/monal/main/code/amrsolver1/src/set/CNS_setup.cpp Pages: 1 -->
<svg width="621pt" height="162pt"
 viewBox="0.00 0.00 620.50 162.00" xmlns="http://www.w3.org/2000/svg" xmlns:xlink="http://www.w3.org/1999/xlink">
<g id="graph0" class="graph" transform="scale(1 1) rotate(0) translate(4 158)">
<title>/media/monal/main/code/amrsolver1/src/set/CNS_setup.cpp</title>
<!-- Node1 -->
<g id="node1" class="node">
<title>Node1</title>
<g id="a_node1"><a xlink:title=" ">
<polygon fill="#bfbfbf" stroke="black" points="245,-112.5 245,-153.5 383,-153.5 383,-112.5 245,-112.5"/>
<text text-anchor="start" x="253" y="-141.5" font-family="Helvetica,sans-Serif" font-size="10.00">/media/monal/main/code</text>
<text text-anchor="start" x="253" y="-130.5" font-family="Helvetica,sans-Serif" font-size="10.00">/amrsolver1/src/set/CNS</text>
<text text-anchor="middle" x="314" y="-119.5" font-family="Helvetica,sans-Serif" font-size="10.00">_setup.cpp</text>
</a>
</g>
</g>
<!-- Node2 -->
<g id="node2" class="node">
<title>Node2</title>
<g id="a_node2"><a xlink:href="CNS_8h.html" target="_top" xlink:title=" ">
<polygon fill="none" stroke="black" points="207,-56.5 207,-75.5 253,-75.5 253,-56.5 207,-56.5"/>
<text text-anchor="middle" x="230" y="-63.5" font-family="Helvetica,sans-Serif" font-size="10.00">CNS.h</text>
</a>
</g>
</g>
<!-- Node1&#45;&gt;Node2 -->
<g id="edge1" class="edge">
<title>Node1&#45;&gt;Node2</title>
<path fill="none" stroke="midnightblue" d="M288.8,-112.5C276.17,-102.72 261.11,-91.07 249.39,-82.01"/>
<polygon fill="midnightblue" stroke="midnightblue" points="251.23,-79 241.18,-75.65 246.95,-84.54 251.23,-79"/>
</g>
<!-- Node5 -->
<g id="node5" class="node">
<title>Node5</title>
<g id="a_node5"><a xlink:title=" ">
<polygon fill="none" stroke="#bfbfbf" points="278.5,-0.5 278.5,-19.5 349.5,-19.5 349.5,-0.5 278.5,-0.5"/>
<text text-anchor="middle" x="314" y="-7.5" font-family="Helvetica,sans-Serif" font-size="10.00">cns_prob.H</text>
</a>
</g>
</g>
<!-- Node1&#45;&gt;Node5 -->
<g id="edge5" class="edge">
<title>Node1&#45;&gt;Node5</title>
<path fill="none" stroke="midnightblue" d="M314,-112.29C314,-89.48 314,-52.19 314,-29.78"/>
<polygon fill="midnightblue" stroke="midnightblue" points="317.5,-29.57 314,-19.57 310.5,-29.57 317.5,-29.57"/>
</g>
<!-- Node6 -->
<g id="node6" class="node">
<title>Node6</title>
<g id="a_node6"><a xlink:href="CNS__K_8h.html" target="_top" xlink:title=" ">
<polygon fill="none" stroke="black" points="397,-56.5 397,-75.5 455,-75.5 455,-56.5 397,-56.5"/>
<text text-anchor="middle" x="426" y="-63.5" font-family="Helvetica,sans-Serif" font-size="10.00">CNS_K.h</text>
</a>
</g>
</g>
<!-- Node1&#45;&gt;Node6 -->
<g id="edge6" class="edge">
<title>Node1&#45;&gt;Node6</title>
<path fill="none" stroke="midnightblue" d="M347.6,-112.5C365.27,-102.24 386.5,-89.93 402.41,-80.69"/>
<polygon fill="midnightblue" stroke="midnightblue" points="404.2,-83.7 411.09,-75.65 400.69,-77.64 404.2,-83.7"/>
</g>
<!-- Node3 -->
<g id="node3" class="node">
<title>Node3</title>
<g id="a_node3"><a xlink:title=" ">
<polygon fill="none" stroke="#bfbfbf" points="0,-0.5 0,-19.5 114,-19.5 114,-0.5 0,-0.5"/>
<text text-anchor="middle" x="57" y="-7.5" font-family="Helvetica,sans-Serif" font-size="10.00">AMReX_AmrLevel.H</text>
</a>
</g>
</g>
<!-- Node2&#45;&gt;Node3 -->
<g id="edge2" class="edge">
<title>Node2&#45;&gt;Node3</title>
<path fill="none" stroke="midnightblue" d="M206.67,-57.72C177.79,-48.7 128.26,-33.24 94.14,-22.59"/>
<polygon fill="midnightblue" stroke="midnightblue" points="95.11,-19.23 84.52,-19.59 93.02,-25.91 95.11,-19.23"/>
</g>
<!-- Node4 -->
<g id="node4" class="node">
<title>Node4</title>
<g id="a_node4"><a xlink:title=" ">
<polygon fill="none" stroke="#bfbfbf" points="132,-0.5 132,-19.5 260,-19.5 260,-0.5 132,-0.5"/>
<text text-anchor="middle" x="196" y="-7.5" font-family="Helvetica,sans-Serif" font-size="10.00">AMReX_FluxRegister.H</text>
</a>
</g>
</g>
<!-- Node2&#45;&gt;Node4 -->
<g id="edge3" class="edge">
<title>Node2&#45;&gt;Node4</title>
<path fill="none" stroke="midnightblue" d="M224.39,-56.08C219.63,-48.53 212.68,-37.49 206.85,-28.23"/>
<polygon fill="midnightblue" stroke="midnightblue" points="209.8,-26.35 201.51,-19.75 203.88,-30.08 209.8,-26.35"/>
</g>
<!-- Node2&#45;&gt;Node5 -->
<g id="edge4" class="edge">
<title>Node2&#45;&gt;Node5</title>
<path fill="none" stroke="midnightblue" d="M243.5,-56.32C256.6,-47.9 276.71,-34.97 292.11,-25.07"/>
<polygon fill="midnightblue" stroke="midnightblue" points="294.02,-28.01 300.54,-19.65 290.23,-22.12 294.02,-28.01"/>
</g>
<!-- Node6&#45;&gt;Node5 -->
<g id="edge10" class="edge">
<title>Node6&#45;&gt;Node5</title>
<path fill="none" stroke="midnightblue" d="M408.01,-56.32C389.96,-47.62 361.95,-34.12 341.2,-24.11"/>
<polygon fill="midnightblue" stroke="midnightblue" points="342.48,-20.84 331.95,-19.65 339.44,-27.15 342.48,-20.84"/>
</g>
<!-- Node7 -->
<g id="node7" class="node">
<title>Node7</title>
<g id="a_node7"><a xlink:title=" ">
<polygon fill="none" stroke="#bfbfbf" points="367.5,-0.5 367.5,-19.5 484.5,-19.5 484.5,-0.5 367.5,-0.5"/>
<text text-anchor="middle" x="426" y="-7.5" font-family="Helvetica,sans-Serif" font-size="10.00">AMReX_FArrayBox.H</text>
</a>
</g>
</g>
<!-- Node6&#45;&gt;Node7 -->
<g id="edge7" class="edge">
<title>Node6&#45;&gt;Node7</title>
<path fill="none" stroke="midnightblue" d="M426,-56.08C426,-49.01 426,-38.86 426,-29.99"/>
<polygon fill="midnightblue" stroke="midnightblue" points="429.5,-29.75 426,-19.75 422.5,-29.75 429.5,-29.75"/>
</g>
<!-- Node8 -->
<g id="node8" class="node">
<title>Node8</title>
<g id="a_node8"><a xlink:title=" ">
<polygon fill="none" stroke="#bfbfbf" points="503,-0.5 503,-19.5 547,-19.5 547,-0.5 503,-0.5"/>
<text text-anchor="middle" x="525" y="-7.5" font-family="Helvetica,sans-Serif" font-size="10.00">limits</text>
</a>
</g>
</g>
<!-- Node6&#45;&gt;Node8 -->
<g id="edge8" class="edge">
<title>Node6&#45;&gt;Node8</title>
<path fill="none" stroke="midnightblue" d="M441.91,-56.32C457.64,-47.74 481.94,-34.49 500.21,-24.52"/>
<polygon fill="midnightblue" stroke="midnightblue" points="502.03,-27.52 509.13,-19.65 498.68,-21.37 502.03,-27.52"/>
</g>
<!-- Node9 -->
<g id="node9" class="node">
<title>Node9</title>
<g id="a_node9"><a xlink:title=" ">
<polygon fill="none" stroke="#bfbfbf" points="565.5,-0.5 565.5,-19.5 612.5,-19.5 612.5,-0.5 565.5,-0.5"/>
<text text-anchor="middle" x="589" y="-7.5" font-family="Helvetica,sans-Serif" font-size="10.00">cmath</text>
</a>
</g>
</g>
<!-- Node6&#45;&gt;Node9 -->
<g id="edge9" class="edge">
<title>Node6&#45;&gt;Node9</title>
<path fill="none" stroke="midnightblue" d="M451.83,-56.44C479.89,-47.15 524.83,-32.26 555.57,-22.07"/>
<polygon fill="midnightblue" stroke="midnightblue" points="557.02,-25.28 565.41,-18.82 554.82,-18.64 557.02,-25.28"/>
</g>
</g>
</svg>
