<?xml version="1.0" encoding="UTF-8" standalone="no"?>
<!DOCTYPE svg PUBLIC "-//W3C//DTD SVG 1.1//EN"
 "http://www.w3.org/Graphics/SVG/1.1/DTD/svg11.dtd">
<!-- Generated by graphviz version 2.43.0 (0)
 -->
<!-- Title: /media/monal/main/code/amrsolver1/src/tim/CNS_advance.cpp Pages: 1 -->
<svg width="483pt" height="218pt"
 viewBox="0.00 0.00 483.20 218.00" xmlns="http://www.w3.org/2000/svg" xmlns:xlink="http://www.w3.org/1999/xlink">
<g id="graph0" class="graph" transform="scale(1 1) rotate(0) translate(4 214)">
<title>/media/monal/main/code/amrsolver1/src/tim/CNS_advance.cpp</title>
<!-- Node1 -->
<g id="node1" class="node">
<title>Node1</title>
<g id="a_node1"><a xlink:title=" ">
<polygon fill="#bfbfbf" stroke="black" points="123.41,-168.5 123.41,-209.5 261.41,-209.5 261.41,-168.5 123.41,-168.5"/>
<text text-anchor="start" x="131.41" y="-197.5" font-family="Helvetica,sans-Serif" font-size="10.00">/media/monal/main/code</text>
<text text-anchor="start" x="131.41" y="-186.5" font-family="Helvetica,sans-Serif" font-size="10.00">/amrsolver1/src/tim/CNS</text>
<text text-anchor="middle" x="192.41" y="-175.5" font-family="Helvetica,sans-Serif" font-size="10.00">_advance.cpp</text>
</a>
</g>
</g>
<!-- Node2 -->
<g id="node2" class="node">
<title>Node2</title>
<g id="a_node2"><a xlink:href="CNS_8h.html" target="_top" xlink:title=" ">
<polygon fill="none" stroke="black" points="144.41,-56.5 144.41,-75.5 190.41,-75.5 190.41,-56.5 144.41,-56.5"/>
<text text-anchor="middle" x="167.41" y="-63.5" font-family="Helvetica,sans-Serif" font-size="10.00">CNS.h</text>
</a>
</g>
</g>
<!-- Node1&#45;&gt;Node2 -->
<g id="edge1" class="edge">
<title>Node1&#45;&gt;Node2</title>
<path fill="none" stroke="midnightblue" d="M171.76,-168.49C162.73,-158.54 153.14,-145.67 148.41,-132 142.96,-116.24 149.38,-97.99 156.19,-84.85"/>
<polygon fill="midnightblue" stroke="midnightblue" points="159.37,-86.34 161.29,-75.92 153.29,-82.87 159.37,-86.34"/>
</g>
<!-- Node4 -->
<g id="node4" class="node">
<title>Node4</title>
<g id="a_node4"><a xlink:title=" ">
<polygon fill="none" stroke="#bfbfbf" points="331.41,-0.5 331.41,-19.5 459.41,-19.5 459.41,-0.5 331.41,-0.5"/>
<text text-anchor="middle" x="395.41" y="-7.5" font-family="Helvetica,sans-Serif" font-size="10.00">AMReX_FluxRegister.H</text>
</a>
</g>
</g>
<!-- Node1&#45;&gt;Node4 -->
<g id="edge5" class="edge">
<title>Node1&#45;&gt;Node4</title>
<path fill="none" stroke="midnightblue" d="M261.73,-183.59C334.25,-177.37 441.04,-163.08 466.41,-132 494.73,-97.31 445.75,-50.04 415.9,-26.15"/>
<polygon fill="midnightblue" stroke="midnightblue" points="417.75,-23.16 407.71,-19.79 413.46,-28.69 417.75,-23.16"/>
</g>
<!-- Node5 -->
<g id="node5" class="node">
<title>Node5</title>
<g id="a_node5"><a xlink:title=" ">
<polygon fill="none" stroke="#bfbfbf" points="35.91,-0.5 35.91,-19.5 82.91,-19.5 82.91,-0.5 35.91,-0.5"/>
<text text-anchor="middle" x="59.41" y="-7.5" font-family="Helvetica,sans-Serif" font-size="10.00">prob.h</text>
</a>
</g>
</g>
<!-- Node1&#45;&gt;Node5 -->
<g id="edge9" class="edge">
<title>Node1&#45;&gt;Node5</title>
<path fill="none" stroke="midnightblue" d="M123.19,-186.24C82.75,-181.2 34.65,-167.41 8.41,-132 -16.34,-98.59 20.06,-51.37 43.04,-26.98"/>
<polygon fill="midnightblue" stroke="midnightblue" points="45.73,-29.23 50.21,-19.63 40.72,-24.34 45.73,-29.23"/>
</g>
<!-- Node6 -->
<g id="node6" class="node">
<title>Node6</title>
<g id="a_node6"><a xlink:href="CNS__hydro__K_8h.html" target="_top" xlink:title=" ">
<polygon fill="none" stroke="black" points="365.91,-112.5 365.91,-131.5 456.91,-131.5 456.91,-112.5 365.91,-112.5"/>
<text text-anchor="middle" x="411.41" y="-119.5" font-family="Helvetica,sans-Serif" font-size="10.00">CNS_hydro_K.h</text>
</a>
</g>
</g>
<!-- Node1&#45;&gt;Node6 -->
<g id="edge6" class="edge">
<title>Node1&#45;&gt;Node6</title>
<path fill="none" stroke="midnightblue" d="M258.12,-168.5C295.52,-157.4 341.08,-143.87 372.77,-134.47"/>
<polygon fill="midnightblue" stroke="midnightblue" points="373.95,-137.77 382.54,-131.57 371.96,-131.06 373.95,-137.77"/>
</g>
<!-- Node9 -->
<g id="node9" class="node">
<title>Node9</title>
<g id="a_node9"><a xlink:href="CentralKEEP_8h.html" target="_top" xlink:title=" ">
<polygon fill="none" stroke="black" points="17.41,-112.5 17.41,-131.5 101.41,-131.5 101.41,-112.5 17.41,-112.5"/>
<text text-anchor="middle" x="59.41" y="-119.5" font-family="Helvetica,sans-Serif" font-size="10.00">CentralKEEP.h</text>
</a>
</g>
</g>
<!-- Node1&#45;&gt;Node9 -->
<g id="edge10" class="edge">
<title>Node1&#45;&gt;Node9</title>
<path fill="none" stroke="midnightblue" d="M152.5,-168.5C131.03,-158.01 105.14,-145.35 86.11,-136.05"/>
<polygon fill="midnightblue" stroke="midnightblue" points="87.63,-132.9 77.11,-131.65 84.56,-139.19 87.63,-132.9"/>
</g>
<!-- Node10 -->
<g id="node10" class="node">
<title>Node10</title>
<g id="a_node10"><a xlink:href="Riemann_8h.html" target="_top" xlink:title=" ">
<polygon fill="none" stroke="black" points="157.91,-112.5 157.91,-131.5 226.91,-131.5 226.91,-112.5 157.91,-112.5"/>
<text text-anchor="middle" x="192.41" y="-119.5" font-family="Helvetica,sans-Serif" font-size="10.00">Riemann.h</text>
</a>
</g>
</g>
<!-- Node1&#45;&gt;Node10 -->
<g id="edge14" class="edge">
<title>Node1&#45;&gt;Node10</title>
<path fill="none" stroke="midnightblue" d="M192.41,-168.5C192.41,-160.07 192.41,-150.24 192.41,-141.87"/>
<polygon fill="midnightblue" stroke="midnightblue" points="195.91,-141.65 192.41,-131.65 188.91,-141.65 195.91,-141.65"/>
</g>
<!-- Node11 -->
<g id="node11" class="node">
<title>Node11</title>
<g id="a_node11"><a xlink:href="High__resolution_8h.html" target="_top" xlink:title=" ">
<polygon fill="none" stroke="black" points="245.41,-112.5 245.41,-131.5 347.41,-131.5 347.41,-112.5 245.41,-112.5"/>
<text text-anchor="middle" x="296.41" y="-119.5" font-family="Helvetica,sans-Serif" font-size="10.00">High_resolution.h</text>
</a>
</g>
</g>
<!-- Node1&#45;&gt;Node11 -->
<g id="edge17" class="edge">
<title>Node1&#45;&gt;Node11</title>
<path fill="none" stroke="midnightblue" d="M223.61,-168.5C239.71,-158.44 258.99,-146.38 273.67,-137.21"/>
<polygon fill="midnightblue" stroke="midnightblue" points="275.94,-139.92 282.56,-131.65 272.23,-133.98 275.94,-139.92"/>
</g>
<!-- Node3 -->
<g id="node3" class="node">
<title>Node3</title>
<g id="a_node3"><a xlink:title=" ">
<polygon fill="none" stroke="#bfbfbf" points="110.41,-0.5 110.41,-19.5 224.41,-19.5 224.41,-0.5 110.41,-0.5"/>
<text text-anchor="middle" x="167.41" y="-7.5" font-family="Helvetica,sans-Serif" font-size="10.00">AMReX_AmrLevel.H</text>
</a>
</g>
</g>
<!-- Node2&#45;&gt;Node3 -->
<g id="edge2" class="edge">
<title>Node2&#45;&gt;Node3</title>
<path fill="none" stroke="midnightblue" d="M167.41,-56.08C167.41,-49.01 167.41,-38.86 167.41,-29.99"/>
<polygon fill="midnightblue" stroke="midnightblue" points="170.91,-29.75 167.41,-19.75 163.91,-29.75 170.91,-29.75"/>
</g>
<!-- Node2&#45;&gt;Node4 -->
<g id="edge3" class="edge">
<title>Node2&#45;&gt;Node4</title>
<path fill="none" stroke="midnightblue" d="M190.53,-59.53C227.62,-50.74 301.16,-33.32 349.3,-21.92"/>
<polygon fill="midnightblue" stroke="midnightblue" points="350.24,-25.3 359.16,-19.59 348.62,-18.48 350.24,-25.3"/>
</g>
<!-- Node2&#45;&gt;Node5 -->
<g id="edge4" class="edge">
<title>Node2&#45;&gt;Node5</title>
<path fill="none" stroke="midnightblue" d="M150.06,-56.32C132.74,-47.66 105.89,-34.24 85.91,-24.25"/>
<polygon fill="midnightblue" stroke="midnightblue" points="87.23,-21 76.72,-19.65 84.1,-27.26 87.23,-21"/>
</g>
<!-- Node7 -->
<g id="node7" class="node">
<title>Node7</title>
<g id="a_node7"><a xlink:title=" ">
<polygon fill="none" stroke="#bfbfbf" points="218.91,-56.5 218.91,-75.5 335.91,-75.5 335.91,-56.5 218.91,-56.5"/>
<text text-anchor="middle" x="277.41" y="-63.5" font-family="Helvetica,sans-Serif" font-size="10.00">AMReX_FArrayBox.H</text>
</a>
</g>
</g>
<!-- Node6&#45;&gt;Node7 -->
<g id="edge7" class="edge">
<title>Node6&#45;&gt;Node7</title>
<path fill="none" stroke="midnightblue" d="M390.18,-112.44C368.02,-103.52 333.09,-89.44 307.97,-79.32"/>
<polygon fill="midnightblue" stroke="midnightblue" points="309.13,-76.01 298.54,-75.52 306.51,-82.5 309.13,-76.01"/>
</g>
<!-- Node8 -->
<g id="node8" class="node">
<title>Node8</title>
<g id="a_node8"><a xlink:title=" ">
<polygon fill="none" stroke="#bfbfbf" points="387.91,-56.5 387.91,-75.5 434.91,-75.5 434.91,-56.5 387.91,-56.5"/>
<text text-anchor="middle" x="411.41" y="-63.5" font-family="Helvetica,sans-Serif" font-size="10.00">cmath</text>
</a>
</g>
</g>
<!-- Node6&#45;&gt;Node8 -->
<g id="edge8" class="edge">
<title>Node6&#45;&gt;Node8</title>
<path fill="none" stroke="midnightblue" d="M411.41,-112.08C411.41,-105.01 411.41,-94.86 411.41,-85.99"/>
<polygon fill="midnightblue" stroke="midnightblue" points="414.91,-85.75 411.41,-75.75 407.91,-85.75 414.91,-85.75"/>
</g>
<!-- Node9&#45;&gt;Node2 -->
<g id="edge11" class="edge">
<title>Node9&#45;&gt;Node2</title>
<path fill="none" stroke="midnightblue" d="M76.76,-112.32C94.08,-103.66 120.92,-90.24 140.91,-80.25"/>
<polygon fill="midnightblue" stroke="midnightblue" points="142.72,-83.26 150.1,-75.65 139.59,-77 142.72,-83.26"/>
</g>
<!-- Node9&#45;&gt;Node5 -->
<g id="edge13" class="edge">
<title>Node9&#45;&gt;Node5</title>
<path fill="none" stroke="midnightblue" d="M59.41,-112.37C59.41,-94.62 59.41,-53.67 59.41,-29.6"/>
<polygon fill="midnightblue" stroke="midnightblue" points="62.91,-29.59 59.41,-19.59 55.91,-29.59 62.91,-29.59"/>
</g>
<!-- Node9&#45;&gt;Node7 -->
<g id="edge12" class="edge">
<title>Node9&#45;&gt;Node7</title>
<path fill="none" stroke="midnightblue" d="M93.95,-112.44C131.66,-103.1 192.15,-88.12 233.27,-77.93"/>
<polygon fill="midnightblue" stroke="midnightblue" points="234.16,-81.32 243.03,-75.52 232.48,-74.52 234.16,-81.32"/>
</g>
<!-- Node10&#45;&gt;Node2 -->
<g id="edge15" class="edge">
<title>Node10&#45;&gt;Node2</title>
<path fill="none" stroke="midnightblue" d="M188.28,-112.08C184.89,-104.77 179.99,-94.18 175.79,-85.1"/>
<polygon fill="midnightblue" stroke="midnightblue" points="178.84,-83.36 171.46,-75.75 172.49,-86.3 178.84,-83.36"/>
</g>
<!-- Node10&#45;&gt;Node7 -->
<g id="edge16" class="edge">
<title>Node10&#45;&gt;Node7</title>
<path fill="none" stroke="midnightblue" d="M206.07,-112.32C219.32,-103.9 239.68,-90.97 255.25,-81.07"/>
<polygon fill="midnightblue" stroke="midnightblue" points="257.22,-83.97 263.79,-75.65 253.47,-78.06 257.22,-83.97"/>
</g>
<!-- Node11&#45;&gt;Node2 -->
<g id="edge18" class="edge">
<title>Node11&#45;&gt;Node2</title>
<path fill="none" stroke="midnightblue" d="M275.97,-112.44C254.74,-103.56 221.31,-89.56 197.15,-79.45"/>
<polygon fill="midnightblue" stroke="midnightblue" points="198.33,-76.15 187.75,-75.52 195.63,-82.61 198.33,-76.15"/>
</g>
<!-- Node11&#45;&gt;Node7 -->
<g id="edge19" class="edge">
<title>Node11&#45;&gt;Node7</title>
<path fill="none" stroke="midnightblue" d="M293.27,-112.08C290.73,-104.85 287.05,-94.41 283.88,-85.4"/>
<polygon fill="midnightblue" stroke="midnightblue" points="287.11,-84.02 280.49,-75.75 280.51,-86.35 287.11,-84.02"/>
</g>
</g>
</svg>
