<?xml version="1.0" encoding="UTF-8" standalone="no"?>
<!DOCTYPE svg PUBLIC "-//W3C//DTD SVG 1.1//EN"
 "http://www.w3.org/Graphics/SVG/1.1/DTD/svg11.dtd">
<!-- Generated by graphviz version 2.43.0 (0)
 -->
<!-- Title: /media/monal/main/code/amrsolver1/src/ibm/IBM.cpp Pages: 1 -->
<svg width="2371pt" height="184pt"
 viewBox="0.00 0.00 2371.00 184.00" xmlns="http://www.w3.org/2000/svg" xmlns:xlink="http://www.w3.org/1999/xlink">
<g id="graph0" class="graph" transform="scale(1 1) rotate(0) translate(4 180)">
<title>/media/monal/main/code/amrsolver1/src/ibm/IBM.cpp</title>
<!-- Node1 -->
<g id="node1" class="node">
<title>Node1</title>
<g id="a_node1"><a xlink:title=" ">
<polygon fill="#bfbfbf" stroke="black" points="1101.5,-145.5 1101.5,-175.5 1257.5,-175.5 1257.5,-145.5 1101.5,-145.5"/>
<text text-anchor="start" x="1109.5" y="-163.5" font-family="Helvetica,sans-Serif" font-size="10.00">/media/monal/main/code</text>
<text text-anchor="middle" x="1179.5" y="-152.5" font-family="Helvetica,sans-Serif" font-size="10.00">/amrsolver1/src/ibm/IBM.cpp</text>
</a>
</g>
</g>
<!-- Node2 -->
<g id="node2" class="node">
<title>Node2</title>
<g id="a_node2"><a xlink:href="IBM_8h.html" target="_top" xlink:title=" ">
<polygon fill="none" stroke="black" points="1054.5,-84 1054.5,-103 1098.5,-103 1098.5,-84 1054.5,-84"/>
<text text-anchor="middle" x="1076.5" y="-91" font-family="Helvetica,sans-Serif" font-size="10.00">IBM.h</text>
</a>
</g>
</g>
<!-- Node1&#45;&gt;Node2 -->
<g id="edge1" class="edge">
<title>Node1&#45;&gt;Node2</title>
<path fill="none" stroke="midnightblue" d="M1157.15,-145.4C1139.88,-134.5 1116.08,-119.48 1098.82,-108.58"/>
<polygon fill="midnightblue" stroke="midnightblue" points="1100.31,-105.38 1089.98,-103.01 1096.57,-111.3 1100.31,-105.38"/>
</g>
<!-- Node20 -->
<g id="node20" class="node">
<title>Node20</title>
<g id="a_node20"><a xlink:title=" ">
<polygon fill="none" stroke="#bfbfbf" points="1117,-78.5 1117,-108.5 1242,-108.5 1242,-78.5 1117,-78.5"/>
<text text-anchor="start" x="1125" y="-96.5" font-family="Helvetica,sans-Serif" font-size="10.00">CGAL/Side_of_triangle</text>
<text text-anchor="middle" x="1179.5" y="-85.5" font-family="Helvetica,sans-Serif" font-size="10.00">_mesh.h</text>
</a>
</g>
</g>
<!-- Node1&#45;&gt;Node20 -->
<g id="edge19" class="edge">
<title>Node1&#45;&gt;Node20</title>
<path fill="none" stroke="midnightblue" d="M1179.5,-145.4C1179.5,-137.64 1179.5,-127.81 1179.5,-118.86"/>
<polygon fill="midnightblue" stroke="midnightblue" points="1183,-118.58 1179.5,-108.58 1176,-118.58 1183,-118.58"/>
</g>
<!-- Node21 -->
<g id="node21" class="node">
<title>Node21</title>
<g id="a_node21"><a xlink:title=" ">
<polygon fill="none" stroke="#bfbfbf" points="1260,-84 1260,-103 1379,-103 1379,-84 1260,-84"/>
<text text-anchor="middle" x="1319.5" y="-91" font-family="Helvetica,sans-Serif" font-size="10.00">AMReX_ParmParse.H</text>
</a>
</g>
</g>
<!-- Node1&#45;&gt;Node21 -->
<g id="edge20" class="edge">
<title>Node1&#45;&gt;Node21</title>
<path fill="none" stroke="midnightblue" d="M1209.88,-145.4C1234.33,-134.04 1268.41,-118.22 1292.05,-107.24"/>
<polygon fill="midnightblue" stroke="midnightblue" points="1293.58,-110.39 1301.18,-103.01 1290.63,-104.04 1293.58,-110.39"/>
</g>
<!-- Node3 -->
<g id="node3" class="node">
<title>Node3</title>
<g id="a_node3"><a xlink:title=" ">
<polygon fill="none" stroke="#bfbfbf" points="0,-11.5 0,-30.5 87,-30.5 87,-11.5 0,-11.5"/>
<text text-anchor="middle" x="43.5" y="-18.5" font-family="Helvetica,sans-Serif" font-size="10.00">AMReX_Amr.H</text>
</a>
</g>
</g>
<!-- Node2&#45;&gt;Node3 -->
<g id="edge2" class="edge">
<title>Node2&#45;&gt;Node3</title>
<path fill="none" stroke="midnightblue" d="M1054.16,-92.28C926.5,-90.91 288.27,-82.11 96.5,-42 88.24,-40.27 79.57,-37.46 71.68,-34.48"/>
<polygon fill="midnightblue" stroke="midnightblue" points="72.79,-31.15 62.21,-30.68 70.19,-37.65 72.79,-31.15"/>
</g>
<!-- Node4 -->
<g id="node4" class="node">
<title>Node4</title>
<g id="a_node4"><a xlink:title=" ">
<polygon fill="none" stroke="#bfbfbf" points="105.5,-11.5 105.5,-30.5 219.5,-30.5 219.5,-11.5 105.5,-11.5"/>
<text text-anchor="middle" x="162.5" y="-18.5" font-family="Helvetica,sans-Serif" font-size="10.00">AMReX_AmrLevel.H</text>
</a>
</g>
</g>
<!-- Node2&#45;&gt;Node4 -->
<g id="edge3" class="edge">
<title>Node2&#45;&gt;Node4</title>
<path fill="none" stroke="midnightblue" d="M1054.23,-91.88C937.35,-88.53 394.01,-71.58 228.5,-42 217.6,-40.05 205.97,-36.9 195.55,-33.67"/>
<polygon fill="midnightblue" stroke="midnightblue" points="196.59,-30.33 186,-30.59 194.44,-36.99 196.59,-30.33"/>
</g>
<!-- Node5 -->
<g id="node5" class="node">
<title>Node5</title>
<g id="a_node5"><a xlink:title=" ">
<polygon fill="none" stroke="#bfbfbf" points="238,-11.5 238,-30.5 347,-30.5 347,-11.5 238,-11.5"/>
<text text-anchor="middle" x="292.5" y="-18.5" font-family="Helvetica,sans-Serif" font-size="10.00">AMReX_FabArray.H</text>
</a>
</g>
</g>
<!-- Node2&#45;&gt;Node5 -->
<g id="edge4" class="edge">
<title>Node2&#45;&gt;Node5</title>
<path fill="none" stroke="midnightblue" d="M1054.43,-92.85C965.77,-93.86 627.27,-93.89 355.5,-42 345.29,-40.05 334.43,-36.98 324.64,-33.82"/>
<polygon fill="midnightblue" stroke="midnightblue" points="325.5,-30.42 314.91,-30.54 323.27,-37.05 325.5,-30.42"/>
</g>
<!-- Node6 -->
<g id="node6" class="node">
<title>Node6</title>
<g id="a_node6"><a xlink:title=" ">
<polygon fill="none" stroke="#bfbfbf" points="365,-11.5 365,-30.5 466,-30.5 466,-11.5 365,-11.5"/>
<text text-anchor="middle" x="415.5" y="-18.5" font-family="Helvetica,sans-Serif" font-size="10.00">AMReX_IntVect.H</text>
</a>
</g>
</g>
<!-- Node2&#45;&gt;Node6 -->
<g id="edge5" class="edge">
<title>Node2&#45;&gt;Node6</title>
<path fill="none" stroke="midnightblue" d="M1054.4,-92.53C975.14,-92.23 698.06,-87.76 475.5,-42 465.94,-40.03 455.79,-37.02 446.61,-33.93"/>
<polygon fill="midnightblue" stroke="midnightblue" points="447.7,-30.6 437.1,-30.59 445.37,-37.21 447.7,-30.6"/>
</g>
<!-- Node7 -->
<g id="node7" class="node">
<title>Node7</title>
<g id="a_node7"><a xlink:title=" ">
<polygon fill="none" stroke="#bfbfbf" points="484.5,-11.5 484.5,-30.5 584.5,-30.5 584.5,-11.5 484.5,-11.5"/>
<text text-anchor="middle" x="534.5" y="-18.5" font-family="Helvetica,sans-Serif" font-size="10.00">AMReX_Derive.H</text>
</a>
</g>
</g>
<!-- Node2&#45;&gt;Node7 -->
<g id="edge6" class="edge">
<title>Node2&#45;&gt;Node7</title>
<path fill="none" stroke="midnightblue" d="M1054.07,-91.92C984.76,-89.77 768.11,-80.22 593.5,-42 584.29,-39.98 574.51,-37.02 565.61,-33.99"/>
<polygon fill="midnightblue" stroke="midnightblue" points="566.62,-30.63 556.03,-30.59 564.28,-37.23 566.62,-30.63"/>
</g>
<!-- Node8 -->
<g id="node8" class="node">
<title>Node8</title>
<g id="a_node8"><a xlink:title=" ">
<polygon fill="none" stroke="#bfbfbf" points="603,-11.5 603,-30.5 746,-30.5 746,-11.5 603,-11.5"/>
<text text-anchor="middle" x="674.5" y="-18.5" font-family="Helvetica,sans-Serif" font-size="10.00">AMReX_StateDescriptor.H</text>
</a>
</g>
</g>
<!-- Node2&#45;&gt;Node8 -->
<g id="edge7" class="edge">
<title>Node2&#45;&gt;Node8</title>
<path fill="none" stroke="midnightblue" d="M1054.2,-89.66C1001.82,-82.86 866.93,-64.48 755.5,-42 742.62,-39.4 728.69,-36.13 716.08,-32.99"/>
<polygon fill="midnightblue" stroke="midnightblue" points="716.84,-29.58 706.29,-30.52 715.13,-36.36 716.84,-29.58"/>
</g>
<!-- Node9 -->
<g id="node9" class="node">
<title>Node9</title>
<g id="a_node9"><a xlink:title=" ">
<polygon fill="none" stroke="#bfbfbf" points="764.5,-11.5 764.5,-30.5 904.5,-30.5 904.5,-11.5 764.5,-11.5"/>
<text text-anchor="middle" x="834.5" y="-18.5" font-family="Helvetica,sans-Serif" font-size="10.00">AMReX_GpuContainers.H</text>
</a>
</g>
</g>
<!-- Node2&#45;&gt;Node9 -->
<g id="edge8" class="edge">
<title>Node2&#45;&gt;Node9</title>
<path fill="none" stroke="midnightblue" d="M1054.17,-85.99C1013.03,-74.01 924.82,-48.31 873.57,-33.38"/>
<polygon fill="midnightblue" stroke="midnightblue" points="874.42,-29.98 863.84,-30.55 872.46,-36.71 874.42,-29.98"/>
</g>
<!-- Node10 -->
<g id="node10" class="node">
<title>Node10</title>
<g id="a_node10"><a xlink:title=" ">
<polygon fill="none" stroke="#bfbfbf" points="923,-11.5 923,-30.5 994,-30.5 994,-11.5 923,-11.5"/>
<text text-anchor="middle" x="958.5" y="-18.5" font-family="Helvetica,sans-Serif" font-size="10.00">cns_prob.H</text>
</a>
</g>
</g>
<!-- Node2&#45;&gt;Node10 -->
<g id="edge9" class="edge">
<title>Node2&#45;&gt;Node10</title>
<path fill="none" stroke="midnightblue" d="M1062.03,-83.86C1042.04,-71.91 1005.73,-50.22 981.87,-35.96"/>
<polygon fill="midnightblue" stroke="midnightblue" points="983.47,-32.84 973.09,-30.72 979.88,-38.85 983.47,-32.84"/>
</g>
<!-- Node11 -->
<g id="node11" class="node">
<title>Node11</title>
<g id="a_node11"><a xlink:title=" ">
<polygon fill="none" stroke="#bfbfbf" points="1012,-0.5 1012,-41.5 1141,-41.5 1141,-0.5 1012,-0.5"/>
<text text-anchor="start" x="1020" y="-29.5" font-family="Helvetica,sans-Serif" font-size="10.00">CGAL/Exact_predicates</text>
<text text-anchor="start" x="1020" y="-18.5" font-family="Helvetica,sans-Serif" font-size="10.00">_inexact_constructions</text>
<text text-anchor="middle" x="1076.5" y="-7.5" font-family="Helvetica,sans-Serif" font-size="10.00">_kernel.h</text>
</a>
</g>
</g>
<!-- Node2&#45;&gt;Node11 -->
<g id="edge10" class="edge">
<title>Node2&#45;&gt;Node11</title>
<path fill="none" stroke="midnightblue" d="M1076.5,-83.86C1076.5,-75.86 1076.5,-63.5 1076.5,-51.92"/>
<polygon fill="midnightblue" stroke="midnightblue" points="1080,-51.66 1076.5,-41.66 1073,-51.66 1080,-51.66"/>
</g>
<!-- Node12 -->
<g id="node12" class="node">
<title>Node12</title>
<g id="a_node12"><a xlink:title=" ">
<polygon fill="none" stroke="#bfbfbf" points="1159,-11.5 1159,-30.5 1280,-30.5 1280,-11.5 1159,-11.5"/>
<text text-anchor="middle" x="1219.5" y="-18.5" font-family="Helvetica,sans-Serif" font-size="10.00">CGAL/Polyhedron_3.h</text>
</a>
</g>
</g>
<!-- Node2&#45;&gt;Node12 -->
<g id="edge11" class="edge">
<title>Node2&#45;&gt;Node12</title>
<path fill="none" stroke="midnightblue" d="M1093.75,-84C1118.44,-71.82 1164.08,-49.32 1193.06,-35.04"/>
<polygon fill="midnightblue" stroke="midnightblue" points="1194.77,-38.1 1202.19,-30.53 1191.67,-31.82 1194.77,-38.1"/>
</g>
<!-- Node13 -->
<g id="node13" class="node">
<title>Node13</title>
<g id="a_node13"><a xlink:title=" ">
<polygon fill="none" stroke="#bfbfbf" points="1298,-6 1298,-36 1473,-36 1473,-6 1298,-6"/>
<text text-anchor="start" x="1306" y="-24" font-family="Helvetica,sans-Serif" font-size="10.00">CGAL/Polygon_mesh_processing</text>
<text text-anchor="middle" x="1385.5" y="-13" font-family="Helvetica,sans-Serif" font-size="10.00">/IO/polygon_mesh_io.h</text>
</a>
</g>
</g>
<!-- Node2&#45;&gt;Node13 -->
<g id="edge12" class="edge">
<title>Node2&#45;&gt;Node13</title>
<path fill="none" stroke="midnightblue" d="M1093.49,-83.93C1098.26,-81.77 1103.51,-79.6 1108.5,-78 1186.59,-52.91 1209.13,-58.36 1289.5,-42 1295.69,-40.74 1302.09,-39.43 1308.53,-38.1"/>
<polygon fill="midnightblue" stroke="midnightblue" points="1309.55,-41.46 1318.64,-36.01 1308.14,-34.61 1309.55,-41.46"/>
</g>
<!-- Node14 -->
<g id="node14" class="node">
<title>Node14</title>
<g id="a_node14"><a xlink:title=" ">
<polygon fill="none" stroke="#bfbfbf" points="1491,-11.5 1491,-30.5 1630,-30.5 1630,-11.5 1491,-11.5"/>
<text text-anchor="middle" x="1560.5" y="-18.5" font-family="Helvetica,sans-Serif" font-size="10.00">CGAL/Simple_cartesian.h</text>
</a>
</g>
</g>
<!-- Node2&#45;&gt;Node14 -->
<g id="edge13" class="edge">
<title>Node2&#45;&gt;Node14</title>
<path fill="none" stroke="midnightblue" d="M1092.73,-83.9C1097.67,-81.63 1103.2,-79.41 1108.5,-78 1269.85,-34.96 1318.02,-70.82 1482.5,-42 1495.3,-39.76 1509.09,-36.5 1521.47,-33.27"/>
<polygon fill="midnightblue" stroke="midnightblue" points="1522.72,-36.56 1531.47,-30.59 1520.91,-29.8 1522.72,-36.56"/>
</g>
<!-- Node15 -->
<g id="node15" class="node">
<title>Node15</title>
<g id="a_node15"><a xlink:title=" ">
<polygon fill="none" stroke="#bfbfbf" points="1648,-11.5 1648,-30.5 1755,-30.5 1755,-11.5 1648,-11.5"/>
<text text-anchor="middle" x="1701.5" y="-18.5" font-family="Helvetica,sans-Serif" font-size="10.00">CGAL/AABB_tree.h</text>
</a>
</g>
</g>
<!-- Node2&#45;&gt;Node15 -->
<g id="edge14" class="edge">
<title>Node2&#45;&gt;Node15</title>
<path fill="none" stroke="midnightblue" d="M1092.37,-83.96C1097.4,-81.63 1103.06,-79.37 1108.5,-78 1337.89,-20.26 1407.21,-86.64 1639.5,-42 1649.56,-40.07 1660.26,-37 1669.88,-33.84"/>
<polygon fill="midnightblue" stroke="midnightblue" points="1671.13,-37.11 1679.46,-30.56 1668.87,-30.49 1671.13,-37.11"/>
</g>
<!-- Node16 -->
<g id="node16" class="node">
<title>Node16</title>
<g id="a_node16"><a xlink:title=" ">
<polygon fill="none" stroke="#bfbfbf" points="1773,-11.5 1773,-30.5 1886,-30.5 1886,-11.5 1773,-11.5"/>
<text text-anchor="middle" x="1829.5" y="-18.5" font-family="Helvetica,sans-Serif" font-size="10.00">CGAL/AABB_traits.h</text>
</a>
</g>
</g>
<!-- Node2&#45;&gt;Node16 -->
<g id="edge15" class="edge">
<title>Node2&#45;&gt;Node16</title>
<path fill="none" stroke="midnightblue" d="M1092.36,-83.92C1097.38,-81.58 1103.05,-79.33 1108.5,-78 1392.12,-8.55 1477.05,-93.32 1764.5,-42 1775.22,-40.09 1786.66,-36.95 1796.9,-33.73"/>
<polygon fill="midnightblue" stroke="midnightblue" points="1798.27,-36.97 1806.67,-30.52 1796.08,-30.32 1798.27,-36.97"/>
</g>
<!-- Node17 -->
<g id="node17" class="node">
<title>Node17</title>
<g id="a_node17"><a xlink:title=" ">
<polygon fill="none" stroke="#bfbfbf" points="1904.5,-6 1904.5,-36 2036.5,-36 2036.5,-6 1904.5,-6"/>
<text text-anchor="start" x="1912.5" y="-24" font-family="Helvetica,sans-Serif" font-size="10.00">CGAL/AABB_face_graph</text>
<text text-anchor="middle" x="1970.5" y="-13" font-family="Helvetica,sans-Serif" font-size="10.00">_triangle_primitive.h</text>
</a>
</g>
</g>
<!-- Node2&#45;&gt;Node17 -->
<g id="edge16" class="edge">
<title>Node2&#45;&gt;Node17</title>
<path fill="none" stroke="midnightblue" d="M1092.35,-83.88C1097.38,-81.55 1103.04,-79.31 1108.5,-78 1448.97,3.73 1549.46,-95.42 1895.5,-42 1901.62,-41.06 1907.96,-39.81 1914.24,-38.39"/>
<polygon fill="midnightblue" stroke="midnightblue" points="1915.11,-41.78 1924.02,-36.05 1913.48,-34.97 1915.11,-41.78"/>
</g>
<!-- Node18 -->
<g id="node18" class="node">
<title>Node18</title>
<g id="a_node18"><a xlink:title=" ">
<polygon fill="none" stroke="#bfbfbf" points="2055,-6 2055,-36 2230,-36 2230,-6 2055,-6"/>
<text text-anchor="start" x="2063" y="-24" font-family="Helvetica,sans-Serif" font-size="10.00">CGAL/Polygon_mesh_processing</text>
<text text-anchor="middle" x="2142.5" y="-13" font-family="Helvetica,sans-Serif" font-size="10.00">/compute_normal.h</text>
</a>
</g>
</g>
<!-- Node2&#45;&gt;Node18 -->
<g id="edge17" class="edge">
<title>Node2&#45;&gt;Node18</title>
<path fill="none" stroke="midnightblue" d="M1092.35,-83.86C1097.37,-81.53 1103.04,-79.29 1108.5,-78 1311.3,-30.1 1838.64,-67.12 2045.5,-42 2054.18,-40.95 2063.24,-39.52 2072.19,-37.91"/>
<polygon fill="midnightblue" stroke="midnightblue" points="2073.03,-41.32 2082.21,-36.03 2071.74,-34.44 2073.03,-41.32"/>
</g>
<!-- Node19 -->
<g id="node19" class="node">
<title>Node19</title>
<g id="a_node19"><a xlink:title=" ">
<polygon fill="none" stroke="#bfbfbf" points="2248,-6 2248,-36 2363,-36 2363,-6 2248,-6"/>
<text text-anchor="start" x="2256" y="-24" font-family="Helvetica,sans-Serif" font-size="10.00">boost/property_map</text>
<text text-anchor="middle" x="2305.5" y="-13" font-family="Helvetica,sans-Serif" font-size="10.00">/property_map.hpp</text>
</a>
</g>
</g>
<!-- Node2&#45;&gt;Node19 -->
<g id="edge18" class="edge">
<title>Node2&#45;&gt;Node19</title>
<path fill="none" stroke="midnightblue" d="M1092.02,-83.99C1097.12,-81.6 1102.92,-79.3 1108.5,-78 1353.42,-21.01 1991.37,-82.81 2239.5,-42 2244.61,-41.16 2249.88,-40.03 2255.11,-38.74"/>
<polygon fill="midnightblue" stroke="midnightblue" points="2256.3,-42.04 2265.06,-36.08 2254.49,-35.28 2256.3,-42.04"/>
</g>
</g>
</svg>
