<?xml version="1.0" encoding="UTF-8" standalone="no"?>
<!DOCTYPE svg PUBLIC "-//W3C//DTD SVG 1.1//EN"
 "http://www.w3.org/Graphics/SVG/1.1/DTD/svg11.dtd">
<!-- Generated by graphviz version 2.43.0 (0)
 -->
<!-- Title: /media/monal/main/code/amrsolver1/src/ibm/IBM.h Pages: 1 -->
<!--zoomable 117 -->
<svg id="main" version="1.1" xmlns="http://www.w3.org/2000/svg" xmlns:xlink="http://www.w3.org/1999/xlink" xml:space="preserve" onload="init(evt)">
<style type="text/css"><![CDATA[
.edge:hover path { stroke: red; }
.edge:hover polygon { stroke: red; fill: red; }
]]></style>
<script type="text/javascript"><![CDATA[
var edges = document.getElementsByTagName('g');
if (edges && edges.length) {
  for (var i=0;i<edges.length;i++) {
    if (edges[i].id.substr(0,4)=='edge') {
      edges[i].setAttribute('class','edge');
    }
  }
}
]]></script>
        <defs>
                <circle id="rim" cx="0" cy="0" r="7"/>
                <circle id="rim2" cx="0" cy="0" r="3.5"/>
                <g id="zoomPlus">
                        <use xlink:href="#rim" fill="#404040">
                                <set attributeName="fill" to="#808080" begin="zoomplus.mouseover" end="zoomplus.mouseout"/>
                        </use>
                        <path d="M-4,0h8M0,-4v8" fill="none" stroke="white" stroke-width="1.5" pointer-events="none"/>
                </g>
                <g id="zoomMin">
                        <use xlink:href="#rim" fill="#404040">
                                <set attributeName="fill" to="#808080" begin="zoomminus.mouseover" end="zoomminus.mouseout"/>
                        </use>
                        <path d="M-4,0h8" fill="none" stroke="white" stroke-width="1.5" pointer-events="none"/>
                </g>
                <g id="dirArrow">
                        <path fill="none" stroke="white" stroke-width="1.5" d="M0,-3.0v7 M-2.5,-0.5L0,-3.0L2.5,-0.5"/>
                </g>
               <g id="resetDef">
                       <use xlink:href="#rim2" fill="#404040">
                               <set attributeName="fill" to="#808080" begin="reset.mouseover" end="reset.mouseout"/>
                       </use>
               </g>
        </defs>

<script type="text/javascript">
var viewWidth = 2490;
var viewHeight = 117;
var sectionId = 'dynsection-0';
</script>
<script xlink:href="svgpan.js"/>
<svg id="graph" class="graph">
<g id="viewport">
<title>/media/monal/main/code/amrsolver1/src/ibm/IBM.h</title>
<!-- Node1 -->
<g id="node1" class="node">
<title>Node1</title>
<g id="a_node1"><a xlink:title=" ">
<polygon fill="#bfbfbf" stroke="black" points="1051,-78.5 1051,-108.5 1196,-108.5 1196,-78.5 1051,-78.5"/>
<text text-anchor="start" x="1059" y="-96.5" font-family="Helvetica,sans-Serif" font-size="10.00">/media/monal/main/code</text>
<text text-anchor="middle" x="1123.5" y="-85.5" font-family="Helvetica,sans-Serif" font-size="10.00">/amrsolver1/src/ibm/IBM.h</text>
</a>
</g>
</g>
<!-- Node2 -->
<g id="node2" class="node">
<title>Node2</title>
<g id="a_node2"><a xlink:title=" ">
<polygon fill="none" stroke="#bfbfbf" points="0,-11.5 0,-30.5 87,-30.5 87,-11.5 0,-11.5"/>
<text text-anchor="middle" x="43.5" y="-18.5" font-family="Helvetica,sans-Serif" font-size="10.00">AMReX_Amr.H</text>
</a>
</g>
</g>
<!-- Node1&#45;&gt;Node2 -->
<g id="edge1" class="edge">
<title>Node1&#45;&gt;Node2</title>
<path fill="none" stroke="midnightblue" d="M1050.83,-91.86C848.08,-89.6 279.14,-79.97 96.5,-42 88.24,-40.28 79.57,-37.47 71.68,-34.49"/>
<polygon fill="midnightblue" stroke="midnightblue" points="72.79,-31.16 62.21,-30.7 70.19,-37.66 72.79,-31.16"/>
</g>
<!-- Node3 -->
<g id="node3" class="node">
<title>Node3</title>
<g id="a_node3"><a xlink:title=" ">
<polygon fill="none" stroke="#bfbfbf" points="105.5,-11.5 105.5,-30.5 219.5,-30.5 219.5,-11.5 105.5,-11.5"/>
<text text-anchor="middle" x="162.5" y="-18.5" font-family="Helvetica,sans-Serif" font-size="10.00">AMReX_AmrLevel.H</text>
</a>
</g>
</g>
<!-- Node1&#45;&gt;Node3 -->
<g id="edge2" class="edge">
<title>Node1&#45;&gt;Node3</title>
<path fill="none" stroke="midnightblue" d="M1050.8,-90.63C866.76,-85.53 385.86,-69.87 228.5,-42 217.51,-40.05 205.77,-36.87 195.29,-33.62"/>
<polygon fill="midnightblue" stroke="midnightblue" points="196.28,-30.26 185.69,-30.51 194.13,-36.92 196.28,-30.26"/>
</g>
<!-- Node4 -->
<g id="node4" class="node">
<title>Node4</title>
<g id="a_node4"><a xlink:title=" ">
<polygon fill="none" stroke="#bfbfbf" points="238,-11.5 238,-30.5 347,-30.5 347,-11.5 238,-11.5"/>
<text text-anchor="middle" x="292.5" y="-18.5" font-family="Helvetica,sans-Serif" font-size="10.00">AMReX_FabArray.H</text>
</a>
</g>
</g>
<!-- Node1&#45;&gt;Node4 -->
<g id="edge3" class="edge">
<title>Node1&#45;&gt;Node4</title>
<path fill="none" stroke="midnightblue" d="M1050.96,-89.97C886.15,-83.85 487.54,-66.92 355.5,-42 345.29,-40.07 334.42,-37.01 324.64,-33.85"/>
<polygon fill="midnightblue" stroke="midnightblue" points="325.5,-30.45 314.91,-30.57 323.26,-37.08 325.5,-30.45"/>
</g>
<!-- Node5 -->
<g id="node5" class="node">
<title>Node5</title>
<g id="a_node5"><a xlink:title=" ">
<polygon fill="none" stroke="#bfbfbf" points="365,-11.5 365,-30.5 466,-30.5 466,-11.5 365,-11.5"/>
<text text-anchor="middle" x="415.5" y="-18.5" font-family="Helvetica,sans-Serif" font-size="10.00">AMReX_IntVect.H</text>
</a>
</g>
</g>
<!-- Node1&#45;&gt;Node5 -->
<g id="edge4" class="edge">
<title>Node1&#45;&gt;Node5</title>
<path fill="none" stroke="midnightblue" d="M1050.79,-92.58C930.07,-91.44 681.21,-83.65 475.5,-42 465.86,-40.05 455.62,-37.01 446.37,-33.89"/>
<polygon fill="midnightblue" stroke="midnightblue" points="447.41,-30.55 436.82,-30.52 445.08,-37.15 447.41,-30.55"/>
</g>
<!-- Node6 -->
<g id="node6" class="node">
<title>Node6</title>
<g id="a_node6"><a xlink:title=" ">
<polygon fill="none" stroke="#bfbfbf" points="484.5,-11.5 484.5,-30.5 584.5,-30.5 584.5,-11.5 484.5,-11.5"/>
<text text-anchor="middle" x="534.5" y="-18.5" font-family="Helvetica,sans-Serif" font-size="10.00">AMReX_Derive.H</text>
</a>
</g>
</g>
<!-- Node1&#45;&gt;Node6 -->
<g id="edge5" class="edge">
<title>Node1&#45;&gt;Node6</title>
<path fill="none" stroke="midnightblue" d="M1050.68,-90.89C947.77,-87.4 754.38,-76.44 593.5,-42 584.2,-40.01 574.33,-37.03 565.38,-33.97"/>
<polygon fill="midnightblue" stroke="midnightblue" points="566.34,-30.59 555.74,-30.53 563.99,-37.19 566.34,-30.59"/>
</g>
<!-- Node7 -->
<g id="node7" class="node">
<title>Node7</title>
<g id="a_node7"><a xlink:title=" ">
<polygon fill="none" stroke="#bfbfbf" points="603,-11.5 603,-30.5 746,-30.5 746,-11.5 603,-11.5"/>
<text text-anchor="middle" x="674.5" y="-18.5" font-family="Helvetica,sans-Serif" font-size="10.00">AMReX_StateDescriptor.H</text>
</a>
</g>
</g>
<!-- Node1&#45;&gt;Node7 -->
<g id="edge6" class="edge">
<title>Node1&#45;&gt;Node7</title>
<path fill="none" stroke="midnightblue" d="M1050.86,-84.83C976.36,-76.42 857.31,-61.5 755.5,-42 742.48,-39.51 728.41,-36.24 715.72,-33.07"/>
<polygon fill="midnightblue" stroke="midnightblue" points="716.43,-29.64 705.87,-30.57 714.7,-36.42 716.43,-29.64"/>
</g>
<!-- Node8 -->
<g id="node8" class="node">
<title>Node8</title>
<g id="a_node8"><a xlink:title=" ">
<polygon fill="none" stroke="#bfbfbf" points="764.5,-11.5 764.5,-30.5 904.5,-30.5 904.5,-11.5 764.5,-11.5"/>
<text text-anchor="middle" x="834.5" y="-18.5" font-family="Helvetica,sans-Serif" font-size="10.00">AMReX_GpuContainers.H</text>
</a>
</g>
</g>
<!-- Node1&#45;&gt;Node8 -->
<g id="edge7" class="edge">
<title>Node1&#45;&gt;Node8</title>
<path fill="none" stroke="midnightblue" d="M1064.16,-78.43C1022.08,-68.4 964.29,-54.53 913.5,-42 901.92,-39.14 889.4,-36 877.81,-33.06"/>
<polygon fill="midnightblue" stroke="midnightblue" points="878.47,-29.62 867.92,-30.55 876.75,-36.41 878.47,-29.62"/>
</g>
<!-- Node9 -->
<g id="node9" class="node">
<title>Node9</title>
<g id="a_node9"><a xlink:title=" ">
<polygon fill="none" stroke="#bfbfbf" points="923,-11.5 923,-30.5 970,-30.5 970,-11.5 923,-11.5"/>
<text text-anchor="middle" x="946.5" y="-18.5" font-family="Helvetica,sans-Serif" font-size="10.00">prob.h</text>
</a>
</g>
</g>
<!-- Node1&#45;&gt;Node9 -->
<g id="edge8" class="edge">
<title>Node1&#45;&gt;Node9</title>
<path fill="none" stroke="midnightblue" d="M1074.41,-78.41C1045.8,-69.47 1009.39,-56.8 978.5,-42 974.82,-40.23 971.03,-38.14 967.41,-35.99"/>
<polygon fill="midnightblue" stroke="midnightblue" points="969.23,-33 958.9,-30.65 965.51,-38.93 969.23,-33"/>
</g>
<!-- Node10 -->
<g id="node10" class="node">
<title>Node10</title>
<g id="a_node10"><a xlink:title=" ">
<polygon fill="none" stroke="#bfbfbf" points="988,-0.5 988,-41.5 1117,-41.5 1117,-0.5 988,-0.5"/>
<text text-anchor="start" x="996" y="-29.5" font-family="Helvetica,sans-Serif" font-size="10.00">CGAL/Exact_predicates</text>
<text text-anchor="start" x="996" y="-18.5" font-family="Helvetica,sans-Serif" font-size="10.00">_inexact_constructions</text>
<text text-anchor="middle" x="1052.5" y="-7.5" font-family="Helvetica,sans-Serif" font-size="10.00">_kernel.h</text>
</a>
</g>
</g>
<!-- Node1&#45;&gt;Node10 -->
<g id="edge9" class="edge">
<title>Node1&#45;&gt;Node10</title>
<path fill="none" stroke="midnightblue" d="M1109.13,-78.23C1100.59,-69.75 1089.48,-58.72 1079.37,-48.68"/>
<polygon fill="midnightblue" stroke="midnightblue" points="1081.79,-46.15 1072.23,-41.59 1076.86,-51.12 1081.79,-46.15"/>
</g>
<!-- Node11 -->
<g id="node11" class="node">
<title>Node11</title>
<g id="a_node11"><a xlink:title=" ">
<polygon fill="none" stroke="#bfbfbf" points="1135,-11.5 1135,-30.5 1256,-30.5 1256,-11.5 1135,-11.5"/>
<text text-anchor="middle" x="1195.5" y="-18.5" font-family="Helvetica,sans-Serif" font-size="10.00">CGAL/Polyhedron_3.h</text>
</a>
</g>
</g>
<!-- Node1&#45;&gt;Node11 -->
<g id="edge10" class="edge">
<title>Node1&#45;&gt;Node11</title>
<path fill="none" stroke="midnightblue" d="M1138.07,-78.23C1149.94,-66.62 1166.68,-50.22 1179.03,-38.12"/>
<polygon fill="midnightblue" stroke="midnightblue" points="1181.72,-40.39 1186.42,-30.89 1176.82,-35.39 1181.72,-40.39"/>
</g>
<!-- Node12 -->
<g id="node12" class="node">
<title>Node12</title>
<g id="a_node12"><a xlink:title=" ">
<polygon fill="none" stroke="#bfbfbf" points="1274,-6 1274,-36 1449,-36 1449,-6 1274,-6"/>
<text text-anchor="start" x="1282" y="-24" font-family="Helvetica,sans-Serif" font-size="10.00">CGAL/Polygon_mesh_processing</text>
<text text-anchor="middle" x="1361.5" y="-13" font-family="Helvetica,sans-Serif" font-size="10.00">/IO/polygon_mesh_io.h</text>
</a>
</g>
</g>
<!-- Node1&#45;&gt;Node12 -->
<g id="edge11" class="edge">
<title>Node1&#45;&gt;Node12</title>
<path fill="none" stroke="midnightblue" d="M1170.81,-78.49C1209.13,-67.14 1263.27,-51.1 1304.07,-39.01"/>
<polygon fill="midnightblue" stroke="midnightblue" points="1305.28,-42.3 1313.88,-36.11 1303.29,-35.59 1305.28,-42.3"/>
</g>
<!-- Node13 -->
<g id="node13" class="node">
<title>Node13</title>
<g id="a_node13"><a xlink:title=" ">
<polygon fill="none" stroke="#bfbfbf" points="1467,-11.5 1467,-30.5 1606,-30.5 1606,-11.5 1467,-11.5"/>
<text text-anchor="middle" x="1536.5" y="-18.5" font-family="Helvetica,sans-Serif" font-size="10.00">CGAL/Simple_cartesian.h</text>
</a>
</g>
</g>
<!-- Node1&#45;&gt;Node13 -->
<g id="edge12" class="edge">
<title>Node1&#45;&gt;Node13</title>
<path fill="none" stroke="midnightblue" d="M1196.08,-83.72C1264.19,-74.97 1368.72,-60.23 1458.5,-42 1470.92,-39.48 1484.32,-36.24 1496.45,-33.1"/>
<polygon fill="midnightblue" stroke="midnightblue" points="1497.51,-36.44 1506.29,-30.51 1495.73,-29.67 1497.51,-36.44"/>
</g>
<!-- Node14 -->
<g id="node14" class="node">
<title>Node14</title>
<g id="a_node14"><a xlink:title=" ">
<polygon fill="none" stroke="#bfbfbf" points="1624,-11.5 1624,-30.5 1731,-30.5 1731,-11.5 1624,-11.5"/>
<text text-anchor="middle" x="1677.5" y="-18.5" font-family="Helvetica,sans-Serif" font-size="10.00">CGAL/AABB_tree.h</text>
</a>
</g>
</g>
<!-- Node1&#45;&gt;Node14 -->
<g id="edge13" class="edge">
<title>Node1&#45;&gt;Node14</title>
<path fill="none" stroke="midnightblue" d="M1196.35,-89.79C1293.03,-85.12 1468.66,-72.86 1615.5,-42 1625.36,-39.93 1635.86,-36.88 1645.37,-33.78"/>
<polygon fill="midnightblue" stroke="midnightblue" points="1646.49,-37.09 1654.84,-30.57 1644.25,-30.46 1646.49,-37.09"/>
</g>
<!-- Node15 -->
<g id="node15" class="node">
<title>Node15</title>
<g id="a_node15"><a xlink:title=" ">
<polygon fill="none" stroke="#bfbfbf" points="1749,-11.5 1749,-30.5 1862,-30.5 1862,-11.5 1749,-11.5"/>
<text text-anchor="middle" x="1805.5" y="-18.5" font-family="Helvetica,sans-Serif" font-size="10.00">CGAL/AABB_traits.h</text>
</a>
</g>
</g>
<!-- Node1&#45;&gt;Node15 -->
<g id="edge14" class="edge">
<title>Node1&#45;&gt;Node15</title>
<path fill="none" stroke="midnightblue" d="M1196.38,-91.63C1312.52,-89.11 1546.31,-79.36 1740.5,-42 1751.02,-39.98 1762.25,-36.87 1772.37,-33.71"/>
<polygon fill="midnightblue" stroke="midnightblue" points="1773.61,-36.99 1782.04,-30.57 1771.45,-30.33 1773.61,-36.99"/>
</g>
<!-- Node16 -->
<g id="node16" class="node">
<title>Node16</title>
<g id="a_node16"><a xlink:title=" ">
<polygon fill="none" stroke="#bfbfbf" points="1880.5,-6 1880.5,-36 2012.5,-36 2012.5,-6 1880.5,-6"/>
<text text-anchor="start" x="1888.5" y="-24" font-family="Helvetica,sans-Serif" font-size="10.00">CGAL/AABB_face_graph</text>
<text text-anchor="middle" x="1946.5" y="-13" font-family="Helvetica,sans-Serif" font-size="10.00">_triangle_primitive.h</text>
</a>
</g>
</g>
<!-- Node1&#45;&gt;Node16 -->
<g id="edge15" class="edge">
<title>Node1&#45;&gt;Node16</title>
<path fill="none" stroke="midnightblue" d="M1196.24,-92.24C1330.57,-90.72 1626.24,-82.59 1871.5,-42 1877.29,-41.04 1883.28,-39.83 1889.24,-38.48"/>
<polygon fill="midnightblue" stroke="midnightblue" points="1890.28,-41.83 1899.19,-36.1 1888.65,-35.02 1890.28,-41.83"/>
</g>
<!-- Node17 -->
<g id="node17" class="node">
<title>Node17</title>
<g id="a_node17"><a xlink:title=" ">
<polygon fill="none" stroke="#bfbfbf" points="2031,-6 2031,-36 2206,-36 2206,-6 2031,-6"/>
<text text-anchor="start" x="2039" y="-24" font-family="Helvetica,sans-Serif" font-size="10.00">CGAL/Polygon_mesh_processing</text>
<text text-anchor="middle" x="2118.5" y="-13" font-family="Helvetica,sans-Serif" font-size="10.00">/compute_normal.h</text>
</a>
</g>
</g>
<!-- Node1&#45;&gt;Node17 -->
<g id="edge16" class="edge">
<title>Node1&#45;&gt;Node17</title>
<path fill="none" stroke="midnightblue" d="M1196,-92.03C1349.13,-90.25 1716.47,-81.8 2021.5,-42 2029.89,-40.9 2038.65,-39.49 2047.31,-37.92"/>
<polygon fill="midnightblue" stroke="midnightblue" points="2048.24,-41.31 2057.41,-36.02 2046.94,-34.43 2048.24,-41.31"/>
</g>
<!-- Node18 -->
<g id="node18" class="node">
<title>Node18</title>
<g id="a_node18"><a xlink:title=" ">
<polygon fill="none" stroke="#bfbfbf" points="2224,-6 2224,-36 2339,-36 2339,-6 2224,-6"/>
<text text-anchor="start" x="2232" y="-24" font-family="Helvetica,sans-Serif" font-size="10.00">boost/property_map</text>
<text text-anchor="middle" x="2281.5" y="-13" font-family="Helvetica,sans-Serif" font-size="10.00">/property_map.hpp</text>
</a>
</g>
</g>
<!-- Node1&#45;&gt;Node18 -->
<g id="edge17" class="edge">
<title>Node1&#45;&gt;Node18</title>
<path fill="none" stroke="midnightblue" d="M1196.07,-91.49C1407.2,-88.17 2018.64,-75.84 2215.5,-42 2220.53,-41.13 2225.72,-40 2230.87,-38.72"/>
<polygon fill="midnightblue" stroke="midnightblue" points="2231.94,-42.06 2240.69,-36.08 2230.12,-35.29 2231.94,-42.06"/>
</g>
<!-- Node19 -->
<g id="node19" class="node">
<title>Node19</title>
<g id="a_node19"><a xlink:title=" ">
<polygon fill="none" stroke="#bfbfbf" points="2357,-6 2357,-36 2482,-36 2482,-6 2357,-6"/>
<text text-anchor="start" x="2365" y="-24" font-family="Helvetica,sans-Serif" font-size="10.00">CGAL/Side_of_triangle</text>
<text text-anchor="middle" x="2419.5" y="-13" font-family="Helvetica,sans-Serif" font-size="10.00">_mesh.h</text>
</a>
</g>
</g>
<!-- Node1&#45;&gt;Node19 -->
<g id="edge18" class="edge">
<title>Node1&#45;&gt;Node19</title>
<path fill="none" stroke="midnightblue" d="M1196.22,-91.73C1424.43,-88.95 2124.5,-77.66 2348.5,-42 2354.03,-41.12 2359.75,-39.96 2365.42,-38.63"/>
<polygon fill="midnightblue" stroke="midnightblue" points="2366.69,-41.92 2375.54,-36.1 2364.99,-35.13 2366.69,-41.92"/>
</g>
</g>
</svg>
        <g id="navigator" transform="translate(0 0)" fill="#404254">
                <rect fill="#f2f5e9" fill-opacity="0.5" stroke="#606060" stroke-width=".5" x="0" y="0" width="60" height="60"/>
                <use id="zoomplus" xlink:href="#zoomPlus" x="17" y="9" onmousedown="handleZoom(evt,'in')"/>
                <use id="zoomminus" xlink:href="#zoomMin" x="42" y="9" onmousedown="handleZoom(evt,'out')"/>
                <use id="reset" xlink:href="#resetDef" x="30" y="36" onmousedown="handleReset()"/>
                <g id="arrowUp" xlink:href="#dirArrow" transform="translate(30 24)" onmousedown="handlePan(0,-1)">
                  <use xlink:href="#rim" fill="#404040">
                        <set attributeName="fill" to="#808080" begin="arrowUp.mouseover" end="arrowUp.mouseout"/>
                  </use>
                  <path fill="none" stroke="white" stroke-width="1.5" d="M0,-3.0v7 M-2.5,-0.5L0,-3.0L2.5,-0.5"/>
                </g>
                <g id="arrowRight" xlink:href="#dirArrow" transform="rotate(90) translate(36 -43)" onmousedown="handlePan(1,0)">
                  <use xlink:href="#rim" fill="#404040">
                        <set attributeName="fill" to="#808080" begin="arrowRight.mouseover" end="arrowRight.mouseout"/>
                  </use>
                  <path fill="none" stroke="white" stroke-width="1.5" d="M0,-3.0v7 M-2.5,-0.5L0,-3.0L2.5,-0.5"/>
                </g>
                <g id="arrowDown" xlink:href="#dirArrow" transform="rotate(180) translate(-30 -48)" onmousedown="handlePan(0,1)">
                  <use xlink:href="#rim" fill="#404040">
                        <set attributeName="fill" to="#808080" begin="arrowDown.mouseover" end="arrowDown.mouseout"/>
                  </use>
                  <path fill="none" stroke="white" stroke-width="1.5" d="M0,-3.0v7 M-2.5,-0.5L0,-3.0L2.5,-0.5"/>
                </g>
                <g id="arrowLeft" xlink:href="#dirArrow" transform="rotate(270) translate(-36 17)" onmousedown="handlePan(-1,0)">
                  <use xlink:href="#rim" fill="#404040">
                        <set attributeName="fill" to="#808080" begin="arrowLeft.mouseover" end="arrowLeft.mouseout"/>
                  </use>
                  <path fill="none" stroke="white" stroke-width="1.5" d="M0,-3.0v7 M-2.5,-0.5L0,-3.0L2.5,-0.5"/>
                </g>
        </g>
        <svg viewBox="0 0 15 15" width="100%" height="30px" preserveAspectRatio="xMaxYMin meet">
         <g id="arrow_out" transform="scale(0.3 0.3)">
          <a xlink:href="IBM_8h__incl_org.svg" target="_base">
           <rect id="button" ry="5" rx="5" y="6" x="6" height="38" width="38"
                fill="#f2f5e9" fill-opacity="0.5" stroke="#606060" stroke-width="1.0"/>
           <path id="arrow"
             d="M 11.500037,31.436501 C 11.940474,20.09759 22.043105,11.32322 32.158766,21.979434 L 37.068811,17.246167 C 37.068811,17.246167 37.088388,32 37.088388,32 L 22.160133,31.978069 C 22.160133,31.978069 26.997745,27.140456 26.997745,27.140456 C 18.528582,18.264221 13.291696,25.230495 11.500037,31.436501 z"
             style="fill:#404040;"/>
          </a>
         </g>
        </svg>
</svg>
