<?xml version="1.0" encoding="UTF-8" standalone="no"?>
<!DOCTYPE svg PUBLIC "-//W3C//DTD SVG 1.1//EN"
 "http://www.w3.org/Graphics/SVG/1.1/DTD/svg11.dtd">
<!-- Generated by graphviz version 2.43.0 (0)
 -->
<!-- Title: Graphical Class Hierarchy Pages: 1 -->
<svg width="246pt" height="142pt"
 viewBox="0.00 0.00 246.00 142.00" xmlns="http://www.w3.org/2000/svg" xmlns:xlink="http://www.w3.org/1999/xlink">
<g id="graph0" class="graph" transform="scale(1 1) rotate(0) translate(4 138)">
<title>Graphical Class Hierarchy</title>
<!-- Node7 -->
<g id="node1" class="node">
<title>Node7</title>
<g id="a_node1"><a xlink:title=" ">
<polygon fill="none" stroke="#bfbfbf" points="13.5,-114.5 13.5,-133.5 54.5,-133.5 54.5,-114.5 13.5,-114.5"/>
<text text-anchor="middle" x="34" y="-121.5" font-family="Helvetica,sans-Serif" font-size="10.00">Cond</text>
</a>
</g>
</g>
<!-- Node0 -->
<g id="node2" class="node">
<title>Node0</title>
<g id="a_node2"><a xlink:href="classclosures__derived__base__t.html" target="_top" xlink:title=" ">
<polygon fill="none" stroke="black" points="104,-46.5 104,-87.5 238,-87.5 238,-46.5 104,-46.5"/>
<text text-anchor="start" x="112" y="-75.5" font-family="Helvetica,sans-Serif" font-size="10.00">closures_derived_base</text>
<text text-anchor="start" x="112" y="-64.5" font-family="Helvetica,sans-Serif" font-size="10.00">_t&lt; Visc, Cond, Thermo,</text>
<text text-anchor="middle" x="171" y="-53.5" font-family="Helvetica,sans-Serif" font-size="10.00"> ProbParms &gt;</text>
</a>
</g>
</g>
<!-- Node7&#45;&gt;Node0 -->
<g id="edge1" class="edge">
<title>Node7&#45;&gt;Node0</title>
<path fill="none" stroke="midnightblue" d="M63.85,-111.82C80.53,-104.78 101.96,-95.73 121.19,-87.61"/>
<polygon fill="midnightblue" stroke="midnightblue" points="62.48,-108.6 54.63,-115.71 65.2,-115.05 62.48,-108.6"/>
</g>
<!-- Node19 -->
<g id="node3" class="node">
<title>Node19</title>
<g id="a_node3"><a xlink:title=" ">
<polygon fill="none" stroke="#bfbfbf" points="0,-76.5 0,-95.5 68,-95.5 68,-76.5 0,-76.5"/>
<text text-anchor="middle" x="34" y="-83.5" font-family="Helvetica,sans-Serif" font-size="10.00">ProbParms</text>
</a>
</g>
</g>
<!-- Node19&#45;&gt;Node0 -->
<g id="edge2" class="edge">
<title>Node19&#45;&gt;Node0</title>
<path fill="none" stroke="midnightblue" d="M78.07,-79.94C86.28,-78.78 95.04,-77.55 103.77,-76.32"/>
<polygon fill="midnightblue" stroke="midnightblue" points="77.44,-76.49 68.02,-81.35 78.41,-83.42 77.44,-76.49"/>
</g>
<!-- Node21 -->
<g id="node4" class="node">
<title>Node21</title>
<g id="a_node4"><a xlink:title=" ">
<polygon fill="none" stroke="#bfbfbf" points="7,-38.5 7,-57.5 61,-57.5 61,-38.5 7,-38.5"/>
<text text-anchor="middle" x="34" y="-45.5" font-family="Helvetica,sans-Serif" font-size="10.00">Thermo</text>
</a>
</g>
</g>
<!-- Node21&#45;&gt;Node0 -->
<g id="edge3" class="edge">
<title>Node21&#45;&gt;Node0</title>
<path fill="none" stroke="midnightblue" d="M71.12,-53.08C81.27,-54.51 92.65,-56.11 103.97,-57.71"/>
<polygon fill="midnightblue" stroke="midnightblue" points="71.42,-49.59 61.03,-51.66 70.44,-56.52 71.42,-49.59"/>
</g>
<!-- Node22 -->
<g id="node5" class="node">
<title>Node22</title>
<g id="a_node5"><a xlink:title=" ">
<polygon fill="none" stroke="#bfbfbf" points="15.5,-0.5 15.5,-19.5 52.5,-19.5 52.5,-0.5 15.5,-0.5"/>
<text text-anchor="middle" x="34" y="-7.5" font-family="Helvetica,sans-Serif" font-size="10.00">Visc</text>
</a>
</g>
</g>
<!-- Node22&#45;&gt;Node0 -->
<g id="edge4" class="edge">
<title>Node22&#45;&gt;Node0</title>
<path fill="none" stroke="midnightblue" d="M61.94,-21.38C78.89,-28.53 101.25,-37.97 121.24,-46.41"/>
<polygon fill="midnightblue" stroke="midnightblue" points="63.22,-18.12 52.65,-17.45 60.5,-24.57 63.22,-18.12"/>
</g>
</g>
</svg>
